<?xml version="1.0" encoding="utf-8"?>
<!-- Generator: Adobe Illustrator 24.0.3, SVG Export Plug-In . SVG Version: 6.00 Build 0)  -->
<svg version="1.1" id="ELVIS" xmlns="http://www.w3.org/2000/svg" xmlns:xlink="http://www.w3.org/1999/xlink" x="0px" y="0px"
	 viewBox="0 0 72 72" style="enable-background:new 0 0 72 72;" xml:space="preserve">
<style type="text/css">
	.st0{fill:#FFFFFF;}
</style>
<g id="elvisFace">
	<path d="M-0.3,71c0-23.5,0-47.1,0-70.6C-0.3,0.1-0.2,0,0.1,0C24.1,0,48,0,72,0c0.3,0,0.4,0.1,0.4,0.4c0,12.3,0,24.5,0,36.8
		c-0.6-0.5-1.3-0.9-2-1.2c-0.2-0.1-0.3-0.3-0.5-0.1c-0.2,0.2-0.1,0.4,0,0.6c0,0.1,0.1,0.2,0.1,0.3c0.5,1,0.6,2.1,0.6,3.2
		c0,1.8-0.1,3.5-0.1,5.3c-0.1,2.2,0.1,4.3,0.6,6.4c0.2,0.8,0.4,1.6,0.4,2.5c0,1.4-0.6,2.1-2,2.3c-1.3,0.2-2.5,0.3-3.8,0.5
		c-0.9,0.1-1.8,0.2-2.6,0.6c-0.8,0.3-1.2,1.5-0.7,2.1c0.3,0.4,0.2,1.1-0.2,1.4c-0.3,0.2-0.6,0.4-0.7,0.8c-0.2,0.8-0.5,1.7-0.7,2.5
		c-0.3,1.2-0.6,2.3-0.8,3.5c-0.3,1.4-0.8,2.8-1,4.2c-2,0-3.9,0-5.9,0c0.1-0.7,0.1-1.4,0.1-2.1c0-1.1-0.1-2.1-0.2-3.2
		c0-0.4-0.2-0.8-0.4-1.1c-0.6-0.9-1.3-1.6-1.7-2.6c-0.5-1.4-1.2-2.6-1.9-3.9c-0.2-0.3-0.2-0.6-0.2-1c0.2-0.8,0.3-1.6,0.5-2.4
		c0.1-0.4,0-0.6-0.3-0.9c-0.3-0.3-0.5-0.5-0.7-0.8c-0.2-0.3-0.2-0.5,0-0.8c0.6-0.7,1-1.4,1.1-2.3c0.1-0.6,0.1-1.1,0.2-1.7
		c0.2-1-0.2-1.6-0.9-2.2c-1-0.8-0.9-0.8-2-0.1c-0.7,0.5-1.4,1.1-2.2,1.3c-0.2,0.1-0.4,0.2-0.6,0.4c-1.1,1-1.7,2.3-2,3.7
		c-0.5,1.6-0.7,3.3-1.1,5c-0.2,0.9-0.4,1.9-0.7,2.8c-0.4,1.1-0.6,2.1-0.5,3.2c0,0.6,0.1,1.3,0,1.9c-0.1,1,0,1.9,0.1,2.8
		c0.1,1,0,1.9-0.8,2.6c-0.4,0.4-0.7,0.8-0.8,1.3c-12.7,0-25.4,0-38,0c-0.2,0-0.4,0.1-0.3-0.3 M39.8,28.3c0.2-0.3,0.3-0.6,0.4-0.9
		c0-0.1,0.1-0.3-0.1-0.4c-0.2-0.1-0.2,0-0.3,0.1c-0.1,0.1-0.4,0.5-0.5-0.1c0-0.1-0.2-0.2-0.4-0.3c-0.1-0.1-0.3-0.1-0.4,0
		c-0.1,0.1-0.1,0.3,0,0.4c0.1,0.3,0.1,0.6,0.3,0.8c0.1,0.1,0.2,0.3,0.1,0.5c-0.3,0.4-0.1,0.9,0.1,1.3c0.2,0.5,0.4,0.9,0.6,1.4
		c0.1,0.2,0.1,0.3,0,0.5c-0.1,0.1-0.2,0.2,0,0.3c0.1,0.1,0.3,0.4,0.5,0.3c0.5-0.2,1.1-0.2,1.7-0.3c0.9-0.1,1.8-0.5,2.8-0.5
		c0.8,0,1.6,0,2.2,0.6c0.2,0.2,0.5,0.8,0.4,1c-0.1,0.3-0.5,0.2-0.7,0.3c-0.1,0-0.2,0-0.3,0c-0.4-0.1-0.8-0.1-1,0.4
		c0,0-0.1,0.1-0.2,0.1c-0.4,0.2-0.8,0.1-1.2-0.1c-0.1-0.1-0.2-0.2-0.4-0.1c-0.2,0.1-0.2,0.3-0.1,0.4c0,0.1,0,0.2-0.1,0.3
		c-0.1,0-0.2,0.1-0.1,0.2c0.1,0.1,0.2,0.1,0.3,0.1c0.4-0.1,0.7-0.1,1.1-0.2c0.5-0.1,1.1-0.3,1.6-0.5c-0.2,0.2-0.4,0.3-0.7,0.5
		c-0.4,0.3-1.2,0.1-1.2,1c0,0-0.1,0.1-0.1,0.1c-0.4,0.2-1.2,0.2-1.4-0.1c-0.5-0.6-1.2-0.6-1.8-0.9c-0.3-0.1-0.6-0.2-0.8-0.6
		c0.1,0.6,0.4,1,0.6,1.5c0.3,0.7,0.8,1.4,1.2,2.1c1.1,1.8,2.2,3.7,3.6,5.3c0.7,0.8,1.2,1.7,2,2.4c0.2,0.2,0.4,0.4,0.7,0.4
		c0.3,0,0.5,0.2,0.7,0.3c0.4,0.2,0.7,0.5,1.1,0.8c0.1,0.1,0.3,0.3,0.5,0.1c0.2-0.1,0.1-0.3,0.1-0.4c0-0.3-0.2-0.6-0.3-0.9
		c0-0.1-0.1-0.3,0-0.4c0.1-0.1,0.2,0.1,0.3,0.1c0.1,0.1,0.3,0.3,0.4,0.2c0.3-0.2,0.4,0,0.6,0.1c0.8,0.3,1.6,0.4,2.4,0
		c0.2-0.1,0.4-0.2,0.6-0.3c0.2,0,0.4-0.2,0.6-0.4c0.2-0.3,0.5-0.5,0.8-0.8c0.1-0.1,0.3-0.2,0.4,0c0.1,0.1,0.4,0.2,0.2,0.4
		c-0.5,0.6-0.9,1.3-1.6,1.5c-0.9,0.2-1.8,0.7-2.8,0.6c-0.3,0-0.7,0-0.8,0.4c-0.2,0.4-0.4,0.6-0.8,0.7c-0.1,0-0.3,0.1-0.1,0.3
		c0.3,0.3,0.5,0.7,1,0.9c0.6,0.3,1.2,0.6,1.8,0.9c0.6,0.3,1.2,0.4,1.9,0.2c0.5-0.1,1-0.2,1.4-0.3c1-0.3,2-0.6,2.7-1.4
		c0.5-0.5,0.8-1.2,1.3-1.7c0-0.1,0.1-0.2,0.1-0.2c0-0.8,0.3-1.5,0.8-2.1c0.1-0.2,0.3-0.3,0.4-0.5c0.2-0.4,0.6-0.6,0.7-1.1
		c0-0.4,0.2-0.6,0.4-0.9c0.2-0.2,0.3-0.4,0.2-0.6c-0.3-0.5-0.5-1-0.7-1.6c-0.4-1.1-0.7-2.2-0.5-3.4c0-0.3,0.2-0.6,0.1-1
		c-0.1-0.7-0.2-1.3,0-2c0.1-0.2,0-0.4-0.1-0.7c-0.2-0.7-0.3-1.4-0.1-2.1c0.3-1-0.1-1.9-0.3-2.9c-0.1-0.6-0.5-1.1-0.7-1.6
		c-0.1-0.2-0.2-0.3-0.3-0.4c-0.7-0.4-0.9-1.3-1.7-1.5c0,0-0.1-0.1-0.1-0.1c-0.2-0.5-0.8-0.7-1.2-1c-0.2-0.1-0.4-0.2-0.6-0.2
		c-0.5,0.2-0.7,0-0.9-0.4c-0.1-0.1-0.2-0.3-0.3,0c-0.2,0.4-0.3,0.4-0.6,0c-0.1-0.1-0.2-0.2-0.4-0.2c-0.4,0-0.7,0.1-0.8,0.6
		c-0.2,0.7-0.7,0.9-1.2,1.3c-0.3,0.2-0.3-0.5-0.5-0.2c-0.1,0.3-0.3,0.4-0.5,0.4c-0.3,0.1-0.5,0.2-0.8,0.2c-0.4,0-0.9,0.2-1.3-0.3
		c-0.1-0.1-0.2-0.1-0.4,0c-0.8,0.3-1.4,0.2-2.1-0.3c-0.7-0.6-0.7-0.5-1.3,0.1c-0.1,0.1-0.2,0.2-0.3,0.3c-0.3,0.2-0.1,0.3,0.1,0.4
		c0.2,0.1,0.5-0.1,0.7,0.1c-0.5,0.2-0.9,0.3-1.3,0.5c-0.2,0.1-0.4,0.1-0.4,0.4c0,0.5-0.3,0.8-0.8,0.8c-0.4,0-0.6,0.2-0.8,0.6
		c-0.1,0.3-0.3,0.6-0.5,0.9c-0.3,0.4-0.7,0.3-1.1,0.4c0-0.4-0.1-0.4-0.4-0.2C40.4,27.9,40.2,28.3,39.8,28.3z M64.5,30
		c0,0.2,0.1,0.3,0.1,0.5c0,0.1,0.2,0.2,0.2,0.1c0.1-0.4,0.6-0.4,0.7-0.8c0.1-0.5,0.1-1,0.4-1.4c0.1-0.1,0-0.3-0.1-0.4
		c-0.1-0.1-0.3,0-0.4,0.1C64.8,28.6,64.5,29.2,64.5,30z M56.7,55.6c0.1,0.1-0.1,0.4,0.2,0.3c0.3-0.2,0.6-0.5,0.7-0.9
		c0.1-0.3-0.2-0.4-0.4-0.5c-0.3-0.2-0.4-0.2-0.4,0.2C56.7,54.9,56.7,55.3,56.7,55.6z M64.4,26.6c0,0.1,0,0.2,0,0.4
		c0,0.1,0.1,0.2,0.2,0.3c0.1,0,0.2-0.1,0.3-0.2c0.3-0.4,0.2-0.8,0-1.2c-0.1-0.1-0.1-0.2-0.3-0.2c-0.2,0-0.2,0.2-0.2,0.3
		C64.4,26.2,64.4,26.4,64.4,26.6z M65.2,31.1c0.4,0,0.6,0,0.8-0.4C65.6,30.7,65.3,30.6,65.2,31.1z M46.9,19.3c0,0-0.1,0-0.1,0"/>
	<path d="M52.6,31.9c0.4-0.3,0.8-0.4,1.2-0.5c0.7-0.1,1.3-0.5,1.9-0.8c0.2-0.1,0.2-0.2,0.3-0.4c0-0.1-0.1-0.2-0.2-0.2
		c-0.2-0.1-0.3,0.1-0.4,0.2c-0.3,0.6-1.2,0.7-1.7,0.3c-0.2-0.2-0.3-0.2-0.5,0c-0.2,0.2-0.5,0.4-0.8,0.7c-0.4,0.4-0.9,0.2-1.2,0.5
		c-0.1,0.1-0.2,0-0.3-0.1c-0.2-0.2-0.4-0.3-0.6-0.1c-0.1,0.1-0.2,0.2-0.3,0.1c-0.1-0.1,0-0.2,0.1-0.3c0.1-0.1,0.2-0.2,0.4-0.3
		c0.1-0.1,0.4-0.1,0.3-0.3c-0.1-0.2-0.2-0.4-0.5-0.4c-0.2,0-0.4,0-0.6,0c-0.2-0.1-0.3-0.2-0.3-0.4c0-0.2,0.1-0.3,0.3-0.3
		c0.9-0.4,1.7-0.9,2.6-1.2c0.4-0.1,0.8-0.3,1.2-0.7c0.2-0.2,0.6-0.4,0.9-0.5c0.9-0.3,1.8-0.4,2.7-0.6c0.2,0,0.3,0,0.5,0
		c0.3,0,0.5,0.1,0.8-0.1c0.2-0.2,0.7,0.1,0.7,0.5c0,0.3,0,0.6,0.2,0.9c0.1,0.2-0.1,0.3-0.3,0.4c-0.5,0.4-1,0.7-1.5,1.1
		c-0.4,0.2-0.5,0.6-0.5,1c0,0.2-0.1,0.3-0.3,0.4c-0.9,0.1-1.7,0.6-2.6,0.8C53.7,31.7,53.1,31.8,52.6,31.9z"/>
	<path d="M48.4,40.6c0.3-0.1,0.4,0,0.5,0c0.7,0.3,1.3,0.1,2,0c0.1,0,0.2-0.1,0.3-0.2c0.3-0.6,0.9-0.7,1.5-0.9c1-0.2,1.3-0.9,0.9-1.8
		c0-0.1-0.2-0.2-0.1-0.3c0.1-0.1,0.2,0,0.3,0.1c0.4,0.2,0.4,0.6,0.6,0.9c0.5,0.9,0.2,1.7-0.6,2.2c-0.5,0.4-1.1,0.7-1.6,1.1
		c-0.2,0.2-0.5,0.2-0.8,0.2c-0.7,0-1.4-0.2-2-0.5c-0.1-0.1-0.2-0.1-0.3-0.3C49,41,48.8,40.8,48.4,40.6z"/>
	<path d="M51,45c-0.2-0.1-0.1-0.2-0.1-0.3c0-0.1,0.1-0.3,0-0.4c-0.2-0.1-0.3,0-0.4,0.1c-0.2,0.2-0.5,0.3-0.8,0.2
		c-0.3,0-0.4-0.2-0.2-0.4c0.2-0.2,0.4-0.5,0.6-0.7c0,0,0.1-0.1,0.2-0.1c0.3,0,0.6,0.3,0.8-0.1c0.4,0.2,0.7-0.1,1.1-0.1
		c0.1,0,0.2,0,0.2,0c0.1-0.2,0.2-0.2,0.4-0.1c0.1,0.1,0.2,0,0.3,0c0.7-0.5,1.4-0.6,2.2-0.5c0.3,0,0.7,0,1,0c0.2,0,0.4-0.1,0.4,0.1
		c0,0.2-0.2,0.2-0.4,0.3c-0.2,0.1-0.4,0.1-0.5,0.1c-0.7-0.1-1.3,0.2-1.9,0.5c-0.6,0.3-1.2,0.5-1.8,0.5C51.6,44.2,51.1,44.3,51,45z"
		/>
	<path d="M40.9,29c-0.4,0.2-0.6,0.5-0.9,0.5c-0.2,0-0.4,0-0.4-0.2c-0.1-0.2,0.1-0.3,0.3-0.3C40.2,28.9,40.5,29,40.9,29z"/>
	<path d="M21.4,48.2c0-0.6,0-1.3,0-1.9c0-0.2,0-0.4,0.3-0.4c0.3,0,0.3,0.2,0.3,0.4c0,1.3,0,2.6,0,3.9c0,0.2,0,0.4-0.3,0.4
		c-0.3,0-0.3-0.2-0.3-0.4C21.4,49.5,21.4,48.9,21.4,48.2z"/>
	<path d="M7.7,46.9c0.1,0.9,0.1,1.7,0.2,2.5c0,0.1,0,0.3-0.2,0.3c-0.2,0-0.2-0.2-0.2-0.3C7.6,48.5,7.7,47.8,7.7,46.9z"/>
	<path d="M37.1,3.3c0-1,0-1,1-1c0.2,0,0.5,0,0.7,0.1c0.5,0.1,0.7,0.4,0.7,0.9c0,0.5-0.2,0.8-0.6,1c-0.5,0.2-1.1,0.1-1.7,0.1
		c-0.2,0-0.2-0.1-0.2-0.3C37.1,3.9,37.1,3.6,37.1,3.3z"/>
</g>
<g>
	<path class="st0" d="M4.4,6.4c0-0.1,0.1-0.2,0.2-0.2h0h3.2c0.1,0,0.2,0.1,0.2,0.2c0,0.1-0.1,0.2-0.2,0.2h-3v2.3h2.7
		c0.1,0,0.2,0.1,0.2,0.2c0,0.1-0.1,0.2-0.2,0.2H4.8v2.3h3c0.1,0,0.2,0.1,0.2,0.2C8.1,11.9,8,12,7.9,12H4.6h0h0
		c-0.1,0-0.2-0.1-0.2-0.2V6.4z"/>
	<path class="st0" d="M10,12L10,12c-0.1,0-0.2-0.1-0.2-0.2V6.4c0-0.1,0.1-0.2,0.2-0.2c0.1,0,0.2,0.1,0.2,0.2v5.2h3
		c0.1,0,0.2,0.1,0.2,0.2c0,0.1-0.1,0.2-0.2,0.2H10z"/>
	<path class="st0" d="M15.9,11.9C15.9,11.9,15.9,11.9,15.9,11.9L15.9,11.9l-2.5-5.3c0-0.1,0-0.2,0.1-0.3c0.1,0,0.2,0,0.3,0.1
		l2.3,4.9l2.3-4.9c0-0.1,0.2-0.1,0.3-0.1c0.1,0,0.2,0.2,0.1,0.3l-2.5,5.3c0,0.1-0.1,0.1-0.1,0.2h0c0,0-0.1,0-0.1,0c0,0-0.1,0-0.1,0
		c0,0,0,0,0,0C16,12,15.9,12,15.9,11.9z"/>
	<path class="st0" d="M20.2,6.4c0-0.1,0.1-0.2,0.2-0.2c0.1,0,0.2,0.1,0.2,0.2v5.4c0,0.1-0.1,0.2-0.2,0.2c-0.1,0-0.2-0.1-0.2-0.2V6.4
		z"/>
	<path class="st0" d="M22.6,10.9c0.1-0.1,0.2-0.1,0.3,0c0.5,0.3,1.3,0.8,2.1,0.7c0.6,0,1-0.1,1.4-0.4c0.4-0.2,0.5-0.5,0.5-0.9
		c0-0.3-0.2-0.6-0.5-0.8c-0.3-0.2-0.9-0.4-1.5-0.5h0c-0.6-0.1-1.1-0.2-1.5-0.5c-0.4-0.2-0.7-0.6-0.7-1c0-0.4,0.3-0.8,0.7-1.1
		s0.9-0.4,1.5-0.4c0.8,0,1.5,0.4,2,0.7C27,6.9,27,7,27,7.1c-0.1,0.1-0.2,0.1-0.3,0c-0.5-0.3-1-0.6-1.7-0.6c-0.5,0-1,0.1-1.3,0.3
		c-0.3,0.2-0.5,0.5-0.5,0.8c0,0.3,0.2,0.5,0.5,0.7C24,8.6,24.4,8.7,25,8.8h0c0.6,0.1,1.2,0.3,1.6,0.5c0.4,0.2,0.7,0.6,0.7,1.1
		s-0.3,0.9-0.7,1.2c-0.4,0.3-1,0.5-1.6,0.5c-1,0-1.8-0.5-2.3-0.8C22.6,11.1,22.6,11,22.6,10.9z"/>
	<path class="st0" d="M31.7,6.4c0-0.1,0.1-0.2,0.2-0.2h0h1.8c1,0,1.8,0.7,1.8,1.7s-0.8,1.6-1.8,1.6l-1.6,0v2.3
		c0,0.1-0.1,0.2-0.2,0.2c-0.1,0-0.2-0.1-0.2-0.2V6.4z M33.7,9.1c0.8,0,1.4-0.6,1.4-1.3s-0.6-1.2-1.4-1.2h-1.6v2.5H33.7z"/>
	<path class="st0" d="M40.1,10.7c0-0.4-0.2-0.7-0.5-0.9c-0.3-0.2-0.6-0.3-0.7-0.3c0,0,0,0,0,0h-1.5v2.3c0,0.1-0.1,0.2-0.2,0.2
		c-0.1,0-0.2-0.1-0.2-0.2V6.4c0-0.1,0.1-0.2,0.2-0.2h0h0h1.8c1,0,1.8,0.7,1.8,1.7c0,0.7-0.4,1.2-1,1.5c0,0,0.1,0,0.1,0
		c0.4,0.2,0.9,0.6,0.9,1.3c0,0.3,0,0.5,0.1,0.7c0,0.1,0.1,0.1,0.1,0.1c0.1,0,0.2,0,0.2,0.1c0,0.1,0,0.2-0.1,0.3c0,0-0.1,0-0.1,0h0
		c-0.1,0-0.3-0.1-0.4-0.3C40.2,11.5,40.1,11.2,40.1,10.7z M38.8,6.6h-1.6v2.5h1.5h0.1c0.7,0,1.3-0.6,1.3-1.2
		C40.2,7.2,39.6,6.6,38.8,6.6z"/>
	<path class="st0" d="M42.6,6.4c0-0.1,0.1-0.2,0.2-0.2h0h3.2c0.1,0,0.2,0.1,0.2,0.2c0,0.1-0.1,0.2-0.2,0.2h-3v2.3h2.7
		c0.1,0,0.2,0.1,0.2,0.2c0,0.1-0.1,0.2-0.2,0.2h-2.7v2.3h3c0.1,0,0.2,0.1,0.2,0.2c0,0.1-0.1,0.2-0.2,0.2h-3.2h0h0
		c-0.1,0-0.2-0.1-0.2-0.2V6.4z"/>
	<path class="st0" d="M47.7,10.9c0.1-0.1,0.2-0.1,0.3,0c0.5,0.3,1.3,0.8,2.1,0.7c0.6,0,1-0.1,1.4-0.4c0.4-0.2,0.5-0.5,0.5-0.9
		c0-0.3-0.2-0.6-0.5-0.8c-0.3-0.2-0.9-0.4-1.5-0.5h0c-0.6-0.1-1.1-0.2-1.5-0.5c-0.4-0.2-0.7-0.6-0.7-1c0-0.4,0.3-0.8,0.7-1.1
		s0.9-0.4,1.5-0.4c0.8,0,1.5,0.4,2,0.7C52.1,6.9,52.1,7,52,7.1c-0.1,0.1-0.2,0.1-0.3,0c-0.5-0.3-1-0.6-1.7-0.6c-0.5,0-1,0.1-1.3,0.3
		c-0.3,0.2-0.5,0.5-0.5,0.8c0,0.3,0.2,0.5,0.5,0.7c0.3,0.2,0.8,0.3,1.4,0.4h0c0.6,0.1,1.2,0.3,1.6,0.5c0.4,0.2,0.7,0.6,0.7,1.1
		s-0.3,0.9-0.7,1.2c-0.4,0.3-1,0.5-1.6,0.5c-1,0-1.8-0.5-2.3-0.8C47.6,11.1,47.6,11,47.7,10.9z"/>
	<path class="st0" d="M54.2,12L54.2,12c-0.1,0-0.2-0.1-0.2-0.2V6.4c0-0.1,0.1-0.2,0.2-0.2c0.1,0,0.2,0.1,0.2,0.2v5.2h3
		c0.1,0,0.2,0.1,0.2,0.2c0,0.1-0.1,0.2-0.2,0.2H54.2z"/>
	<path class="st0" d="M59.1,6.4c0-0.1,0.1-0.2,0.2-0.2h0h3.2c0.1,0,0.2,0.1,0.2,0.2c0,0.1-0.1,0.2-0.2,0.2h-3v2.3h2.7
		c0.1,0,0.2,0.1,0.2,0.2c0,0.1-0.1,0.2-0.2,0.2h-2.7v2.3h3c0.1,0,0.2,0.1,0.2,0.2c0,0.1-0.1,0.2-0.2,0.2h-3.2h0h0
		c-0.1,0-0.2-0.1-0.2-0.2V6.4z"/>
	<path class="st0" d="M66.2,9.2l-2.1-2.6c-0.1-0.1,0-0.2,0-0.3c0.1-0.1,0.2-0.1,0.3,0l2,2.5l2-2.5c0.1-0.1,0.2-0.1,0.3,0
		c0.1,0.1,0.1,0.2,0,0.3l-2.1,2.6v2.6c0,0.1-0.1,0.2-0.2,0.2c-0.1,0-0.2-0.1-0.2-0.2V9.2z"/>
</g>
<g>
	<path class="st0" d="M1.7,53.2c0.1,0,0.1,0,0.2,0c0.1,0,0.2,0,0.2,0c0.2,0,0.4-0.1,0.5-0.2C2.9,52.9,3,52.7,3,52.4V46h1.3v6.3
		c0,0.4-0.1,0.8-0.2,1C4,53.6,3.9,53.8,3.7,54c-0.2,0.2-0.4,0.3-0.6,0.3s-0.5,0.1-0.7,0.1c-0.1,0-0.2,0-0.3,0c-0.1,0-0.2,0-0.3,0
		V53.2z"/>
	<path class="st0" d="M9.4,54.4H8.1l-0.2-1.5H6.3L6,54.4H4.8L6.2,46h1.9L9.4,54.4z M6.4,51.7h1.3l-0.6-4.2L6.4,51.7z"/>
	<path class="st0" d="M10.1,46h1.3v8.4h-1.3V46z"/>
	<path class="st0" d="M12.3,46h1.3v7.2h2.2v1.2h-3.5V46z"/>
	<path class="st0" d="M17.8,54.4h-1.3V46h1.3v3.6h1.5V46h1.3v8.4h-1.3v-3.6h-1.5V54.4z"/>
	<path class="st0" d="M21.4,48c0-0.7,0.2-1.2,0.5-1.6c0.3-0.4,0.8-0.5,1.5-0.5s1.1,0.2,1.5,0.5c0.3,0.4,0.5,0.9,0.5,1.6v4.4
		c0,0.7-0.2,1.2-0.5,1.6c-0.3,0.4-0.8,0.5-1.5,0.5s-1.1-0.2-1.5-0.5c-0.3-0.4-0.5-0.9-0.5-1.6V48z M22.8,52.4c0,0.3,0.1,0.5,0.2,0.6
		c0.1,0.1,0.3,0.2,0.5,0.2s0.4-0.1,0.5-0.2c0.1-0.1,0.2-0.3,0.2-0.6v-4.5c0-0.3-0.1-0.5-0.2-0.6s-0.3-0.2-0.5-0.2s-0.4,0.1-0.5,0.2
		s-0.2,0.3-0.2,0.6V52.4z"/>
	<path class="st0" d="M27.6,46v6.5c0,0.3,0.1,0.5,0.2,0.6c0.1,0.1,0.3,0.2,0.5,0.2s0.4-0.1,0.5-0.2c0.1-0.1,0.2-0.3,0.2-0.6V46h1.2
		v6.4c0,0.7-0.2,1.2-0.5,1.6c-0.3,0.4-0.8,0.5-1.5,0.5s-1.1-0.2-1.5-0.5c-0.3-0.4-0.5-0.9-0.5-1.6V46H27.6z"/>
	<path class="st0" d="M30.9,48c0-0.7,0.2-1.2,0.5-1.6c0.3-0.4,0.8-0.5,1.5-0.5s1.1,0.2,1.5,0.5c0.3,0.4,0.5,0.9,0.5,1.6v0.3h-1.2
		v-0.4c0-0.3-0.1-0.5-0.2-0.6c-0.1-0.1-0.3-0.2-0.5-0.2s-0.4,0.1-0.5,0.2c-0.1,0.1-0.2,0.3-0.2,0.6c0,0.3,0.1,0.5,0.2,0.8
		c0.1,0.2,0.3,0.4,0.5,0.6c0.2,0.2,0.4,0.4,0.6,0.6c0.2,0.2,0.4,0.4,0.6,0.6s0.4,0.5,0.5,0.8s0.2,0.6,0.2,1c0,0.7-0.2,1.2-0.5,1.6
		c-0.3,0.4-0.8,0.5-1.5,0.5s-1.1-0.2-1.5-0.5c-0.3-0.4-0.5-0.9-0.5-1.6v-0.6h1.2v0.7c0,0.3,0.1,0.5,0.2,0.6c0.1,0.1,0.3,0.2,0.5,0.2
		s0.4-0.1,0.5-0.2c0.1-0.1,0.2-0.3,0.2-0.6c0-0.3-0.1-0.5-0.2-0.8c-0.1-0.2-0.3-0.4-0.5-0.6c-0.2-0.2-0.4-0.4-0.6-0.6
		c-0.2-0.2-0.4-0.4-0.6-0.6c-0.2-0.2-0.4-0.5-0.5-0.8C31,48.7,30.9,48.4,30.9,48z"/>
	<path class="st0" d="M36.9,49.5h1.8v1.2h-1.8v2.5h2.3v1.2h-3.6V46h3.6v1.2h-2.3V49.5z"/>
	<path class="st0" d="M4.9,68.8c0-0.1,0-0.1,0-0.2c0,0,0-0.1,0-0.2c0-0.1,0-0.2,0-0.3c0-0.1,0-0.3,0-0.4v-1.3c0-0.4-0.1-0.7-0.2-0.8
		c-0.1-0.2-0.4-0.2-0.7-0.2H3.4v3.4H2.1v-8.4h2c0.7,0,1.2,0.2,1.5,0.5s0.5,0.8,0.5,1.5v0.7c0,0.9-0.3,1.4-0.9,1.7
		c0.3,0.1,0.6,0.4,0.7,0.7C6,65.6,6.1,66,6.1,66.4v1.3c0,0.2,0,0.4,0,0.5c0,0.2,0.1,0.3,0.1,0.5H4.9z M3.4,61.6v2.6h0.5
		c0.2,0,0.4-0.1,0.6-0.2c0.1-0.1,0.2-0.4,0.2-0.7v-0.8c0-0.3-0.1-0.5-0.2-0.7c-0.1-0.1-0.3-0.2-0.5-0.2H3.4z"/>
	<path class="st0" d="M6.8,62.4c0-0.7,0.2-1.2,0.5-1.6c0.3-0.4,0.8-0.5,1.5-0.5s1.1,0.2,1.5,0.5c0.3,0.4,0.5,0.9,0.5,1.6v4.4
		c0,0.7-0.2,1.2-0.5,1.6c-0.3,0.4-0.8,0.5-1.5,0.5s-1.1-0.2-1.5-0.5c-0.3-0.4-0.5-0.9-0.5-1.6V62.4z M8.1,66.8
		c0,0.3,0.1,0.5,0.2,0.6s0.3,0.2,0.5,0.2s0.4-0.1,0.5-0.2s0.2-0.3,0.2-0.6v-4.5c0-0.3-0.1-0.5-0.2-0.6c-0.1-0.1-0.3-0.2-0.5-0.2
		s-0.4,0.1-0.5,0.2c-0.1,0.1-0.2,0.3-0.2,0.6V66.8z"/>
	<path class="st0" d="M15.5,65.6v1.1c0,0.7-0.2,1.2-0.5,1.6s-0.8,0.5-1.5,0.5s-1.1-0.2-1.5-0.5c-0.3-0.4-0.5-0.9-0.5-1.6v-4.4
		c0-0.7,0.2-1.2,0.5-1.6c0.3-0.4,0.8-0.5,1.5-0.5s1.1,0.2,1.5,0.5s0.5,0.9,0.5,1.6v0.8h-1.2v-0.9c0-0.3-0.1-0.5-0.2-0.6
		c-0.1-0.1-0.3-0.2-0.5-0.2s-0.4,0.1-0.5,0.2c-0.1,0.1-0.2,0.3-0.2,0.6v4.5c0,0.3,0.1,0.5,0.2,0.6s0.3,0.2,0.5,0.2s0.4-0.1,0.5-0.2
		s0.2-0.3,0.2-0.6v-1.2H15.5z"/>
	<path class="st0" d="M18,65.4l-0.4,0.8v2.6h-1.3v-8.4h1.3V64l1.8-3.7h1.3l-1.8,3.7l1.8,4.7h-1.4L18,65.4z"/>
</g>
</svg>
