<?xml version="1.0" encoding="utf-8"?>
<!-- Generator: Adobe Illustrator 24.0.3, SVG Export Plug-In . SVG Version: 6.00 Build 0)  -->
<svg version="1.1" id="LOU" xmlns="http://www.w3.org/2000/svg" xmlns:xlink="http://www.w3.org/1999/xlink" x="0px" y="0px"
	 viewBox="0 0 72 72" style="enable-background:new 0 0 72 72;" xml:space="preserve">
<style type="text/css">
	.st0{fill:#FFFFFF;}
</style>
<g id="Bckgrd">
	<rect width="72" height="72"/>
</g>
<g id="LouHead">
	<path class="st0" d="M0,59.5c0-4.3,0-8.6,0-12.9c0.1-0.1,0.2-0.1,0.2-0.2c0.3-0.3,0.8-0.6,0.2-1.1c0,0,0-0.2,0-0.2
		c0.1-0.4-0.1-0.4-0.4-0.3c0-2.5,0-5.1,0-7.6c0.4-0.7,0.8-1.4,1.3-2c0.4-0.5,0.4-1.2,1.1-1.4c0.1,0,0.1-0.2,0.1-0.3
		c0.1-0.3,0.2-0.5,0.4-0.9C3,32.7,3,32.8,3,32.9c0.2-1.3,1-2.2,1.7-3.1c0.1,0,0.1,0.1,0.2,0.1c-0.1,0.1-0.1,0.3-0.2,0.3
		c-0.4,0.2-0.3,0.5-0.3,0.9c0,0.9,0.6,1.6,0.8,2.4c0,0.1,0.2,0.2,0.3,0.4c0.5-0.9,0.3-1.9,0.6-2.8c0.2,0.1,0.3,0.2,0.6,0.3
		c0-0.2,0.1-0.4,0.1-0.6c-0.1-0.7-0.2-1.4-0.3-2.1c-0.1-0.4-0.1-1-0.9-1.1c0.8-0.4,0.7-1,0.5-1.6c0,0,0-0.1,0-0.1
		c0.5-0.9,0-1.9-0.2-2.7c-0.2-0.9-0.7-1.6-1.1-2.5c-0.4-0.9-0.9-1.8-1.3-2.7c-0.2-0.4,0-0.7,0.1-1.1c0.2-0.8,0.7-1.4,1.1-2.1
		c0.1-0.2,0.3-0.4,0.5-0.5c0.5-0.3,1.1-0.5,1.7-0.8c0.3-0.2,0.5-0.4,0.7-0.6c1-1.1,2.2-2,3.6-2.6C12.2,9.9,13,9.4,13.9,9
		c0.2-0.1,0.5-0.2,0.7-0.2c0.6-0.1,0.8,0,1.1,0.6c0.2,0.6,0.2,0.6,0.9,0.4C17,9.8,17.5,9.7,18,9.7c0.9,0,1.1,0.5,0.8,1.5
		c-0.3,0.9-1.1,1.3-2,1.2c-0.7-0.1-1.3,0.2-1.7,0.7c-0.4,0.4-0.8,0.7-1.5,0.7c-0.1,0-0.2,0-0.2,0.1c-0.1,0.1-0.3,0.3-0.4,0.4
		c0.1,0.1,0.3,0.2,0.5,0.3c0,0.3-0.1,0.7-0.1,1.1c0.2-0.2,0.4-0.4,0.6-0.6c0.4-0.5,0.8-0.8,1.5-0.8c1,0,1.9-0.4,2.9-0.1
		c0.8,0.3,1.6,0.6,2.4,0.9c0.5,0.3,0.5,1-0.1,1.3c-0.6,0.3-1.2,0.6-1.9,0.3c-0.5-0.2-1-0.3-1.6,0c-0.4,0.2-0.9,0.2-1.3,0.3
		c0.3,1-0.5,2-1.6,1.8c0.5,0.5,0.3,0.8,0,1.3c-0.2,0.4-0.3,0.8-0.4,1.2c-0.2,0-0.3,0.1-0.5,0.1c0,0,0,0.1,0,0.1
		c0.2,0,0.4,0.2,0.6,0.1c0.6,0,1,0.1,1.4,0.5c0.2,0.2,0.6,0.5,0.8,0.5c0.4,0,0.4-0.5,0.5-0.8c0.2-0.9,0.5-1.7,1.3-2.4
		c0.3-0.3,0.5-0.8,0.7-1.2c0.7-1.2,1.9-1.4,3.1-1.2c0.5,0.1,0.6,0.3,0.3,0.8c-0.6,0.9-1.2,1.9-1.7,2.8c-0.1,0.3-0.1,0.6-0.2,0.9
		c0.3,0,0.6,0,0.9-0.1c1-0.4,1.9-0.7,2.8-0.4c-0.3,0.1-0.5,0.1-0.6,0.2c-0.9,0.1-1.7,0.3-2.5,0.8c-0.3,0.2-0.6,0.3-0.9-0.2
		c-0.3,1.4-1,2.5-1,3.9c0,0.4-0.1,0.8-0.5,1.2c-0.2,0.2-0.2,0.5-0.4,0.9c0.5-0.1,0.8-0.2,1.1-0.3c0.4-0.1,0.4,0.1,0.4,0.4
		c-0.5,0.2-1.1,0.3-1.5,0.7c-0.3,0.2-0.6,0.7-0.7,1.1c-0.1,0.6,0.1,1.2,0.2,1.8c0,0.1,0.2,0.2,0.3,0.3c0.1-0.1,0.2-0.2,0.2-0.4
		c0-0.2-0.1-0.3-0.1-0.5c-0.1-0.6,0.1-1.2,0.3-1.8c0-0.1,0.3-0.2,0.4-0.3c0.1,0.1,0.2,0.2,0.2,0.3c0,0.4,0,0.8-0.1,1.1
		c-0.1,0.3,0,0.5,0.3,0.7c0.1-0.3,0.2-0.5,0.2-0.7c0.1-0.4,0.1-0.9,0.1-1.4c0-0.1,0.1-0.2,0.2-0.3c0.1,0.1,0.2,0.2,0.2,0.3
		c0.1,0.6,0.2,1.2,0.1,1.8c-0.1,2.7-0.3,5.3-0.5,8c0,0.5-0.1,1.1-0.2,1.6c0,0.3-0.2,0.5-0.3,0.8c0,0.1-0.1,0.3-0.1,0.4
		c0.1,0.6-0.1,1.1-0.4,1.6c-0.1,0.1-0.1,0.3-0.2,0.5c-0.1,0.3-0.2,0.6-0.7,0.3c0-0.2,0-0.3,0.1-0.5c0,0-0.1,0-0.1-0.1
		c-0.1,0.1-0.2,0.2-0.4,0.4c-0.5-0.3-1-0.6-1.5-1c-0.4-0.3-0.6-0.1-0.9,0.2c0.4,0.6,0,1.1-0.3,1.6c-0.4,0.9-0.9,1.8-1.5,2.6
		c-0.9,1.3-1.9,2.6-2.9,3.9c-0.1,0.1-0.2,0.2-0.2,0.4c-0.1,0.5-0.4,0.7-0.9,0.7c-0.1,0-0.2,0.1-0.3,0.2c0.1,0,0.2,0,0.4,0.1
		c-0.1,0.5-0.4,0.8-0.8,1c-0.2,0.1-0.4,0.3-0.4,0.4 M13.7,33c-0.1,0.1-0.3,0.2-0.4,0.3c-0.4,0.4-0.8,1-1.3,1.3
		c-0.6,0.3-1,0.7-1.3,1.2c-0.2,0.4-0.5,0.6-1,0.6c-0.1,0-0.3,0.1-0.5,0.1c0.2,0.1,0.3,0.1,0.3,0.1c1.1,0,2.3,0,3.4-0.1
		c0.1,0,0.3-0.1,0.3-0.2c0.1-0.7,0.3-1.5,0.3-2.2C13.4,33.7,13.4,33.3,13.7,33c0.4-0.8,1.3-1.1,1.9-1.6c0.2,0.2,0.4,0.4,0.1,0.7
		c-0.2,0.2-0.5,0.3-0.7,0.5c-0.3,0.3-0.6,0.5-0.9,0.8c-0.1,0.1,0,0.3-0.1,0.4c0.1,0,0.3,0,0.4-0.1c0.3-0.2,0.6-0.4,0.9-0.7
		c0.2-0.2,0.3-0.4,0.6-0.3c0.3,0.1,0.3,0.3,0.3,0.6c0,0.1,0.1,0.2,0.2,0.3c0,0,0.2,0,0.2,0c0-0.1,0-0.2,0-0.4c0-0.2-0.1-0.3-0.1-0.5
		c0-0.7-0.2-1.4-0.6-2.1c-0.8,0.7-1.6,1.3-2.4,1.9C13.6,32.7,13.6,32.9,13.7,33z M18.1,32.4C18,32.2,18,32,17.9,32
		c-0.5-0.1-0.6-0.4-0.6-0.8c0-0.1-0.1-0.3-0.2-0.4c-0.1-0.4-0.2-0.7-0.3-1.1c-0.1,0.1-0.2,0.3-0.3,0.4c0.2,0.7,0.5,1.4,0.7,2
		c0.1,0.3,0.1,0.6,0.5,0.3C17.7,32.3,17.9,32.4,18.1,32.4z M13.1,38.7c0.1,0,0.1,0.1,0.2,0.1c0.1-0.1,0.2-0.2,0.2-0.4
		c0.2-0.5,0.6-0.6,1-0.6c0.2,0,0.4-0.2,0.6-0.3C14.1,37.2,12.9,37.9,13.1,38.7z M4,51.6c0,0-0.1-0.1-0.1-0.1
		c-0.1,0.1-0.2,0.1-0.3,0.2c-0.2,0.3-0.4,0.6-0.6,1C3,52.8,3,52.9,2.9,53.1C3.1,53,3.3,53,3.4,52.9c0.1-0.1,0.1-0.2,0.1-0.3
		c0.1-0.2,0.2-0.4,0.3-0.6C3.9,51.8,4,51.7,4,51.6z M16.2,33.7c-0.2,0-0.4-0.1-0.5-0.1c-0.3,0.2-0.6,0.5-0.9,0.7
		c-0.1,0.1-0.1,0.2,0,0.3c0,0.1,0.2,0.1,0.3,0.1c0.3-0.2,0.6-0.5,0.9-0.7C16.1,34,16.1,33.9,16.2,33.7z M6.6,17.3
		c0.2-0.4,0.5-0.8,0.7-1.3c-0.4-0.1-0.6,0-0.7,0.3c0,0.1-0.1,0.3-0.2,0.3C5.9,17,6.3,17.1,6.6,17.3z M8.5,50.8
		c-0.3,0.1-0.6,0.1-0.7,0.2c-0.2,0.3-0.2,0.6-0.2,0.9c0.1,0,0.1,0,0.2,0.1C8,51.6,8.2,51.3,8.5,50.8z M7.6,49.4
		c0.2-0.2,0.7-0.3,0.1-0.6c-0.1-0.1-0.1-0.2-0.1-0.3c-0.1-0.1-0.2-0.1-0.3-0.2c0,0.1-0.1,0.3-0.1,0.4C7.3,48.9,7.5,49.1,7.6,49.4z
		 M15.6,38.2c-0.6-0.3-0.9,0.2-1.3,0.3C14.6,38.8,15.4,38.6,15.6,38.2z M13.2,42.1c0.3-0.5,0.5-0.9,0.8-1.3
		C13.4,40.8,13.1,41.3,13.2,42.1z M7.9,50.3c-0.4,0-0.7-0.1-1.1-0.1c0,0.1,0,0.3,0.1,0.3c0.3,0.1,0.6,0.1,0.9,0.1
		C7.9,50.6,7.9,50.4,7.9,50.3z M5.7,50.5c0.5-0.1,0.7-0.5,0.4-1C6,49.8,5.8,50.2,5.7,50.5z M12.3,40.5c0.1,0.4,0.1,0.6,0.2,0.9
		c0.1-0.2,0.3-0.4,0.5-0.7C12.7,40.6,12.6,40.6,12.3,40.5z M5.6,50.2C5.4,50.1,5.3,50,5.3,50c-0.1,0.1-0.3,0.2-0.4,0.4
		c0,0,0.2,0.2,0.2,0.2C5.3,50.5,5.4,50.4,5.6,50.2z M18.9,31.5c0,0,0.1,0,0.1,0c0-0.1,0.1-0.2,0.1-0.4c0-0.1-0.1-0.2-0.2-0.3
		c-0.1,0.1-0.2,0.2-0.2,0.3C18.7,31.3,18.8,31.4,18.9,31.5z M13.9,42.2c-0.1,0-0.1,0-0.2-0.1c-0.1,0.4-0.3,0.8-0.4,1.1
		c0,0,0.1,0,0.1,0.1C13.6,43,13.7,42.6,13.9,42.2z M2.6,35.2c0-0.4-0.1-0.6-0.1-0.9c-0.1,0-0.1,0-0.2,0C2.2,34.6,2.1,34.9,2.6,35.2z
		 M7.7,52.9c0.2-0.2,0.4-0.4,0.6-0.6c0,0-0.1-0.1-0.1-0.1C7.8,52.2,7.6,52.3,7.7,52.9z M3.6,34.2c-0.4,0.4-0.4,0.6-0.1,0.8
		c0.1,0,0.1,0,0.2,0C3.7,34.8,3.6,34.6,3.6,34.2z M2.4,53.8c0,0.1,0.1,0.1,0.1,0.2c0.3,0,0.5-0.2,0.5-0.6
		C2.8,53.5,2.6,53.6,2.4,53.8z M1.2,54.7c0-0.1,0-0.2-0.1-0.3c-0.2,0.1-0.4,0.1-0.5,0.2c0,0,0,0.2,0,0.2C0.9,54.7,1,54.7,1.2,54.7z
		 M3.7,51c-0.2-0.1-0.3-0.3-0.3-0.2c-0.1,0-0.2,0.2-0.3,0.3c0.1,0.1,0.2,0.2,0.3,0.2C3.4,51.3,3.5,51.2,3.7,51z M1.8,53.8
		c0-0.1-0.1-0.1-0.1-0.2c-0.2,0.1-0.3,0.1-0.5,0.2c0,0.1,0.1,0.2,0.1,0.3C1.4,53.9,1.6,53.9,1.8,53.8z M8.9,48.2
		C8.8,48.1,8.6,48,8.6,48c-0.1,0.1-0.3,0.3-0.4,0.4c0.1,0,0.2,0.2,0.2,0.1C8.6,48.4,8.7,48.3,8.9,48.2z M3.1,34c0.1,0,0.2,0,0.2,0
		c0-0.2,0-0.5-0.1-0.7c-0.1,0-0.1,0-0.2,0C3.1,33.5,3.1,33.7,3.1,34z M2.4,50.7c0-0.1-0.1-0.2-0.1-0.2c-0.2,0.1-0.4,0.2-0.5,0.3
		c0,0.1,0.1,0.1,0.1,0.2C2,50.9,2.2,50.8,2.4,50.7z M0.7,52.3c-0.1,0.2-0.2,0.2-0.3,0.3c0.1,0.1,0.2,0.2,0.3,0.2
		c0.1,0,0.2-0.1,0.2-0.2C0.9,52.5,0.8,52.4,0.7,52.3z M9.7,45.8c-0.1-0.1-0.3-0.2-0.3-0.2c-0.1,0.1-0.2,0.2-0.3,0.3
		c0,0,0.1,0.2,0.2,0.2C9.4,46.1,9.5,46,9.7,45.8z M1.3,47c0.1,0,0.2,0,0.3,0c0-0.1,0.1-0.3,0.1-0.4c0-0.1-0.2-0.1-0.3-0.1
		C1.3,46.6,1.3,46.8,1.3,47z M2.6,36.1c0.1,0,0.2,0,0.3,0c0-0.2-0.1-0.5-0.1-0.7c-0.1,0-0.2,0-0.2,0C2.6,35.6,2.6,35.8,2.6,36.1z
		 M16.1,35.4c-0.1-0.1-0.3-0.2-0.3-0.2c-0.1,0.1-0.2,0.2-0.3,0.3c0,0,0.2,0.2,0.2,0.2C15.9,35.6,16,35.5,16.1,35.4z M6.7,49.1
		c-0.1,0-0.1,0.1-0.2,0.1c0.1,0.2,0.1,0.4,0.2,0.6c0.1,0,0.2-0.1,0.2-0.1C6.9,49.5,6.8,49.3,6.7,49.1z M2.9,52.2
		c0-0.1-0.1-0.1-0.1-0.2C2.7,52,2.5,52,2.4,52.1c0,0,0,0.2,0.1,0.3C2.6,52.3,2.8,52.2,2.9,52.2z M0.4,39.9c0.1,0,0.1,0,0.2,0
		c0.3-0.2,0.2-0.4,0-0.7c-0.1,0-0.1,0-0.2,0C0.4,39.4,0.4,39.6,0.4,39.9z M1.3,38.9c0.1,0,0.1,0,0.2,0c0-0.2,0-0.4,0-0.7
		C1.1,38.5,1.2,38.7,1.3,38.9z M11.1,43.9c-0.1-0.1-0.3-0.2-0.3-0.2c-0.1,0.1-0.2,0.2-0.3,0.4c0,0,0.2,0.2,0.2,0.2
		C10.8,44.1,10.9,44,11.1,43.9z M4.2,49.8c-0.1-0.1-0.1-0.1-0.2-0.2c-0.1,0.1-0.3,0.2-0.4,0.4c0,0,0.1,0.1,0.2,0.2
		C4,50,4.1,49.9,4.2,49.8z M15.7,40.6c0.1-0.1,0.2-0.2,0.2-0.3c0-0.1-0.2-0.2-0.2-0.3c-0.1,0.1-0.2,0.2-0.2,0.3
		C15.5,40.4,15.6,40.5,15.7,40.6z M0.6,43.1c0.1-0.2,0.2-0.3,0.2-0.3c0-0.1-0.1-0.2-0.2-0.3c-0.1,0.1-0.2,0.1-0.2,0.2
		C0.4,42.7,0.5,42.9,0.6,43.1z M2.1,36.3c-0.1,0-0.2,0-0.2,0c0,0.2,0,0.3,0,0.5c0,0,0.2,0,0.2,0C2.1,36.7,2.1,36.5,2.1,36.3z
		 M10.4,44.8c-0.1-0.1-0.3-0.2-0.3-0.2c-0.1,0.1-0.2,0.2-0.3,0.3c0,0,0.2,0.2,0.2,0.2C10.1,45.1,10.2,45,10.4,44.8z M1.6,51.5
		c-0.2,0-0.4,0.1-0.7,0.2C1.3,51.9,1.5,52,1.6,51.5z"/>
	<path d="M0,44.9c0.3-0.1,0.5-0.2,0.4,0.3c0,0.1,0,0.2,0,0.2c0.6,0.5,0.1,0.8-0.2,1.1c-0.1,0.1-0.1,0.1-0.2,0.2C0,46,0,45.4,0,44.9z
		"/>
	<path class="st0" d="M44.6,35.4c0,0.3-0.1,0.6-0.1,0.9c0,0.4,0.3,0.8-0.3,1.1c-0.1,0-0.1,0.4,0,0.5c0.3,0.6,0.4,0.8,0.2,1.5
		c-0.1-0.1-0.1-0.3-0.2-0.3C44.2,39,44,39,43.9,38.9c0,0.1-0.1,0.4,0,0.4c0.4,0.4,0.4,0.9,0.4,1.4c0,0.1,0,0.1-0.1,0.3
		c-0.1-0.2-0.2-0.3-0.3-0.4c-0.1-0.1-0.2-0.1-0.3-0.1c0,0.1-0.1,0.2,0,0.3c0,0.1,0.1,0.2,0.2,0.3c0.2,0.4,0,0.7-0.4,0.9
		c-0.1,0.1-0.2,0.3-0.2,0.4C43,42.7,43,43,42.9,43.3c-0.1,0-0.1,0-0.2,0c-0.1-0.3-0.2-0.5-0.4-0.9c0,0.5,0,0.9-0.1,1.2
		c-0.1,0.4-0.3,0.9-0.4,1.3c0,0.1,0,0.3,0,0.4c0,0,0.2,0.1,0.2,0c0.1-0.1,0.2-0.2,0.2-0.4c0-0.1,0-0.3,0-0.4c0-0.2,0.2-0.3,0.2-0.5
		c0.4,0.4,0.5,1.4,0.2,1.7c-0.2,0-0.5-0.1-0.6,0c-0.1,0.1,0,0.4,0,0.6c0,0.2-0.1,0.4-0.1,0.5c0,0.1-0.2,0.1-0.2,0.1
		c-0.1-0.2-0.2-0.3-0.2-0.5c0-0.5,0-1,0-1.5c0-0.1-0.1-0.2-0.1-0.3c-0.1,0.1-0.2,0.2-0.3,0.3c-0.1,0.7-0.2,1.3-0.3,1.9
		c0.1,0,0.3,0,0.3,0.1c0.2,0.3,0.1,0.5-0.1,0.8c-0.1-0.1-0.2-0.2-0.3-0.4c-0.1,0.1-0.1,0.1-0.1,0.2C40.7,48,40.5,48.2,40,48
		c-0.1,0-0.2,0-0.3,0.1c-0.1,0-0.2,0.1-0.3,0.1c-0.4-0.2-0.8-0.2-1.2-0.2c-0.1,0-0.1-0.2-0.2-0.4c-0.2,0.1-0.4,0.2-0.7,0.3
		c0-0.2,0-0.3,0-0.4c-0.1-0.3-0.3-0.4-0.5-0.1c-0.3,0.3-0.5,0.5-0.7,0c0-0.1-0.2-0.1-0.4-0.1c-0.2,0-0.5,0-0.7-0.1
		c0,0-0.1,0-0.1-0.1c-0.3-0.1-0.8,0.2-0.8-0.4c0-0.3,0.1-0.7,0.2-1c0.1-0.4-0.1-0.7-0.6-0.7c-0.8,0.1-1.8-0.7-1.8-1.5
		c0-0.1,0.1-0.1,0.1-0.2c0-0.1,0-0.3-0.1-0.4c-0.7-0.3-0.7-1-0.8-1.6c0-0.4-0.1-0.9-0.2-1.3c-0.1-0.3-0.2-0.6,0.2-0.6
		c0.2,0,0.4,0.3,0.6,0.5c0.1,0.1,0.1,0.3,0.1,0.5c0.1,0,0.2,0,0.2-0.1c0-0.2,0-0.4-0.1-0.5c-0.1-0.2-0.2-0.4-0.4-0.6
		c-0.4-0.5-0.6-1-0.4-1.7c0.2-0.6,0.1-0.9-0.5-1.2c0,0-0.1,0.1-0.1,0.1c0,0.6,0.1,1.1,0.1,1.7c0,0.2-0.1,0.3-0.1,0.5
		c-0.1-0.1-0.4-0.2-0.4-0.4C30.1,37.9,30,37.5,30,37c0-0.6,0.1-1.2,0.1-1.8c0-0.1,0-0.3-0.1-0.4c-0.4-0.3-0.3-0.7-0.1-1.1
		c0.1-0.2,0.1-0.5,0-0.6c-0.7-0.9-1.2-1.9-1.5-3c-0.1-0.4-0.2-0.7-0.3-1.1c0.1-0.1,0.2-0.1,0.2-0.2c0,0.1,0.1,0.2,0.1,0.3
		c0.5,0.9,0.9,1.7,1.4,2.6c0.5,0.8,1.1,1.6,1.6,2.4c0.4,0.7,0.9,1.3,1.3,2c0.1,0.1,0,0.4,0,0.6c0,0.4,0.1,0.8,0.2,1.2
		c0,0.1,0.2,0.2,0.4,0.3c0-0.2,0.1-0.3,0.1-0.6c0.3,0.3,0.6,0.5,0.7,0.9c0,0.2,0.1,0.4,0.1,0.6c0.2-0.1,0.3-0.2,0.5-0.4
		c0.1,0,0.2,0.1,0.3,0.2c0.3,0.4,0.6,0.2,0.9-0.1c0.3-0.3,0.5-0.7,0.8-1.1c0,0,0,0,0.1,0c0.1,0,0.3,0,0.4,0c0-0.1,0-0.2,0-0.4
		c0-0.3-0.1-0.5,0-0.8c0.1-0.4,0.3-0.4,0.6-0.1c0.1,0.1,0.3,0,0.4-0.1c0.3-0.6,0.4-0.6,1-0.2c0-0.2,0-0.4,0-0.5
		c-0.5-0.1-0.9-0.2-1.3-0.2c-0.2,0-0.5,0-0.7,0.2c-1,0.6-1.8,0.2-2.7-0.2c-0.2-0.1-0.3-0.6-0.4-0.9c0-0.1-0.1-0.3-0.2-0.3
		c-0.5-0.5-1-1-1.5-1.5c-0.1-0.1-0.3-0.2-0.4-0.4c-0.4-0.3-0.6-0.8-1.1-0.9c-0.1,0-0.1-0.2-0.1-0.3c0.2,0,0.3,0,0.5,0
		c-0.2-0.1-0.3-0.3-0.3-0.3c-0.4,0.1-0.5-0.2-0.6-0.4c-0.4-0.9-0.8-1.8-1.2-2.8c-0.2-0.6-0.3-1.3-0.5-2c-0.1-0.3-0.2-0.6-0.4-0.8
		c-0.9-0.9-1.3-2.1-1.5-3.3c-0.1-0.4-0.1-0.8-0.1-1.2c0-1.3,0-2.5,0-3.8c0.7-0.1,1.4-0.1,2.3-0.2c-0.1,0.4-0.2,0.5-0.6,0.6
		c-0.3,0-0.5,0.4-0.8,0.7c0,0-0.2-0.1-0.4-0.3c0.2,0.4,0.3,0.7,0.4,1c0.1,0.6,0.3,1.1,0.4,1.7c0,0.1,0.1,0.3,0.1,0.4
		c0,0.5,0,1,0.1,1.5c0,0.2,0.3,0.4,0.4,0.7c0.1,0.2,0.1,0.4,0.1,0.6c0.7-0.1,1.2-0.9,1-1.4c0.3-0.5,0.5-1,0.8-1.4
		c0.2-0.2,0.5-0.4,0.7-0.5c0.2-0.1,0.4-0.1,0.6-0.2c0,0,0-0.1,0-0.1c-0.1-0.1-0.3-0.1-0.4-0.2c-0.2-0.1-0.4-0.2-0.5-0.3
		c-0.4-0.4-0.4-0.6,0.2-0.8c0.1,0.1,0.1,0.3,0.2,0.4c0.4,0.6,1.2,0.6,1.6,0c0.3-0.4,0.5-0.3,0.8-0.1c0.2,0.1,0.4,0.3,0.6,0.4
		c0-0.1,0.1-0.1,0.1-0.2c-0.2-0.2-0.5-0.4-0.7-0.6c0,0,0,0,0.1-0.1c0.4,0.1,0.7,0.3,1.1,0.4c0.5,0.3,0.7,0.8,0.3,1.2
		c-0.3,0.4-0.4,0.8-0.1,1.2c0.1,0.1,0.1,0.3,0.1,0.4c-0.3,0.2-0.5,0.3-0.7,0.5c0,0,0.1,0.1,0.1,0.1c0.1-0.1,0.3-0.1,0.4-0.2
		c0,0,0,0,0.1,0.1c-0.1,0.1-0.2,0.2-0.2,0.3c-0.1,0.2-0.2,0.6-0.1,0.7c0.4,0.4,0.1,0.5-0.2,0.7c-0.7,0.3-0.8,0.9-0.9,1.6
		c-0.1,0.7,0.5,1,0.8,1.5c0,0,0,0,0,0c0.5,0.5,1,1,1.9,1c-0.6,0.4-1.4,0.1-1.7-0.5c-0.5,0.3-0.9,0.2-1.3-0.3
		c-0.2-0.2-0.3-0.2-0.5-0.1c-0.4,0.3-0.9,0.2-1.4,0.1c-0.1,0-0.1-0.3-0.2-0.4c-0.4,0.5-0.4,0.7,0.1,1.1c0.2,0.1,0.4,0.3,0.6,0.5
		c0.4,0.3,0.4,0.4,0.1,1.3c-0.1,0-0.3,0-0.4,0c-0.1,0.3-0.1,0.6-0.2,0.9c0.6,0,0.8,0.2,0.6,0.8c0,0.1,0.1,0.3,0.2,0.5
		c0.1-0.3,0.2-0.4,0.3-0.6c0.3,0.4,0.6,0.6,0.8,1c0.5,0.8,1.3,1.1,2.2,1.3c0.5,0.1,1.1,0,1.6,0c0,0,0-0.1,0-0.1c-0.2,0-0.3,0-0.5,0
		c-0.6,0-1.2-0.2-1.7-0.5c-0.3-0.3-0.5-0.8-0.7-1.2c0-0.1,0.1-0.3,0.2-0.5c0,0,0.2,0,0.2,0c0,0.1,0,0.3,0,0.4c0.4-0.4,0.8-0.5,1.2,0
		c0.3,0.3,0.6,0.2,0.9,0c0.3-0.1,0.6-0.3,0.9-0.3c0.8-0.2,1.5-0.2,2.3-0.4c0.3-0.1,0.6-0.3,0.8-0.5c0.3-0.1,0.6-0.2,0.9-0.4
		c0.2-0.1,0.5-0.3,0.7-0.5c0,0,0-0.1-0.1-0.1c-0.6,0-1.3-0.1-1.9-0.1c-0.5-0.1-1-0.2-1.6-0.2c-0.1,0-0.3,0-0.5,0.1
		c-0.1-0.4-1.3-0.3-0.5-1.3c-0.4,0-0.7-0.1-0.9-0.1c-0.3-0.1-0.6-0.2-0.8-0.4c-0.5-0.3-0.9-0.7-1.4-1C34,26,33.8,25.8,34,25.3
		c0.1-0.2,0.1-0.4,0.2-0.5c0.1-0.1,0.2-0.3,0.4-0.3c0.1,0,0.3,0.2,0.4,0.3c0.1,0.2,0.1,0.4,0.1,0.6c0,0.1,0.2,0.2,0.2,0.2
		c0.1,0,0.2-0.1,0.3-0.2c0.1-0.2,0.1-0.5,0.1-0.7c0.6-1.6,0.5-3.2,0.5-4.8c0-0.5-0.1-1-0.3-1.4c-0.3-0.3-0.8-0.5-1.2-0.7
		c-0.2-0.1-0.4-0.2-0.7-0.3c0.5-0.5,1.2-0.6,1.2-1.4c-0.2-0.1-0.4-0.2-0.7-0.3c0.3-0.1,0.6-0.2,0.9-0.3c1.2-0.3,2.3-0.6,3.5-0.9
		c0.2-0.1,0.5-0.3,0.6,0.2c0,0.1,0.3,0.1,0.4,0.1c0.3-0.1,0.6-0.2,0.9-0.2c0.1,0,0.3,0.1,0.5,0.2c-0.1,0.1-0.2,0.3-0.3,0.3
		c-0.4,0.2-0.7,0.5-1.1,0.7c0-0.1-0.1-0.3-0.2-0.5c0,0.4-0.2,0.8-0.1,1.1c0,0.2,0.4,0.4,0.6,0.4c0.9-0.1,1.7-0.1,2.5-0.4
		c0.9-0.3,1.8-0.3,2.8-0.5c0.1,0,0.1,0,0.2,0c0.3,0.2,0.7,0.4,0.9,0.5c0.5-0.3,0.9-0.6,1.4-1c0.1,0.4,0.1,0.6,0.1,0.8
		c-0.1,0.5-0.2,0.9-0.2,1.4c0,0.3,0,0.7,0,1c0,1.3-0.2,2.6-0.6,3.9c-0.3,1-0.6,2-0.9,3.1c-0.5,1.9-1.5,3.5-2.7,5
		c-0.7,0.8-1.3,1.6-1.9,2.4c-0.1,0.1-0.3,0.3-0.4,0.4c-0.3,0.3-0.6,0.5-0.1,1c0.3,0.2,0.3,0.7,0.4,1.1c0,0.1-0.2,0.3-0.3,0.4
		c-0.1-0.1-0.2-0.2-0.3-0.3c-0.2-0.4-0.3-0.8-0.5-1.2c-0.4,0.3-0.1,0.7,0,1.1c0.1,0.5,0.2,0.9,0.4,1.4c0.1,0.3,0.2,0.7,0.3,1
		c0,0.1,0.2,0.1,0.3,0.1c0.1-0.1,0.2-0.3,0.2-0.4c-0.1-0.4-0.2-0.7-0.3-1c-0.1-0.3-0.1-0.5,0.2-0.6c0.1,0.2,0.2,0.5,0.3,0.7
		c0.1,0,0.2,0,0.2,0c0-0.2,0.1-0.5,0-0.7c-0.1-0.3,0-0.5,0.3-0.7c0.2-0.1,0.3-0.3,0.4-0.5c0.1-0.2,0.1-0.3,0.2-0.7
		c0.4,0.4,0.6,0.7,0.9,1C44.2,35.3,44.4,35.3,44.6,35.4L44.6,35.4z M43.5,20c0,0,0.2,0,0.3,0c0.7,0.1,0.9-0.6,1.3-0.9
		c0,0-0.1-0.3-0.2-0.4c-0.1-0.2-0.3-0.4-0.2-0.5c0.3-0.4,0-0.5-0.2-0.6c-0.5-0.3-1-0.5-1.5-0.3c-1.2,0.3-2.4,0.7-3.6,1
		c0.2,0.6,0.4,0.7,0.8,0.4c0.5-0.3,0.8,0.2,1.3,0.1c0,0,0.1,0.1,0.1,0.1c0.6,0.9,1.3,0.9,1.8-0.1c0.1-0.3,0.3-0.3,0.5-0.1
		c0.1,0.1,0.3,0.4,0.3,0.5C43.9,19.4,43.6,19.7,43.5,20z M41.4,40.2c-0.1-0.5-0.2-0.8-0.3-1.2c-0.2-0.7-0.5-1.4-0.7-2.1
		c0-0.1-0.1-0.2-0.2-0.2c-0.1,0.1-0.2,0.2-0.2,0.3c0,0.1,0,0.2,0.1,0.3c0.1,0.4,0.3,0.7,0.5,1.1c0.2,0.6,0.4,1.2,0.6,1.7
		C41.1,40.2,41.2,40.2,41.4,40.2C41.4,40.3,41.4,40.2,41.4,40.2z M37.3,40.6c0,0,0-0.1,0-0.1c-0.4,0-0.6-0.1-0.5-0.5
		c0-0.1-0.1-0.2-0.2-0.3c-0.1,0.1-0.2,0.2-0.2,0.3c0.1,0.3,0.1,0.5,0,0.7c-0.1,0.4,0.1,0.8,0.1,1.2c0,0.1,0.1,0.2,0.1,0.2
		c0.1,0,0.2,0,0.3-0.1c0.1,0,0.1-0.2,0-0.3c0-0.1-0.1-0.2-0.1-0.2c0-0.3,0.1-0.6,0.1-0.8C37.1,40.7,37.2,40.6,37.3,40.6z M35.6,40.6
		c-0.1,0.2-0.2,0.4-0.2,0.5c0.3,0.7,0.6,1.4,0.4,2.2c0.1-0.1,0.3-0.1,0.3-0.2c0.1-0.5,0.2-1.1-0.1-1.6
		C35.9,41.3,35.8,41.1,35.6,40.6z M32.1,36.9c0.1-0.6-0.7-1.8-1.3-2.2C31,35.7,31.5,36.2,32.1,36.9z M33.2,40.6c0-0.2,0-0.2-0.1-0.3
		c-0.3-0.5-0.8-0.8-0.9-1.5c0-0.1-0.2-0.1-0.3-0.2c0,0.1-0.1,0.3-0.1,0.4c0.3,0.5,0.6,0.9,0.9,1.4C32.9,40.5,33,40.5,33.2,40.6z
		 M34.6,45.6c0.2,0.2,0.3,0.3,0.4,0.4c0.1,0,0.3-0.2,0.3-0.3c0-0.2,0.1-0.6-0.3-0.6C34.9,45.1,34.8,45.4,34.6,45.6z M38.1,27.6
		c0,0.1,0.1,0.1,0.1,0.2c0.5-0.3,1-0.6,1.5-0.9c0-0.1-0.1-0.1-0.1-0.2C39.1,27,38.6,27.3,38.1,27.6z M32.2,37.1
		c-0.1,0-0.1,0-0.2-0.1c-0.1,0.2-0.2,0.5-0.3,0.7c0,0.1,0.1,0.2,0.2,0.3c0.1-0.1,0.2-0.2,0.3-0.3C32.2,37.6,32.2,37.4,32.2,37.1z
		 M43.5,35.5c-0.1,0-0.1,0-0.2-0.1c-0.2,0.1-0.4,0.3-0.6,0.4c0.2,0.1,0.5,0.2,0.7,0.3C43.5,35.9,43.5,35.7,43.5,35.5z M39.3,31.2
		c0,0-0.1-0.1-0.1-0.1c-0.4,0.4-0.7,0.8-1.1,1.2c0,0,0.1,0.1,0.1,0.1C38.6,32,38.9,31.6,39.3,31.2z M37.3,46.3
		c0.2-0.2,0.3-0.3,0.3-0.4c0-0.2-0.1-0.3-0.2-0.5c-0.1,0.1-0.3,0.2-0.3,0.3C37.1,45.9,37.2,46.1,37.3,46.3z M30,34.1
		c0.2,0.2,0.4,0.4,0.6,0.5c0.1-0.1,0.2-0.2,0.2-0.3C30.6,34.1,30.4,33.9,30,34.1z M35.3,43.6c-0.4,0-0.3,0.4-0.5,0.6
		c0,0,0.1,0.2,0.1,0.3c0.1-0.1,0.2-0.1,0.2-0.2C35.2,44.1,35.2,43.8,35.3,43.6z M42.3,37.1c0,0-0.1,0.1-0.1,0.1
		c0.2,0.1,0.4,0.2,0.6,0.3c0.1,0,0.2,0,0.3,0c0,0,0.1-0.2,0-0.2c0-0.1-0.1-0.1-0.2-0.1C42.7,37.1,42.5,37.1,42.3,37.1z M33.1,38.5
		c-0.1,0.2-0.2,0.3-0.2,0.4c0,0.1,0.1,0.2,0.2,0.4c0.1-0.1,0.2-0.2,0.2-0.3C33.3,38.9,33.2,38.7,33.1,38.5z M31.7,41.1
		c0,0.1-0.1,0.2-0.1,0.2c0.1,0.1,0.3,0.1,0.4,0.2c0-0.1,0.1-0.2,0.1-0.2C32,41.2,31.9,41.1,31.7,41.1z M36.5,45.8
		c-0.2-0.1-0.3-0.3-0.4-0.3c0,0-0.2,0.2-0.2,0.2c0,0.1,0.1,0.2,0.2,0.3C36.2,46,36.3,45.9,36.5,45.8z M43.7,38.4
		c0-0.1,0.1-0.1,0.1-0.2c-0.1-0.1-0.3-0.2-0.4-0.3c0,0.1-0.1,0.3-0.1,0.3C43.4,38.3,43.6,38.4,43.7,38.4z"/>
	<path class="st0" d="M25.4,7.6C26.9,7.3,28.5,7,30,6.7c1.7-0.3,3.4-0.7,5.2-1c1.4-0.3,2.7-0.6,4.1-0.9c2.2-0.4,4.3-0.9,6.6-0.8
		c0.6,0,1.1-0.1,1.7-0.2c0.3,0,0.7,0,1,0.1c0.6,0.2,1.1,1.1,1.1,1.9c0,0.3-0.1,0.6-0.1,0.9c-0.1,0-0.1,0-0.2,0
		c0-0.3,0.1-0.6,0.1-0.9c0,0-0.1,0-0.1,0c-0.1,0.2-0.2,0.4-0.2,0.6C49,7,49,7,48.3,7.1c-0.8,0.1-1.5,0.3-2.3,0.4
		c-2,0.4-4.1,0.8-6.1,1.2c-3,0.6-6,1.2-9,1.8c-1.5,0.3-3.1,0.4-4.7,0.7c-0.3,0-0.6,0.1-1,0.1"/>
	<path class="st0" d="M16.2,8.8 M18.8,9.1 M19.4,8.4c0.1,0,0.2,0,0.2,0"/>
	<path class="st0" d="M40.2,30.2c-0.5,0-0.9,0-1.4,0c-0.5,0-1,0.1-1.5,0.1c-0.4,0-0.9-0.1-1.2-0.3c-0.7-0.3-1.3-0.6-2-1
		c-0.1,0-0.1-0.1-0.1-0.2c0.7,0.2,1.4,0.3,2.1,0.5c0.2,0,0.5,0,0.7,0.1c0.3,0.1,0.6,0.3,1,0.3C38.6,29.8,39.4,29.9,40.2,30.2
		C40.1,30.1,40.2,30.1,40.2,30.2z"/>
	<path class="st0" d="M31.7,16.9c0.7,0.1,1.5,0.3,2.3,0.4C33.3,17.7,31.9,17.4,31.7,16.9z"/>
	<path class="st0" d="M43.4,44.4c-0.4-0.3-0.4-1.1,0-1.4C43.8,43.8,43.8,44,43.4,44.4z"/>
	<path class="st0" d="M44.7,35.4c-0.2-0.3-0.3-0.5-0.4-0.8c0-0.1,0.1-0.3,0.1-0.4c0.1,0.1,0.3,0.2,0.3,0.3
		C44.7,34.7,44.6,35,44.7,35.4C44.6,35.4,44.7,35.4,44.7,35.4z"/>
	<path class="st0" d="M28.2,27.9c0.2,0.5,0.4,0.9,0.6,1.4c-0.6-0.2-0.5-0.9-0.7-1.3C28.1,27.9,28.2,27.9,28.2,27.9z"/>
	<path d="M13.7,33c-0.1-0.1-0.1-0.3-0.2-0.5c0.8-0.6,1.6-1.2,2.4-1.9c0.4,0.7,0.6,1.4,0.6,2.1c0,0.2,0.1,0.3,0.1,0.5
		c0,0.1,0,0.2,0,0.4c0,0-0.1,0.1-0.2,0c-0.1-0.1-0.2-0.2-0.2-0.3c0-0.3,0-0.5-0.3-0.6c-0.3-0.1-0.4,0.1-0.6,0.3
		c-0.3,0.3-0.6,0.5-0.9,0.7c-0.1,0.1-0.3,0.1-0.4,0.1c0-0.1,0-0.4,0.1-0.4c0.3-0.3,0.6-0.6,0.9-0.8c0.2-0.2,0.5-0.3,0.7-0.5
		c0.3-0.3,0.1-0.5-0.1-0.7C15,32,14.1,32.2,13.7,33C13.7,33,13.7,33,13.7,33z"/>
	<path d="M18.1,32.4c-0.2,0-0.4-0.1-0.4-0.1c-0.4,0.3-0.4,0-0.5-0.3c-0.2-0.7-0.4-1.3-0.7-2c0.1-0.1,0.2-0.3,0.3-0.4
		c0.1,0.4,0.2,0.7,0.3,1.1c0,0.1,0.2,0.3,0.2,0.4c0,0.4,0.1,0.7,0.6,0.8C18,32,18,32.2,18.1,32.4z"/>
	<path d="M13.1,38.7c-0.2-0.7,1-1.5,2-1.1c-0.2,0.1-0.4,0.2-0.6,0.3c-0.4,0.1-0.8,0.1-1,0.6c0,0.1-0.1,0.3-0.2,0.4
		C13.2,38.7,13.1,38.7,13.1,38.7z"/>
	<path d="M4,51.6C4,51.7,3.9,51.8,3.9,52c-0.1,0.2-0.2,0.4-0.3,0.6c0,0.1-0.1,0.2-0.1,0.3C3.3,53,3.1,53,2.9,53.1
		c0-0.2,0-0.3,0.1-0.5c0.2-0.3,0.4-0.7,0.6-1c0.1-0.1,0.2-0.1,0.3-0.2C4,51.5,4,51.5,4,51.6z"/>
	<path d="M16.2,33.7C16.1,33.9,16.1,34,16,34c-0.3,0.2-0.6,0.5-0.9,0.7c-0.1,0-0.2,0-0.3-0.1c0-0.1,0-0.2,0-0.3
		c0.3-0.3,0.6-0.5,0.9-0.7C15.8,33.6,16,33.7,16.2,33.7z"/>
	<path d="M6.6,17.3c-0.3-0.2-0.7-0.3-0.1-0.6c0.1,0,0.1-0.2,0.2-0.3C6.7,16,6.9,16,7.3,16.1C7.1,16.5,6.9,16.9,6.6,17.3z"/>
	<path d="M8.5,50.8C8.2,51.3,8,51.6,7.8,52c-0.1,0-0.1,0-0.2-0.1c0.1-0.3,0.1-0.6,0.2-0.9C7.9,50.9,8.2,50.9,8.5,50.8z"/>
	<path d="M7.6,49.4c-0.1-0.3-0.3-0.6-0.4-0.8c0-0.1,0.1-0.2,0.1-0.4c0.1,0.1,0.2,0.1,0.3,0.2c0.1,0.1,0,0.3,0.1,0.3
		C8.3,49.1,7.8,49.2,7.6,49.4z"/>
	<path d="M15.6,38.2c-0.2,0.3-1,0.6-1.3,0.3C14.7,38.4,15,37.9,15.6,38.2z"/>
	<path d="M13.2,42.1c-0.1-0.8,0.3-1.3,0.8-1.3C13.7,41.2,13.5,41.6,13.2,42.1z"/>
	<path d="M7.9,50.3c0,0.1,0,0.3-0.1,0.3c-0.3,0-0.6,0-0.9-0.1c-0.1,0-0.1-0.3-0.1-0.3C7.2,50.3,7.5,50.3,7.9,50.3z"/>
	<path d="M5.7,50.5c0.1-0.4,0.3-0.7,0.4-1C6.4,50.1,6.2,50.5,5.7,50.5z"/>
	<path d="M12.3,40.5c0.3,0.1,0.4,0.1,0.6,0.2c-0.2,0.2-0.3,0.4-0.5,0.7C12.4,41.1,12.4,40.9,12.3,40.5z"/>
	<path d="M5.6,50.2c-0.2,0.2-0.3,0.3-0.5,0.4c0,0-0.2-0.2-0.2-0.2C5,50.3,5.1,50.1,5.3,50C5.3,50,5.4,50.1,5.6,50.2z"/>
	<path d="M18.9,31.5c-0.1-0.1-0.2-0.2-0.2-0.3c0-0.1,0.1-0.2,0.2-0.3c0.1,0.1,0.2,0.2,0.2,0.3c0,0.1-0.1,0.2-0.1,0.4
		C18.9,31.5,18.9,31.5,18.9,31.5z"/>
	<path d="M13.9,42.2c-0.1,0.4-0.3,0.8-0.4,1.1c0,0-0.1,0-0.1-0.1c0.1-0.4,0.3-0.8,0.4-1.1C13.8,42.2,13.8,42.2,13.9,42.2z"/>
	<path d="M2.6,35.2c-0.5-0.3-0.4-0.6-0.2-0.8c0.1,0,0.1,0,0.2,0C2.5,34.5,2.6,34.8,2.6,35.2z"/>
	<path d="M7.7,52.9c-0.1-0.6,0.1-0.7,0.5-0.7c0,0,0.1,0.1,0.1,0.1C8.1,52.4,7.9,52.6,7.7,52.9z"/>
	<path d="M3.6,34.2c0,0.4,0,0.6,0,0.8c-0.1,0-0.1,0-0.2,0C3.3,34.8,3.2,34.6,3.6,34.2z"/>
	<path d="M2.4,53.8c0.2-0.2,0.4-0.3,0.6-0.5C3,53.8,2.8,54,2.5,54C2.5,53.9,2.4,53.9,2.4,53.8z"/>
	<path d="M1.2,54.7c-0.2,0-0.4,0.1-0.6,0.1c0-0.1,0-0.2,0-0.2c0.2-0.1,0.3-0.1,0.5-0.2C1.2,54.5,1.2,54.6,1.2,54.7z"/>
	<path d="M3.7,51c-0.2,0.1-0.3,0.2-0.4,0.2c-0.1,0-0.2-0.1-0.3-0.2c0.1-0.1,0.2-0.2,0.3-0.3C3.4,50.8,3.5,50.9,3.7,51z"/>
	<path d="M1.8,53.8c-0.2,0.1-0.3,0.2-0.5,0.2c0-0.1-0.1-0.2-0.1-0.3c0.2-0.1,0.3-0.1,0.5-0.2C1.7,53.6,1.7,53.7,1.8,53.8z"/>
	<path d="M8.9,48.2c-0.2,0.1-0.3,0.3-0.5,0.3c0,0-0.1-0.1-0.2-0.1c0.1-0.1,0.3-0.3,0.4-0.4C8.6,48,8.8,48.1,8.9,48.2z"/>
	<path d="M3.1,34c0-0.2,0-0.5,0-0.7c0.1,0,0.1,0,0.2,0c0,0.2,0,0.5,0.1,0.7C3.2,34,3.2,34,3.1,34z"/>
	<path d="M2.4,50.7C2.2,50.8,2,50.9,1.8,51c0-0.1-0.1-0.1-0.1-0.2c0.2-0.1,0.4-0.2,0.5-0.3C2.3,50.5,2.3,50.6,2.4,50.7z"/>
	<path d="M0.7,52.3c0.1,0.2,0.2,0.3,0.2,0.4c0,0.1-0.2,0.2-0.2,0.2c-0.1,0-0.2-0.2-0.3-0.2C0.5,52.5,0.6,52.4,0.7,52.3z"/>
	<path d="M9.7,45.8c-0.2,0.1-0.3,0.2-0.4,0.3c-0.1-0.1-0.2-0.2-0.2-0.2c0.1-0.1,0.2-0.2,0.3-0.3C9.4,45.6,9.6,45.7,9.7,45.8z"/>
	<path d="M1.3,47c0-0.2,0-0.3,0-0.5c0.1,0,0.3,0.1,0.3,0.1c0,0.1,0,0.3-0.1,0.4C1.4,47,1.3,47,1.3,47z"/>
	<path d="M2.6,36.1c0-0.2,0-0.5-0.1-0.7c0.1,0,0.2,0,0.2,0c0,0.2,0.1,0.5,0.1,0.7C2.8,36.1,2.7,36.1,2.6,36.1z"/>
	<path d="M16.1,35.4c-0.2,0.1-0.3,0.2-0.4,0.3c0,0-0.2-0.2-0.2-0.2c0.1-0.1,0.2-0.2,0.3-0.3C15.9,35.2,16,35.3,16.1,35.4z"/>
	<path d="M6.7,49.1c0.1,0.2,0.2,0.4,0.2,0.6c0,0-0.1,0.1-0.2,0.1c-0.1-0.2-0.1-0.4-0.2-0.6C6.6,49.2,6.7,49.2,6.7,49.1z"/>
	<path d="M2.9,52.2c-0.2,0.1-0.3,0.1-0.5,0.2c0-0.1-0.1-0.3-0.1-0.3C2.5,52,2.7,52,2.8,51.9C2.9,52,2.9,52.1,2.9,52.2z"/>
	<path d="M0.4,39.9c0-0.2,0-0.5,0-0.7c0.1,0,0.1,0,0.2,0c0.1,0.2,0.2,0.5,0,0.7C0.5,39.9,0.4,39.9,0.4,39.9z"/>
	<path d="M1.3,38.9c-0.1-0.2-0.3-0.5,0.2-0.7c0,0.3,0,0.5,0,0.7C1.5,39,1.4,38.9,1.3,38.9z"/>
	<path d="M11.1,43.9c-0.2,0.2-0.3,0.3-0.4,0.4c0,0-0.2-0.1-0.2-0.2c0.1-0.1,0.2-0.3,0.3-0.4C10.8,43.7,10.9,43.8,11.1,43.9z"/>
	<path d="M4.2,49.8C4.1,49.9,4,50,3.8,50.2C3.8,50.1,3.7,50,3.7,50c0.1-0.1,0.2-0.2,0.4-0.4C4.1,49.7,4.2,49.7,4.2,49.8z"/>
	<path d="M15.7,40.6c-0.1-0.1-0.2-0.2-0.2-0.3c0-0.1,0.1-0.2,0.2-0.3c0.1,0.1,0.2,0.2,0.2,0.3C16,40.4,15.9,40.5,15.7,40.6z"/>
	<path d="M0.6,43.1c-0.1-0.2-0.2-0.3-0.2-0.4c0-0.1,0.1-0.1,0.2-0.2c0.1,0.1,0.2,0.2,0.2,0.3C0.8,42.8,0.7,42.9,0.6,43.1z"/>
	<path d="M2.1,36.3c0,0.2,0,0.4,0,0.5c-0.1,0-0.2,0-0.2,0c0-0.2,0-0.3,0-0.5C1.9,36.3,2,36.3,2.1,36.3z"/>
	<path d="M10.4,44.8c-0.1,0.2-0.2,0.3-0.4,0.4c0,0-0.2-0.2-0.2-0.2c0.1-0.1,0.2-0.3,0.3-0.3C10.1,44.7,10.2,44.8,10.4,44.8z"/>
	<path d="M1.6,51.5c-0.1,0.5-0.3,0.5-0.7,0.2C1.2,51.5,1.4,51.5,1.6,51.5z"/>
	<path d="M43.5,20c0.2-0.3,0.4-0.6,0.5-0.9c0-0.1-0.1-0.4-0.3-0.5c-0.2-0.2-0.3-0.2-0.5,0.1c-0.5,0.9-1.2,1-1.8,0.1
		c0,0-0.1-0.1-0.1-0.1c-0.4,0.2-0.8-0.4-1.3-0.1c-0.4,0.3-0.5,0.2-0.8-0.4c1.2-0.4,2.4-0.7,3.6-1c0.5-0.1,1.1,0.1,1.5,0.3
		c0.2,0.1,0.6,0.3,0.2,0.6c0,0.1,0.1,0.3,0.2,0.5c0.1,0.1,0.2,0.4,0.2,0.4c-0.4,0.3-0.6,1-1.3,0.9C43.6,20,43.5,20,43.5,20z
		 M40.7,18.3c1-0.2,1.9-0.4,2.9-0.7C42.8,17.2,41.5,17.5,40.7,18.3z"/>
	<path d="M41.4,40.2C41.4,40.2,41.4,40.3,41.4,40.2c-0.2,0.1-0.3,0-0.3-0.1c-0.2-0.6-0.4-1.1-0.6-1.7c-0.1-0.4-0.3-0.7-0.5-1.1
		c0-0.1-0.1-0.2-0.1-0.3c0-0.1,0.2-0.2,0.2-0.3c0.1,0.1,0.2,0.1,0.2,0.2c0.3,0.7,0.5,1.4,0.7,2.1C41.2,39.3,41.3,39.7,41.4,40.2z"/>
	<path d="M37.3,40.6c-0.1,0.1-0.2,0.1-0.3,0.1c0,0.3-0.1,0.5-0.1,0.8c0,0,0.1,0.1,0.1,0.2c0,0.1,0,0.2,0,0.3
		c-0.1,0.1-0.2,0.1-0.3,0.1c-0.1,0-0.1-0.1-0.1-0.2c-0.1-0.4-0.2-0.8-0.1-1.2c0-0.3,0.1-0.5,0-0.7c0-0.1,0.1-0.2,0.2-0.3
		c0.1,0.1,0.2,0.2,0.2,0.3c0,0.4,0.1,0.5,0.5,0.5C37.3,40.5,37.3,40.6,37.3,40.6z"/>
	<path d="M35.6,40.6c0.2,0.4,0.3,0.6,0.4,0.9c0.2,0.5,0.1,1.1,0.1,1.6c0,0.1-0.1,0.2-0.3,0.2c0.2-0.8-0.1-1.5-0.4-2.2
		C35.4,41,35.5,40.8,35.6,40.6z"/>
	<path d="M32.1,36.9c-0.5-0.7-1.1-1.3-1.3-2.2C31.4,35.1,32.2,36.4,32.1,36.9z"/>
	<path d="M33.2,40.6c-0.2-0.1-0.3-0.1-0.3-0.1c-0.3-0.5-0.6-0.9-0.9-1.4c0-0.1,0-0.2,0.1-0.4c0.1,0.1,0.3,0.1,0.3,0.2
		c0.1,0.6,0.5,1,0.9,1.5C33.1,40.4,33.1,40.4,33.2,40.6z"/>
	<path d="M34.6,45.6c0.2-0.2,0.3-0.5,0.4-0.5c0.4,0,0.2,0.4,0.3,0.6c0,0.1-0.2,0.3-0.3,0.3C34.9,45.9,34.8,45.8,34.6,45.6z"/>
	<path d="M38.1,27.6c0.5-0.3,1-0.6,1.5-1c0,0.1,0.1,0.1,0.1,0.2c-0.5,0.3-1,0.6-1.5,0.9C38.2,27.7,38.1,27.7,38.1,27.6z"/>
	<path d="M32.2,37.1c0,0.2,0.1,0.4,0,0.7c0,0.1-0.2,0.2-0.3,0.3c-0.1-0.1-0.2-0.2-0.2-0.3c0.1-0.3,0.2-0.5,0.3-0.7
		C32,37.1,32.1,37.1,32.2,37.1z"/>
	<path d="M43.5,35.5c0,0.2,0,0.4,0,0.6c-0.2-0.1-0.5-0.2-0.7-0.3c0.2-0.1,0.4-0.3,0.6-0.4C43.4,35.4,43.5,35.4,43.5,35.5z"/>
	<path d="M39.3,31.2c-0.4,0.4-0.7,0.8-1.1,1.2c0,0-0.1-0.1-0.1-0.1c0.4-0.4,0.7-0.8,1.1-1.2C39.2,31.1,39.3,31.2,39.3,31.2z"/>
	<path d="M37.3,46.3c-0.1-0.3-0.2-0.4-0.2-0.5c0-0.1,0.2-0.2,0.3-0.3c0.1,0.2,0.2,0.3,0.2,0.5C37.6,46,37.5,46.1,37.3,46.3z"/>
	<path d="M30,34.1c0.5-0.2,0.7-0.1,0.7,0.2c0,0.1-0.1,0.2-0.2,0.3C30.3,34.5,30.2,34.3,30,34.1z"/>
	<path d="M35.3,43.6c-0.1,0.3-0.1,0.5-0.2,0.7c0,0.1-0.1,0.1-0.2,0.2c0-0.1-0.1-0.3-0.1-0.3C35,44,34.8,43.5,35.3,43.6z"/>
	<path d="M42.3,37.1c0.2,0,0.4,0,0.6,0c0.1,0,0.2,0.1,0.2,0.1c0,0.1,0,0.2,0,0.2c0,0-0.2,0-0.3,0c-0.2-0.1-0.4-0.2-0.6-0.3
		C42.2,37.1,42.3,37.1,42.3,37.1z"/>
	<path d="M33.1,38.5c0.1,0.3,0.2,0.4,0.2,0.5c0,0.1-0.1,0.2-0.2,0.3c-0.1-0.1-0.2-0.2-0.2-0.4C32.9,38.8,33,38.7,33.1,38.5z"/>
	<path d="M31.7,41.1c0.1,0.1,0.3,0.1,0.4,0.2c0,0-0.1,0.1-0.1,0.2c-0.1-0.1-0.3-0.1-0.4-0.2C31.7,41.2,31.7,41.2,31.7,41.1z"/>
	<path d="M36.5,45.8c-0.2,0.1-0.3,0.2-0.4,0.2c-0.1,0-0.2-0.2-0.2-0.3c0-0.1,0.2-0.2,0.2-0.2C36.3,45.6,36.3,45.7,36.5,45.8z"/>
	<path d="M43.7,38.4c-0.1,0-0.3-0.1-0.4-0.2c0,0,0.1-0.2,0.1-0.3c0.1,0.1,0.3,0.2,0.4,0.3C43.8,38.3,43.7,38.4,43.7,38.4z"/>
	<path d="M19.6,8.3c0,0-0.1,0.1-0.2,0"/>
	<path class="st0" d="M40.7,18.3c0.7-0.8,2.1-1.1,2.9-0.7C42.6,17.9,41.7,18.1,40.7,18.3z"/>
</g>
<g>
	<path class="st0" d="M20.4,49.8h1.6v8.6h2.6v1.4h-4.2V49.8z"/>
	<path class="st0" d="M25.1,52.2c0-0.8,0.2-1.4,0.6-1.9c0.4-0.4,1-0.7,1.8-0.7c0.8,0,1.4,0.2,1.8,0.7c0.4,0.4,0.6,1.1,0.6,1.9v5.2
		c0,0.8-0.2,1.4-0.6,1.9s-1,0.7-1.8,0.7c-0.8,0-1.4-0.2-1.8-0.7c-0.4-0.4-0.6-1.1-0.6-1.9V52.2z M26.7,57.6c0,0.4,0.1,0.6,0.2,0.8
		c0.1,0.1,0.3,0.2,0.6,0.2c0.2,0,0.4-0.1,0.6-0.2c0.1-0.1,0.2-0.4,0.2-0.8v-5.4c0-0.4-0.1-0.6-0.2-0.8c-0.1-0.1-0.3-0.2-0.6-0.2
		c-0.2,0-0.4,0.1-0.6,0.2c-0.1,0.1-0.2,0.4-0.2,0.8V57.6z"/>
	<path class="st0" d="M32.5,49.8v7.8c0,0.4,0.1,0.6,0.2,0.8c0.1,0.1,0.3,0.2,0.6,0.2s0.4-0.1,0.6-0.2c0.1-0.1,0.2-0.4,0.2-0.8v-7.8
		h1.5v7.7c0,0.8-0.2,1.4-0.6,1.9c-0.4,0.4-1,0.7-1.8,0.7s-1.4-0.2-1.8-0.7c-0.4-0.4-0.6-1.1-0.6-1.9v-7.7H32.5z"/>
	<path class="st0" d="M41.3,49.8c0.8,0,1.4,0.2,1.8,0.6s0.6,1,0.6,1.7v0.4c0,0.5-0.1,0.9-0.2,1.3c-0.2,0.3-0.4,0.6-0.8,0.7
		c0.4,0.2,0.7,0.4,0.9,0.8c0.2,0.4,0.3,0.8,0.3,1.4v0.8c0,0.8-0.2,1.4-0.6,1.8c-0.4,0.4-1,0.6-1.8,0.6h-2.5V49.8H41.3z M40.5,51.2
		v2.7h0.6c0.3,0,0.5-0.1,0.7-0.2s0.3-0.4,0.3-0.8v-0.6c0-0.4-0.1-0.6-0.2-0.8c-0.1-0.2-0.3-0.2-0.6-0.2H40.5z M40.5,55.3v3.1h0.9
		c0.3,0,0.5-0.1,0.6-0.2s0.2-0.4,0.2-0.8v-0.9c0-0.5-0.1-0.8-0.2-1c-0.2-0.2-0.4-0.3-0.8-0.3H40.5z"/>
	<path class="st0" d="M46.3,54h2.2v1.4h-2.2v2.9h2.7v1.4h-4.3V49.8h4.3v1.4h-2.7V54z"/>
	<path class="st0" d="M52.4,54.3h2.2v3.2c0,0.8-0.2,1.4-0.6,1.9c-0.4,0.4-1,0.7-1.8,0.7s-1.4-0.2-1.8-0.7c-0.4-0.4-0.6-1.1-0.6-1.9
		v-5.2c0-0.8,0.2-1.4,0.6-1.9c0.4-0.4,1-0.7,1.8-0.7s1.4,0.2,1.8,0.7c0.4,0.4,0.6,1.1,0.6,1.9v1h-1.5v-1.1c0-0.4-0.1-0.6-0.2-0.8
		c-0.1-0.1-0.3-0.2-0.6-0.2s-0.4,0.1-0.6,0.2c-0.1,0.1-0.2,0.4-0.2,0.8v5.4c0,0.4,0.1,0.6,0.2,0.8c0.1,0.1,0.3,0.2,0.6,0.2
		s0.4-0.1,0.6-0.2c0.1-0.1,0.2-0.4,0.2-0.8v-1.9h-0.7V54.3z"/>
	<path class="st0" d="M60.8,59.9h-1.6L58.9,58H57l-0.3,1.8h-1.5l1.6-10.1h2.3L60.8,59.9z M57.2,56.7h1.5l-0.8-5.1L57.2,56.7z"/>
</g>
<g>
	<path class="st0" d="M18.4,67.4l0.9-6.2h1.9v8.8H20v-6.3l-1,6.3h-1.3l-1-6.2v6.2h-1.2v-8.8h1.9L18.4,67.4z"/>
	<path class="st0" d="M26.7,69.9h-1.4l-0.2-1.6h-1.7l-0.2,1.6h-1.3l1.4-8.8h2L26.7,69.9z M23.6,67.2h1.3l-0.7-4.4L23.6,67.2z"/>
	<path class="st0" d="M30.3,67.4l0.9-6.2h1.9v8.8h-1.3v-6.3l-1,6.3h-1.3l-1-6.2v6.2h-1.2v-8.8h1.9L30.3,67.4z"/>
	<path class="st0" d="M36.2,61.2c0.7,0,1.2,0.2,1.6,0.5c0.3,0.3,0.5,0.8,0.5,1.5v0.3c0,0.5-0.1,0.8-0.2,1.1s-0.4,0.5-0.7,0.7
		c0.4,0.1,0.6,0.4,0.8,0.7c0.2,0.3,0.2,0.7,0.2,1.2v0.7c0,0.7-0.2,1.2-0.5,1.5c-0.3,0.4-0.9,0.5-1.6,0.5h-2.2v-8.8H36.2z M35.5,62.4
		v2.3h0.5c0.3,0,0.5-0.1,0.6-0.2s0.2-0.4,0.2-0.7v-0.5c0-0.3-0.1-0.5-0.2-0.7c-0.1-0.1-0.3-0.2-0.5-0.2H35.5z M35.5,66v2.7h0.8
		c0.2,0,0.4-0.1,0.5-0.2c0.1-0.1,0.2-0.3,0.2-0.7v-0.8c0-0.4-0.1-0.7-0.2-0.8c-0.1-0.2-0.4-0.2-0.7-0.2H35.5z"/>
	<path class="st0" d="M39.1,63.3c0-0.7,0.2-1.3,0.5-1.6c0.4-0.4,0.9-0.6,1.5-0.6c0.7,0,1.2,0.2,1.6,0.6c0.4,0.4,0.5,0.9,0.5,1.6v4.6
		c0,0.7-0.2,1.3-0.5,1.6c-0.4,0.4-0.9,0.6-1.6,0.6c-0.7,0-1.2-0.2-1.5-0.6c-0.4-0.4-0.5-0.9-0.5-1.6V63.3z M40.5,67.9
		c0,0.3,0.1,0.5,0.2,0.7c0.1,0.1,0.3,0.2,0.5,0.2s0.4-0.1,0.5-0.2c0.1-0.1,0.2-0.4,0.2-0.7v-4.7c0-0.3-0.1-0.5-0.2-0.7
		c-0.1-0.1-0.3-0.2-0.5-0.2s-0.4,0.1-0.5,0.2s-0.2,0.4-0.2,0.7V67.9z"/>
	<path class="st0" d="M47.3,63.6v6.3h-1.2v-8.8h1.7l1.4,5.2v-5.2h1.2v8.8h-1.4L47.3,63.6z"/>
	<path class="st0" d="M51.3,63.3c0-0.7,0.2-1.3,0.5-1.6c0.4-0.4,0.9-0.6,1.5-0.6c0.7,0,1.2,0.2,1.6,0.6c0.4,0.4,0.5,0.9,0.5,1.6v4.6
		c0,0.7-0.2,1.3-0.5,1.6c-0.4,0.4-0.9,0.6-1.6,0.6c-0.7,0-1.2-0.2-1.5-0.6c-0.4-0.4-0.5-0.9-0.5-1.6V63.3z M52.7,67.9
		c0,0.3,0.1,0.5,0.2,0.7c0.1,0.1,0.3,0.2,0.5,0.2s0.4-0.1,0.5-0.2c0.1-0.1,0.2-0.4,0.2-0.7v-4.7c0-0.3-0.1-0.5-0.2-0.7
		c-0.1-0.1-0.3-0.2-0.5-0.2s-0.4,0.1-0.5,0.2s-0.2,0.4-0.2,0.7V67.9z"/>
	<path class="st0" d="M57.6,68.6v1.3h-1.3v-1.3H57.6z"/>
	<path class="st0" d="M61.8,67.1v0.8c0,0.3,0.1,0.5,0.2,0.7c0.1,0.1,0.3,0.2,0.5,0.2s0.4-0.1,0.5-0.2c0.1-0.1,0.2-0.3,0.2-0.7V66
		c0-0.3-0.1-0.5-0.2-0.7c-0.1-0.1-0.3-0.2-0.5-0.2s-0.4,0.1-0.5,0.2c-0.1,0.1-0.2,0.4-0.2,0.7v0.3h-1.3l0.2-5.1h3.6v1.3H62l-0.1,2.1
		c0.3-0.4,0.7-0.6,1.2-0.6c0.5,0,0.9,0.2,1.1,0.5c0.3,0.3,0.4,0.8,0.4,1.5v2c0,0.7-0.2,1.3-0.5,1.6c-0.3,0.4-0.9,0.6-1.5,0.6
		c-0.7,0-1.2-0.2-1.5-0.6c-0.3-0.4-0.5-0.9-0.5-1.6v-0.7H61.8z"/>
</g>
</svg>
