<?xml version="1.0" encoding="utf-8"?>
<!-- Generator: Adobe Illustrator 24.0.3, SVG Export Plug-In . SVG Version: 6.00 Build 0)  -->
<svg version="1.1" id="Layer_1" xmlns="http://www.w3.org/2000/svg" xmlns:xlink="http://www.w3.org/1999/xlink" x="0px" y="0px"
	 viewBox="0 0 72 72" style="enable-background:new 0 0 72 72;" xml:space="preserve">
<style type="text/css">
	.st0{fill:#FFFFFF;}
</style>
<g id="dUIQHF.tif">
	<g>
		<g>
			<path class="st0" d="M81.2,75.6c-15.4,0-30.8,0-46.2,0c0-24.5,0-49,0-73.6c15.4,0,30.8,0,46.2,0C81.2,26.5,81.2,51,81.2,75.6z
				 M51.8,51.9c0-0.1-0.1-0.1-0.1-0.2c0.2-0.2,0.5-0.3,0.7-0.5c0.5-0.4,1.1-0.7,1.6-1.1c0.2-0.1,0.4-0.3,0.6-0.4
				c1.1-0.5,2.2-1.1,2.3-2.4c0.1-1.6-0.2-3.2-1.8-4.1c-0.3-0.1-0.6-0.2-1-0.4c0.9-0.3,1.4-0.1,1.9,0.4c0.3,0.3,0.7,0.8,1,0.8
				c0.9,0,1.1,0.5,1.1,1.1c0.1,1.2,0,2.5,0,3.7c0,0.3,0.2,0.7,0.4,1c0.3-0.3,0.6-0.5,0.7-0.8c0.1-0.4,0.1-0.8,0.1-1.2
				c0.3-2.4-0.3-4.4-1.8-6.2c-0.4-0.4-0.3-0.7,0.3-1c1.3-0.8,2.5-1.6,3.7-2.5c0.2-0.2,0.2-0.7,0.3-1c0-0.7-0.2-1.4,0-2
				c0.3-0.8-0.2-1-0.6-1.2c-0.2-0.1-0.4-0.1-0.6-0.2c0-0.1,0.1-0.2,0.1-0.3c0.3,0.1,0.6,0.2,0.9,0.2c0.3,0,0.6-0.1,0.8-0.2
				c-0.2-0.3-0.3-0.7-0.6-0.7c-0.4-0.1-0.8-0.1-1.2-0.1c-0.7,0-1.2-0.2-1.2-0.9c-0.7-0.2-1.4-0.4-2.1-0.6c0-0.1,0-0.2,0.1-0.3
				c0.4,0,0.8,0.1,1.2,0.1c0-0.1,0-0.2,0.1-0.2c-1.2-1.2-2.7-1.7-4.2-2.1c-1.6-0.4-2.9,0.8-4.2,1.6c0.3-0.7,0.4-1.5,0.8-2
				c1.3-1.4,2.6-3.1,5-2.4c0.1,0,0.2,0,0.3,0c1.1-0.4,2.1,0,2.9,0.8c0.4,0.4,0.9,0.7,1.4,0.3c0.3,0.2,0.6,0.3,0.9,0.5
				c0.1-0.2,0.3-0.4,0.3-0.6c-0.1-0.3-0.3-0.7-0.5-0.9c-0.7-0.5-1.6-0.8-2.3-1.4c-0.7-0.6-1.5-1.4-1.8-2.2c-0.2-0.6-0.1-1.3-0.7-1.8
				c-0.2-0.2-0.2-0.7-0.2-1c0-0.4,0.2-0.8,0.4-1.1c1-1.8,0.3-3.3-0.6-4.9c-0.1-0.3-0.4-0.4-0.6-0.7c-0.1,0-0.2,0.1-0.3,0.1
				c0.1,0.9,0,1.8,0.3,2.6c0.3,1.2-0.6,1.8-1,2.7c-0.1,0.3-0.9,0.3-1.4,0.3c-1.9,0.2-3.3,1.2-4.5,2.9c0.5-0.1,0.9-0.2,1.2-0.2
				c0.5,0,1.1,0,1.4,0.3c0.8,0.6,1.4,1.5,2,2.2c-0.7,0.4-1.3,0.9-2,1.2c-0.3,0.2-0.8,0.4-1.2,0.3c-1.6-0.3-2.4,1.1-3.5,1.7
				c0.3,1-0.5,1.8-0.6,2.7c-0.1,0.5,0.3,1,0.4,1.5c0,0.2-0.1,0.5-0.2,0.6c-1,0.4-1.4,1.4-2.1,2.1c-0.7,0.8-1.1,1.8-1.7,2.7
				c-0.3,0.5-0.5,0.9,0,1.4c0.1,0.1,0,0.5,0,0.7c-0.3,0.7-1.4,0.9-1,2c-0.7,0.1-1.4,0.2-1.8-0.5c-0.1-0.1-0.4-0.2-0.5-0.1
				c-0.1,0.1-0.2,0.4-0.2,0.5c0.1,0.3,0.3,0.6,0.4,0.9c0.1,0.3,0.3,0.7,0.2,1c-0.3,1.2-0.8,2.3-1.2,3.6c-0.3-0.5-0.5-0.8-0.7-1.2
				c-1-2.9,0.2-5.4,1.4-7.8c0.3,0.1,0.6,0.3,0.8,0.3c0.5-0.2,1.3-1.7,1.3-2.3c-1-0.2-1.8,0.4-2.6,1c0.1-0.9,0.8-1.5,1.8-1.5
				c0.8,0,1.8,0,2.5-0.4c0.7-0.4,1.1-1.3,1.6-1.9c0.4-0.5,0.5-1,0-1.4c-0.8-0.7-1.7-1.4-2.5-2.1c-0.3-0.2-0.7-0.5-1.1-0.6
				C40.2,28,40,27.7,40,27.3c0-0.4-0.1-0.8,0-1.3c0.1-2.4,1.2-4.4,2.3-6.5c0.9-1.7,2.5-2.8,3.9-4c0.9-0.8,2-1.5,3.1-1.9
				c0.7-0.3,1.3-0.2,1.3-0.9c0.8-0.2,1.5-0.2,2-0.5c0.5-0.3,0.9-0.4,1.5-0.1c1,0.4,1.8,0,2.2-1.2c0.6,0.2,1.3,0.2,1.7,0.6
				c0.7,0.7,1.5,0.8,2.4,0.7c0.4,0,0.7,0.1,1.1,0.1c0.5,0.1,1,0.1,1.5,0.2c0.8,0.1,1.8-0.5,2.3,0.6c0.2,0.5,0.5,0.5,1,0.4
				c0.7-0.2,1.4-0.4,1.8,0.3c-0.1,0.3-0.2,0.6-0.3,0.9c0.3,0.1,0.5,0.2,0.8,0.2c1.1-0.1,1.8,0.3,2.2,1.3c0.1,0.2,0.2,0.6,0.4,0.7
				c0.3,0.1,0.8,0.1,1-0.1c0.6-0.7-0.3-3.8-1.2-4.2c0,0-0.1,0-0.1,0c-0.5-0.3-1.1-0.5-1.3-1c-0.6-1-1.3-1.7-2.5-1.3
				c0-0.5,0.1-1,0-1.4c-0.3-0.6-0.9-0.8-1.5-0.5c-0.2,0.1-0.5-0.1-0.7-0.3C63.5,7,61.9,6.7,60.5,6c-0.2-0.1-0.7,0.2-0.9,0.4
				c-0.1,0.2,0,0.6,0.1,1c0.3-0.1,0.6,0,0.8-0.2c0.6-0.4,0.8-0.1,1.2,0.3c0.2,0.2,0.4,0.5,0.7,0.6c0.7,0.1,0.7,0.6,0.5,1
				c-0.2,0.3-0.5,0.6-0.8,0.6c-1.1,0.3-2.1,0.5-3.2,0.6c-1,0.1-1.4-0.3-1.6-1.2c-0.4-0.1-0.9-0.1-1.5-0.2c0.6-0.7,1-1.1,1.4-1.6
				c0.2-0.3,0.3-0.8,0.2-0.9c-0.4-0.5-0.2-0.9,0.3-1.1c1.6-0.6,3.2-0.8,4.9,0c0.2,0.1,0.4,0.4,0.4,0.6c0.1,0.9,0.3,1,1.2,0.8
				c0.9-0.2,1.8-0.3,2.6-0.2c1.2,0.1,2.6-0.2,3.4,1.2c0.1,0.2,0.5,0.2,0.8,0.3c0.7,0.2,1.3,0.4,2,0.6c1.5,0.5,2.9,1,3.8,2.4
				c0.2,0.3,0.6,0.5,0.9,0.7c0.2,0.1,0.5,0,0.7,0c-0.1-0.2-0.1-0.5-0.3-0.7c-0.2-0.4-0.6-0.6-0.7-1c-0.6-1.1-1.3-1.9-2.6-2.2
				c-1.9-0.3-3.6-1-5.1-2.2c-0.6-0.4-1-1-1.8-0.3c-0.1,0.1-0.3,0-0.4,0c-0.7-0.1-1.4-0.2-2.1-0.2c-0.9,0-1.6-0.1-2.2-0.8
				C62.7,4.2,62.4,4,62.2,4c-1.5,0-2.9-0.1-4.4,0.1c-1.3,0.2-1.9,1-2.1,2.2c0,0.3-0.3,0.5-0.5,0.9c-0.7-0.8-1.3-0.9-2.1-0.4
				c-0.1,0.1-0.4,0.1-0.6,0c-0.8-0.4-1.3,0.1-1.8,0.5c-1,0.8-2,1.7-2.9,2.7c-1.1,1.1-3,1.6-2.6,3.8c0,0.1,0,0.1-0.1,0.2
				c-0.4,0.6-0.8,1.2-1.2,1.8c-0.7,1-1.3,2.1-2.1,2.9c-1.7,1.6-2.4,3.6-2.7,5.8c-0.2,1.6-0.8,3.1-1.8,4.3c-0.6,0.7-0.9,1.3-0.5,2.3
				c0.2,0.5,0.1,1,0.1,1.6c0,0.6,0,1.1,0.6,1.5c0.2,0.1,0.3,0.4,0.2,0.6c0,0.8-0.1,1.6-0.2,2.4c-0.1,0.5-0.2,0.9-0.4,1.3
				c-1.4,2.6-1.7,5.3,0,7.9c1.7,2.5,2.4,5.5,4.3,7.9c0.1,0.1,0.1,0.2,0.1,0.3c0.5,1.6,1.1,3.2,1,4.9c0,0.7,0,1.5,0.4,2
				c1.2,1.9,3.2,2.7,5.3,2.8c1.6,0.1,3.2,0.2,4.7,0.4c0.5,0.1,1.1,0.4,1.3,0.8c0.5,0.8,0.8,1.8,1.2,2.6c0.5,1.1,1,2.3,1.5,3.3
				c0.2,0.4,0.7,0.8,1.2,1.1c0.2,0.1,0.5,0.1,0.8,0.1c-0.1-0.2-0.1-0.5-0.3-0.7c-1.1-1.4-2.1-2.9-2.2-4.8c-0.1-1.8-0.7-2.7-2.4-3.3
				c-0.1,0-0.3-0.2-0.6-0.4c1-0.3,1.7-0.5,2.4-0.8c0.3-0.1,0.6-0.5,0.8-0.7c-0.3-0.3-0.6-0.6-0.9-0.9c-0.1-0.1-0.3-0.1-0.4,0
				c-0.9,0.3-1.8,0.5-2.6,0.9c-0.7,0.3-1.4,1-2.1,1.1c-1.2,0.2-2.5,0.1-3.8-0.1c-2.4-0.4-3.4-1.3-3.3-4c0-1-0.2-2.1-0.4-3.1
				c-0.1-0.4-0.3-0.7-0.6-1.2c0.5,0.2,0.9,0.4,1.3,0.5c0.8,0.2,1.7,0.4,2.5,0.6c1.1,0.3,2.2,0.7,3.2,1.1c0.4,0.1,1,0.4,1,0.6
				c0,0.4-0.2,1-0.6,1.2c-1.1,0.9-2.3,1.9-3.9,1.6c-0.2,0-0.4,0-0.6,0.1c-0.2,0.1-0.3,0.3-0.4,0.5c0.2,0.1,0.3,0.3,0.5,0.3
				c0.8,0.3,1.5,0.6,2.3,0.9c0.3,0.1,0.5,0.5,0.8,0.5c2.3,0.3,4.2-0.9,4.6-3.5c1.5-0.4,1.6-1.3,0.2-2.9c0.7-0.5,1.4-0.9,2-1.4
				c0.3-0.2,0.9-0.4,0.5-0.9c-0.3-0.3-0.6-1-1.3-0.3c-0.4,0.4-0.9,0.7-1.4,1c-0.3,0.1-0.6,0.3-0.9,0.2c-0.2-0.1-0.4-0.5-0.4-0.7
				c0-0.2,0.3-0.5,0.5-0.6c0.5-0.4,1-0.7,1.5-1.1c0.2-0.1,0.2-0.4,0.3-0.6c-0.3,0-0.6-0.1-0.8-0.1C53.1,51.5,52.5,51.7,51.8,51.9z
				 M67.7,26.3c0.1,1.2,1.4,2.8,2.6,2.8c1.3,0.1,2.6,0,3.8-0.3c0.5-0.1,0.9-0.9,1.3-1.4c0-0.1-0.2-0.5-0.4-0.5c-0.3,0-0.7,0-1,0.2
				c-0.6,0.3-0.9,0.2-1.3-0.4c0.3-0.1,0.5-0.2,0.7-0.4c0.2-0.2,0.3-0.5,0.3-0.7c-0.1-0.3-0.5-0.7-0.7-0.6c-0.9,0.1-1.8,0.4-2.8,0.4
				c-0.4,0-0.8-0.2-1.1-0.4c-0.4-0.2-0.7-0.7-1.1-0.9c-1.6-0.7-3.2-1-4.4-2.5c-0.5-0.7-1-0.6-1.8,0.3c0.8,0.5,1.5,1.1,2.2,1.6
				c0.7,0.5,1.8,0.9,2.1,1.6C66.5,25.7,67,26.1,67.7,26.3z M74,32.2c0.1-0.1,0.3-0.3,0.4-0.5c0.3-0.6,0.1-1.1-0.5-1.2
				c-1-0.3-2-0.6-3.1-0.9c-0.3-0.1-0.7,0.2-1.1,0.3c0.1,0.3,0.1,0.7,0.4,0.9c0.4,0.3,1,0.6,1.6,0.9c-0.5,0.1-0.8,0.2-1.1,0.4
				c-0.4,0.3-0.7,0.7-1,1c0.3,0.3,0.7,0.7,1.1,1c0.2,0.1,0.5,0.1,0.8,0.1c0.6,0,1.3-0.1,1.9-0.2c0.4-0.1,0.8-0.3,1-0.6
				C74.5,33.1,74.2,32.7,74,32.2z M64.9,20.1c0,0.1,0.1,0.2,0.1,0.3c0.9,1,3.8,0.7,4.5-0.5c0.1-0.2,0.1-0.4,0-0.6
				c-0.1-0.1-0.4-0.2-0.5-0.2c-1.3,0.4-2.6,1-4,0.8C65,20,64.9,20,64.9,20.1z"/>
			<path d="M51.8,51.9c0.7-0.2,1.3-0.4,2-0.5c0.3-0.1,0.5,0,0.8,0.1c-0.1,0.2-0.2,0.5-0.3,0.6c-0.5,0.4-1,0.7-1.5,1.1
				c-0.2,0.2-0.5,0.4-0.5,0.6c0,0.2,0.2,0.7,0.4,0.7c0.3,0.1,0.6,0,0.9-0.2c0.5-0.3,1-0.6,1.4-1c0.7-0.7,1,0,1.3,0.3
				c0.4,0.5-0.2,0.7-0.5,0.9c-0.7,0.5-1.4,0.9-2,1.4c1.5,1.6,1.4,2.6-0.2,2.9c-0.4,2.6-2.3,3.8-4.6,3.5c-0.3,0-0.5-0.4-0.8-0.5
				c-0.8-0.3-1.5-0.6-2.3-0.9c-0.2-0.1-0.3-0.2-0.5-0.3c0.1-0.2,0.3-0.4,0.4-0.5c0.2-0.1,0.4-0.1,0.6-0.1c1.6,0.3,2.8-0.7,3.9-1.6
				c0.3-0.3,0.5-0.8,0.6-1.2c0-0.2-0.6-0.4-1-0.6c-1.1-0.4-2.1-0.7-3.2-1.1c-0.8-0.2-1.7-0.4-2.5-0.6c-0.4-0.1-0.7-0.3-1.3-0.5
				c0.2,0.5,0.5,0.8,0.6,1.2c0.2,1,0.4,2.1,0.4,3.1c-0.1,2.6,0.9,3.5,3.3,4c1.2,0.2,2.5,0.3,3.8,0.1c0.7-0.1,1.4-0.8,2.1-1.1
				c0.8-0.4,1.7-0.6,2.6-0.9c0.1,0,0.3-0.1,0.4,0c0.3,0.3,0.6,0.6,0.9,0.9c-0.3,0.2-0.5,0.6-0.8,0.7c-0.7,0.3-1.5,0.5-2.4,0.8
				c0.3,0.2,0.5,0.3,0.6,0.4c1.7,0.6,2.4,1.5,2.4,3.3c0.1,1.9,1.1,3.4,2.2,4.8c0.2,0.2,0.2,0.5,0.3,0.7c-0.3,0-0.6,0.1-0.8-0.1
				c-0.4-0.3-0.9-0.6-1.2-1.1c-0.6-1.1-1-2.2-1.5-3.3c-0.4-0.9-0.7-1.8-1.2-2.6c-0.2-0.4-0.8-0.7-1.3-0.8c-1.6-0.2-3.2-0.3-4.7-0.4
				c-2.2-0.2-4.1-0.9-5.3-2.8c-0.3-0.5-0.4-1.3-0.4-2c0.1-1.7-0.5-3.3-1-4.9c0-0.1-0.1-0.2-0.1-0.3c-1.9-2.4-2.6-5.4-4.3-7.9
				c-1.7-2.5-1.4-5.2,0-7.9c0.2-0.4,0.3-0.9,0.4-1.3c0.1-0.8,0.2-1.6,0.2-2.4c0-0.2-0.1-0.5-0.2-0.6C37,33.8,37,33.2,37,32.6
				c0-0.5,0.1-1.1-0.1-1.6c-0.4-0.9-0.1-1.6,0.5-2.3c1-1.3,1.6-2.7,1.8-4.3c0.3-2.2,1-4.2,2.7-5.8c0.9-0.8,1.4-1.9,2.1-2.9
				c0.4-0.6,0.8-1.2,1.2-1.8c0,0,0.1-0.1,0.1-0.2c-0.4-2.2,1.5-2.7,2.6-3.8c0.9-0.9,1.9-1.8,2.9-2.7c0.5-0.4,1.1-0.9,1.8-0.5
				c0.2,0.1,0.5,0.1,0.6,0c0.8-0.5,1.4-0.4,2.1,0.4c0.2-0.4,0.4-0.6,0.5-0.9c0.2-1.2,0.8-2,2.1-2.2C59.3,4,60.8,4,62.2,4
				c0.2,0,0.5,0.2,0.6,0.3c0.6,0.7,1.3,0.9,2.2,0.8c0.7,0,1.4,0.1,2.1,0.2c0.1,0,0.4,0.1,0.4,0c0.7-0.7,1.2-0.1,1.8,0.3
				c1.5,1.1,3.3,1.8,5.1,2.2c1.4,0.2,2.1,1,2.6,2.2c0.2,0.4,0.5,0.7,0.7,1c0.1,0.2,0.2,0.4,0.3,0.7c-0.2,0-0.5,0.1-0.7,0
				c-0.3-0.2-0.7-0.4-0.9-0.7c-0.9-1.5-2.3-2-3.8-2.4c-0.7-0.2-1.3-0.4-2-0.6C70.5,8,70.1,7.9,70,7.7c-0.8-1.4-2.2-1.1-3.4-1.2
				c-0.9-0.1-1.8,0-2.6,0.2c-0.9,0.2-1.2,0.1-1.2-0.8c0-0.2-0.2-0.5-0.4-0.6c-1.6-0.8-3.3-0.6-4.9,0c-0.5,0.2-0.6,0.6-0.3,1.1
				c0.1,0.2,0,0.7-0.2,0.9c-0.4,0.5-0.8,1-1.4,1.6c0.6,0.1,1.1,0.2,1.5,0.2c0.2,0.9,0.6,1.3,1.6,1.2c1.1-0.1,2.2-0.4,3.2-0.6
				c0.3-0.1,0.7-0.4,0.8-0.6c0.2-0.5,0.2-0.9-0.5-1c-0.3-0.1-0.5-0.3-0.7-0.6c-0.3-0.4-0.6-0.7-1.2-0.3c-0.2,0.2-0.5,0.1-0.8,0.2
				c0-0.3-0.2-0.8-0.1-1c0.2-0.3,0.7-0.5,0.9-0.4c1.4,0.7,3,1,4.2,2.1c0.2,0.2,0.5,0.4,0.7,0.3c0.7-0.3,1.2-0.1,1.5,0.5
				c0.2,0.4,0,0.9,0,1.4c1.2-0.4,1.8,0.3,2.5,1.3c0.3,0.4,0.9,0.7,1.3,1c0,0,0.1,0,0.1,0c0.9,0.4,1.8,3.5,1.2,4.2
				c-0.2,0.2-0.7,0.2-1,0.1c-0.2-0.1-0.3-0.4-0.4-0.7c-0.4-1-1.1-1.4-2.2-1.3c-0.3,0-0.5-0.1-0.8-0.2c0.1-0.3,0.2-0.5,0.3-0.9
				c-0.4-0.7-1.1-0.5-1.8-0.3c-0.5,0.1-0.7,0.1-1-0.4c-0.5-1.1-1.5-0.5-2.3-0.6c-0.5-0.1-1-0.1-1.5-0.2c-0.4,0-0.8-0.1-1.1-0.1
				c-0.9,0.1-1.7,0-2.4-0.7c-0.4-0.4-1.1-0.4-1.7-0.6C55.9,12,55,12.5,54,12.1c-0.5-0.2-0.9-0.2-1.5,0.1c-0.5,0.3-1.2,0.3-2,0.5
				c0,0.7-0.7,0.6-1.3,0.9c-1.1,0.4-2.2,1.1-3.1,1.9c-1.4,1.2-2.9,2.3-3.9,4c-1.1,2.1-2.3,4.1-2.3,6.5c0,0.4,0,0.8,0,1.3
				c0,0.5,0.2,0.7,0.7,0.9c0.4,0.1,0.8,0.3,1.1,0.6c0.9,0.7,1.7,1.4,2.5,2.1c0.5,0.4,0.4,1,0,1.4c-0.5,0.7-0.9,1.5-1.6,1.9
				c-0.7,0.4-1.6,0.4-2.5,0.4c-0.9,0-1.7,0.6-1.8,1.5c0.8-0.6,1.5-1.2,2.6-1c0,0.6-0.8,2.1-1.3,2.3c-0.2,0.1-0.5-0.2-0.8-0.3
				c-1.2,2.4-2.3,4.9-1.4,7.8c0.1,0.4,0.4,0.8,0.7,1.2c0.5-1.4,0.9-2.5,1.2-3.6c0.1-0.3-0.1-0.7-0.2-1c-0.1-0.3-0.3-0.6-0.4-0.9
				c0-0.2,0.1-0.4,0.2-0.5c0.1-0.1,0.4,0,0.5,0.1c0.5,0.7,1.1,0.5,1.8,0.5c-0.5-1.1,0.7-1.3,1-2c0.1-0.2,0.2-0.6,0-0.7
				c-0.6-0.5-0.3-0.9,0-1.4c0.6-0.9,1-1.9,1.7-2.7c0.6-0.8,1-1.7,2.1-2.1c0.1-0.1,0.2-0.4,0.2-0.6c-0.1-0.5-0.4-1-0.4-1.5
				c0.1-0.9,0.9-1.7,0.6-2.7c1.1-0.7,1.9-2,3.5-1.7c0.4,0.1,0.8-0.1,1.2-0.3c0.7-0.4,1.3-0.8,2-1.2c-0.6-0.7-1.2-1.5-2-2.2
				c-0.3-0.3-0.9-0.3-1.4-0.3c-0.3,0-0.6,0.1-1.2,0.2c1.3-1.7,2.6-2.7,4.5-2.9c0.5-0.1,1.3-0.1,1.4-0.3c0.3-0.9,1.3-1.5,1-2.7
				c-0.2-0.8-0.2-1.7-0.3-2.6c0.1,0,0.2-0.1,0.3-0.1c0.2,0.2,0.4,0.4,0.6,0.7c0.9,1.5,1.6,3.1,0.6,4.9c-0.2,0.3-0.4,0.7-0.4,1.1
				c0,0.3-0.1,0.9,0.2,1c0.7,0.5,0.5,1.1,0.7,1.8c0.3,0.9,1.1,1.6,1.8,2.2c0.7,0.6,1.5,0.9,2.3,1.4c0.3,0.2,0.4,0.6,0.5,0.9
				c0,0.2-0.2,0.4-0.3,0.6c-0.3-0.1-0.5-0.3-0.9-0.5c-0.5,0.4-0.9,0.1-1.4-0.3c-0.8-0.8-1.7-1.2-2.9-0.8c-0.1,0-0.2,0-0.3,0
				c-2.4-0.7-3.7,0.9-5,2.4c-0.5,0.5-0.6,1.3-0.8,2c1.3-0.8,2.6-2,4.2-1.6c1.5,0.4,3.1,0.9,4.2,2.1c0,0.1,0,0.2-0.1,0.2
				c-0.4,0-0.8-0.1-1.2-0.1c0,0.1,0,0.2-0.1,0.3c0.7,0.2,1.3,0.4,2.1,0.6c-0.1,0.7,0.5,0.9,1.2,0.9c0.4,0,0.9-0.1,1.2,0.1
				c0.2,0.1,0.4,0.5,0.6,0.7c-0.3,0.1-0.6,0.2-0.8,0.2c-0.3,0-0.6-0.2-0.9-0.2c0,0.1-0.1,0.2-0.1,0.3c0.2,0.1,0.4,0.1,0.6,0.2
				c0.5,0.3,0.9,0.5,0.6,1.2c-0.2,0.6,0,1.3,0,2c0,0.3,0,0.8-0.3,1c-1.2,0.9-2.5,1.8-3.7,2.5c-0.5,0.3-0.6,0.6-0.3,1
				c1.6,1.8,2.2,3.9,1.8,6.2c-0.1,0.4,0,0.9-0.1,1.2c-0.1,0.3-0.5,0.6-0.7,0.8c-0.1-0.3-0.4-0.7-0.4-1c0-1.2,0.1-2.5,0-3.7
				c0-0.6-0.2-1.1-1.1-1.1c-0.3,0-0.7-0.4-1-0.8c-0.5-0.6-1.1-0.8-1.9-0.4c0.4,0.2,0.7,0.3,1,0.4c1.7,0.9,1.9,2.5,1.8,4.1
				c-0.1,1.3-1.2,1.9-2.3,2.4c-0.2,0.1-0.4,0.3-0.6,0.4c-0.5,0.4-1.1,0.7-1.6,1.1c-0.2,0.2-0.5,0.3-0.7,0.5
				C51.8,51.7,51.8,51.8,51.8,51.9z M50.3,32.3c-0.1,0-0.1-0.1-0.2-0.1c-0.2,0.4-0.4,1-0.8,1.1c-1.1,0.4-0.5,0.8-0.1,1.3
				c0.2,0.2,0.3,0.4,0.5,0.6c0.6,0.8,0.3,1.5-0.7,1.6c-0.3,0-0.7-0.1-1,0c-0.2,0-0.4,0.2-0.6,0.3c0.2,0.1,0.3,0.2,0.5,0.3
				c0.4,0.2,0.8,0.3,1.2,0.6c0.8,0.5,1.4,1.4,2.5,1.7c0.8,0.2,1.5,0.5,2.4,0.1c0.1-0.1,0.4,0,0.5,0c1.7,0.5,2.7-0.8,4.1-1.3
				c-0.4-0.3-0.6-0.5-0.9-0.8c0.5-0.4,0.9-0.7,1.4-1c0-0.1,0-0.2-0.1-0.3c-1.3,0.3-2.8,1.3-3.5-0.9c0.8-0.4,1.6-0.8,2.4-1.2
				c0-0.1,0-0.2,0-0.3c-0.5,0-1-0.2-1.4-0.1c-1.1,0.2-2.2,0.5-3.3,0.6c-0.9,0.1-1.8,0.1-2.7-0.7c0.6-0.5,1-1,1.6-1.4
				c0.6-0.3,1.2-0.4,1.8-0.6c-1.7-0.6-2.6,0.6-4,1.5C50.2,32.9,50.3,32.6,50.3,32.3z M53.3,47.7c0-0.1,0-0.3,0-0.4
				c-0.3,0-0.7-0.1-1-0.1c-1,0-2,0-2.9,0c-2.3-0.1-4.5,0.4-6.7,1.2c-0.2,0.1-0.5,0.6-0.4,0.8c0.1,0.3,0.2,1,0.9,0.8
				c1.4-0.4,2.7-0.9,4.1-1.3c0.8-0.2,1.6-0.5,2.3-0.4C50.9,48.7,52,47.5,53.3,47.7z M45.7,45.3c-0.1-0.2-0.1-0.5-0.3-0.6
				c-1-0.6-1.9-1.3-3-1.5c-1.4-0.3-2.2,0.2-2.4,1.2c-0.1,0.4,0,0.9,0,1.3c0.1,0.7,0.6,1.1,1.2,0.9C42.7,46.2,44.1,45.7,45.7,45.3z
				 M44.5,52.2c1.1-0.8,2.3-1.6,3.6-2.5c-0.6,0-1.1,0.3-1.7,0.4c-1.3,0.3-2.5,0.7-3.8,0.8c-0.7,0.1-1.1,0.1-0.9,0.9
				c0.1,0.5,0.2,1.2,0.6,1.4c0.6,0.3,1.4,0.3,2.1,0.4C44.3,53.2,44.4,52.8,44.5,52.2z M50.2,9.8c0.1,0.2,0.1,0.2,0.1,0.3
				c1.4,1.1,1.3,1.1,2.4-0.4c0.1-0.1,0.6-0.1,0.8,0c0.4,0.2,0.7,0.5,1,0.7c0.3,0.1,0.7,0.1,1,0.1c0-0.1,0-0.2,0.1-0.3
				c-0.5-0.3-1.1-0.6-1.6-1c-0.5-0.3-0.6-0.6,0-0.9c0.1-0.1,0.3-0.1,0.4-0.1c-0.1-0.1-0.1-0.3-0.2-0.4C53.6,7.9,52.8,8,52,8.1
				c-0.1,0-0.1,0.3-0.2,0.4c-0.2,0.3-0.5,0.5-0.7,0.8C50.8,9.4,50.5,9.6,50.2,9.8z M43.1,32.3c-1.2-1-2.1-1.8-3.1-2.6
				c-0.1-0.1-0.3-0.1-0.5-0.1c-1.2,0.3-1.6,1.1-1.3,2.1c1,0.1,1.9,0.2,2.7,0.4c0.5,0.1,0.9,0.3,1.4,0.3
				C42.5,32.5,42.7,32.3,43.1,32.3z M42.9,40.1c0.5,0,0.9-0.1,1.4-0.1c0.6,0,1.2,0,1.8,0.1c0.6,0.2,1.1,0.6,1.7,0.7
				c0.2,0.1,0.6-0.2,0.8-0.3c-0.2-0.2-0.3-0.4-0.5-0.6c-0.4-0.3-0.8-0.6-1.2-0.9c-0.6-0.5-1-1.3-1.9-0.7c-0.8,0.5-1.5,1-2.2,1.5
				C42.9,39.9,42.9,39.9,42.9,40.1z M50.8,50c-0.6,0.2-1.2,0.4-1.8,0.7c-0.7,0.4-1.3,0.8-1.9,1.3C47,52,47.1,52.3,47,52.6
				c0.2,0,0.4,0.1,0.6,0c0.6-0.2,1.2-0.4,1.7-0.7C50,51.5,50.9,51.3,50.8,50z M59.5,33.6c0-0.1,0-0.3,0.1-0.4
				c-1.2-0.4-2.4-0.9-3.6-1.3c-0.6-0.2-0.6-0.2-0.6,0.3c1.2,0.6,2.3,1.1,3.4,1.6c0,0.1,0,0.1-0.1,0.2C58.9,33.9,59.2,33.7,59.5,33.6
				z M51.8,49.7c0.1,0.1,0.2,0.2,0.2,0.4c0.8-0.5,1.6-1,2.4-1.5c-0.1-0.1-0.1-0.2-0.2-0.3C53.4,48.7,52.6,49.2,51.8,49.7z"/>
			<path d="M67.7,26.3c-0.7-0.2-1.2-0.6-1.6-1.3c-0.4-0.7-1.4-1.1-2.1-1.6c-0.7-0.5-1.5-1-2.2-1.6c0.8-0.9,1.3-1,1.8-0.3
				c1.1,1.5,2.8,1.8,4.4,2.5c0.4,0.2,0.7,0.6,1.1,0.9c0.3,0.2,0.8,0.5,1.1,0.4c0.9-0.1,1.8-0.4,2.8-0.4c0.2,0,0.6,0.4,0.7,0.6
				c0.1,0.2-0.1,0.5-0.3,0.7c-0.1,0.2-0.4,0.2-0.7,0.4c0.3,0.5,0.7,0.7,1.3,0.4c0.3-0.2,0.7-0.2,1-0.2c0.2,0,0.5,0.5,0.4,0.5
				c-0.4,0.5-0.8,1.3-1.3,1.4c-1.2,0.3-2.5,0.4-3.8,0.3C69.1,29,67.8,27.5,67.7,26.3z M68.3,26.3c0.4,0.7,1.5,1,1.9,0.7
				c0.1-0.1,0.2-0.3,0.2-0.4c0-0.1-0.2-0.3-0.3-0.3C69.6,26.2,69,26.3,68.3,26.3z"/>
			<path d="M74,32.2c0.2,0.5,0.5,1,0.4,1.1c-0.2,0.3-0.6,0.5-1,0.6c-0.6,0.1-1.2,0.2-1.9,0.2c-0.3,0-0.6,0-0.8-0.1
				c-0.4-0.3-0.7-0.7-1.1-1c0.3-0.3,0.6-0.7,1-1c0.3-0.2,0.6-0.2,1.1-0.4c-0.7-0.3-1.2-0.6-1.6-0.9c-0.2-0.2-0.2-0.6-0.4-0.9
				c0.4-0.1,0.8-0.3,1.1-0.3c1,0.2,2,0.6,3.1,0.9c0.6,0.2,0.8,0.7,0.5,1.2C74.3,31.9,74.1,32.1,74,32.2z"/>
			<path d="M64.9,20.1C64.9,20,65,20,65,20c1.4,0.2,2.7-0.4,4-0.8c0.2,0,0.5,0,0.5,0.2c0.1,0.1,0.1,0.4,0,0.6
				c-0.7,1.2-3.6,1.5-4.5,0.5C64.9,20.3,64.9,20.2,64.9,20.1z"/>
			<path class="st0" d="M50.3,32.3c-0.1,0.3-0.1,0.6-0.2,1.1c1.4-0.9,2.3-2.2,4-1.5c-0.6,0.2-1.3,0.3-1.8,0.6
				c-0.6,0.3-1,0.8-1.6,1.4c0.8,0.8,1.8,0.7,2.7,0.7c1.1-0.1,2.2-0.5,3.3-0.6c0.5-0.1,1,0.1,1.4,0.1c0,0.1,0,0.2,0,0.3
				c-0.8,0.4-1.6,0.8-2.4,1.2c0.6,2.2,2.2,1.2,3.5,0.9c0,0.1,0,0.2,0.1,0.3c-0.4,0.3-0.9,0.6-1.4,1c0.3,0.3,0.6,0.5,0.9,0.8
				c-1.4,0.5-2.4,1.8-4.1,1.3c-0.2-0.1-0.4-0.1-0.5,0c-0.8,0.4-1.5,0.2-2.4-0.1c-1.1-0.3-1.6-1.2-2.5-1.7c-0.4-0.2-0.8-0.4-1.2-0.6
				c-0.2-0.1-0.4-0.2-0.5-0.3c0.2-0.1,0.4-0.3,0.6-0.3c0.3,0,0.7,0.1,1,0c1-0.1,1.3-0.8,0.7-1.6c-0.2-0.2-0.3-0.4-0.5-0.6
				c-0.4-0.5-1-0.9,0.1-1.3c0.3-0.1,0.5-0.7,0.8-1.1C50.2,32.3,50.3,32.3,50.3,32.3z"/>
			<path class="st0" d="M53.3,47.7c-1.4-0.2-2.4,1-3.9,0.6c-0.7-0.2-1.6,0.1-2.3,0.4c-1.4,0.4-2.7,0.9-4.1,1.3
				c-0.7,0.2-0.7-0.4-0.9-0.8c-0.1-0.2,0.2-0.7,0.4-0.8c2.2-0.8,4.4-1.4,6.7-1.2c1,0.1,2,0,2.9,0c0.3,0,0.7,0.1,1,0.1
				C53.3,47.4,53.3,47.5,53.3,47.7z"/>
			<path class="st0" d="M45.7,45.3c-1.5,0.5-3,1-4.4,1.4c-0.7,0.2-1.2-0.2-1.2-0.9c0-0.4-0.1-0.9,0-1.3c0.2-1,1.1-1.6,2.4-1.2
				c1.1,0.2,2,1,3,1.5C45.5,44.8,45.6,45.1,45.7,45.3z"/>
			<path class="st0" d="M44.5,52.2c-0.1,0.6-0.2,1-0.2,1.3c-0.7-0.1-1.5-0.1-2.1-0.4c-0.3-0.2-0.5-0.9-0.6-1.4
				c-0.2-0.8,0.2-0.8,0.9-0.9c1.3-0.1,2.5-0.5,3.8-0.8c0.6-0.1,1.1-0.4,1.7-0.4C46.8,50.5,45.6,51.4,44.5,52.2z"/>
			<path class="st0" d="M50.2,9.8c0.3-0.2,0.6-0.3,0.9-0.5c0.3-0.2,0.5-0.5,0.7-0.8c0.1-0.1,0.1-0.3,0.2-0.4
				c0.8-0.1,1.6-0.2,2.4-0.3c0.1,0.1,0.1,0.3,0.2,0.4c-0.1,0-0.3,0.1-0.4,0.1c-0.6,0.3-0.5,0.6,0,0.9c0.5,0.3,1,0.6,1.6,1
				c0,0.1,0,0.2-0.1,0.3c-0.3,0-0.7,0-1-0.1c-0.4-0.2-0.7-0.5-1-0.7c-0.2-0.1-0.7-0.2-0.8,0c-1.1,1.4-1.1,1.4-2.4,0.4
				C50.3,10,50.3,9.9,50.2,9.8z"/>
			<path class="st0" d="M43.1,32.3c-0.3,0.1-0.6,0.2-0.8,0.2c-0.5-0.1-0.9-0.2-1.4-0.3c-0.9-0.1-1.7-0.2-2.7-0.4
				c-0.3-1,0.1-1.9,1.3-2.1c0.2,0,0.4,0,0.5,0.1C40.9,30.5,41.9,31.3,43.1,32.3z"/>
			<path class="st0" d="M42.9,40.1c0-0.2,0-0.3,0-0.3c0.7-0.5,1.4-1.1,2.2-1.5c0.9-0.5,1.4,0.3,1.9,0.7c0.4,0.3,0.8,0.6,1.2,0.9
				c0.2,0.2,0.3,0.4,0.5,0.6c-0.3,0.1-0.6,0.4-0.8,0.3c-0.6-0.2-1.1-0.6-1.7-0.7C45.5,40,44.9,40,44.3,40
				C43.8,40,43.4,40.1,42.9,40.1z"/>
			<path class="st0" d="M50.8,50c0.1,1.3-0.8,1.5-1.5,1.9c-0.5,0.3-1.1,0.5-1.7,0.7c-0.2,0.1-0.4,0-0.6,0c0.1-0.2,0-0.5,0.2-0.6
				c0.6-0.5,1.2-0.9,1.9-1.3C49.6,50.4,50.2,50.2,50.8,50z"/>
			<path class="st0" d="M59.5,33.6c-0.3,0.1-0.5,0.3-0.8,0.4c0-0.1,0-0.1,0.1-0.2c-1.1-0.5-2.2-1-3.4-1.6c0-0.5,0-0.5,0.6-0.3
				c1.2,0.4,2.4,0.9,3.6,1.3C59.5,33.3,59.5,33.5,59.5,33.6z"/>
			<path class="st0" d="M51.8,49.7c0.8-0.5,1.6-1,2.4-1.4c0.1,0.1,0.1,0.2,0.2,0.3c-0.8,0.5-1.6,1-2.4,1.5
				C51.9,49.9,51.9,49.8,51.8,49.7z"/>
			<path class="st0" d="M68.3,26.3c0.7,0,1.3,0,1.9,0c0.1,0,0.3,0.2,0.3,0.3c0,0.2-0.1,0.3-0.2,0.4C69.8,27.3,68.7,26.9,68.3,26.3z"
				/>
		</g>
	</g>
</g>
<g>
	<path d="M6.5,13.9V20H5.3v-8.4H7l1.4,5v-5h1.2V20H8.1L6.5,13.9z"/>
	<path d="M14.7,20h-1.3l-0.2-1.5h-1.6L11.3,20h-1.2l1.3-8.4h1.9L14.7,20z M11.7,17.4H13l-0.6-4.2L11.7,17.4z"/>
	<path d="M15,11.6H19v1.2h-1.4V20h-1.3v-7.2H15V11.6z"/>
	<path d="M7,31.1l-0.4,0.8v2.6H5.3V26h1.3v3.7L8.4,26h1.3l-1.8,3.7l1.8,4.7H8.3L7,31.1z"/>
	<path d="M10.3,26h1.3v8.4h-1.3V26z"/>
	<path d="M13.7,28.3v6.1h-1.2V26h1.7l1.4,5v-5h1.2v8.4h-1.4L13.7,28.3z"/>
	<path d="M19.7,29.7h1.8v2.7c0,0.7-0.2,1.2-0.5,1.6c-0.3,0.4-0.8,0.5-1.5,0.5s-1.1-0.2-1.5-0.5c-0.3-0.4-0.5-0.9-0.5-1.6V28
		c0-0.7,0.2-1.2,0.5-1.6c0.3-0.4,0.8-0.5,1.5-0.5s1.1,0.2,1.5,0.5c0.3,0.4,0.5,0.9,0.5,1.6v0.8h-1.2V28c0-0.3-0.1-0.5-0.2-0.6
		s-0.3-0.2-0.5-0.2s-0.4,0.1-0.5,0.2s-0.2,0.3-0.2,0.6v4.5c0,0.3,0.1,0.5,0.2,0.6s0.3,0.2,0.5,0.2s0.4-0.1,0.5-0.2s0.2-0.3,0.2-0.6
		v-1.5h-0.6V29.7z"/>
	<path d="M9.1,45.7v1.1c0,0.7-0.2,1.2-0.5,1.6c-0.3,0.4-0.8,0.5-1.5,0.5S6,48.7,5.7,48.4c-0.3-0.4-0.5-0.9-0.5-1.6v-4.4
		c0-0.7,0.2-1.2,0.5-1.6c0.3-0.4,0.8-0.5,1.5-0.5s1.1,0.2,1.5,0.5c0.3,0.4,0.5,0.9,0.5,1.6v0.8H7.9v-0.9c0-0.3-0.1-0.5-0.2-0.6
		s-0.3-0.2-0.5-0.2s-0.4,0.1-0.5,0.2s-0.2,0.3-0.2,0.6v4.5c0,0.3,0.1,0.5,0.2,0.6s0.3,0.2,0.5,0.2s0.4-0.1,0.5-0.2s0.2-0.3,0.2-0.6
		v-1.2H9.1z"/>
	<path d="M9.8,42.4c0-0.7,0.2-1.2,0.5-1.6c0.3-0.4,0.8-0.5,1.5-0.5s1.1,0.2,1.5,0.5c0.3,0.4,0.5,0.9,0.5,1.6v4.4
		c0,0.7-0.2,1.2-0.5,1.6c-0.3,0.4-0.8,0.5-1.5,0.5s-1.1-0.2-1.5-0.5C10,48,9.8,47.5,9.8,46.8V42.4z M11.2,46.9
		c0,0.3,0.1,0.5,0.2,0.6s0.3,0.2,0.5,0.2s0.4-0.1,0.5-0.2s0.2-0.3,0.2-0.6v-4.5c0-0.3-0.1-0.5-0.2-0.6s-0.3-0.2-0.5-0.2
		s-0.4,0.1-0.5,0.2s-0.2,0.3-0.2,0.6V46.9z"/>
	<path d="M14.7,40.4H16v7.2h2.2v1.2h-3.5V40.4z"/>
	<path d="M20.1,44h1.8v1.2h-1.8v2.5h2.3v1.2h-3.6v-8.4h3.6v1.2h-2.3V44z"/>
</g>
<g>
	<path d="M9.5,57c0-0.9,0-1.8,0-2.3h0c-0.2,0.6-1.2,3-1.8,4.5H7.3c-0.5-1.2-1.5-3.8-1.7-4.5h0c0,0.6,0,1.7,0,2.5v2.1H5.3v-4.8h0.6
		c0.7,1.7,1.5,3.8,1.7,4.4h0c0.1-0.4,1.1-2.8,1.7-4.4h0.6v4.8H9.5V57z"/>
	<path d="M13.8,57.5c0,1-0.5,1.8-1.6,1.8c-0.9,0-1.5-0.8-1.5-1.8c0-1,0.5-1.8,1.5-1.8C13.2,55.7,13.8,56.4,13.8,57.5z M11.1,57.5
		c0,0.8,0.4,1.5,1.2,1.5c0.7,0,1.2-0.6,1.2-1.5c0-0.8-0.4-1.5-1.2-1.5C11.5,56,11.1,56.7,11.1,57.5z"/>
	<path d="M14.7,56.6c0-0.3,0-0.6,0-0.9H15c0,0.1,0,0.6,0,0.7c0.2-0.4,0.4-0.7,1.1-0.7c0.6,0,1.2,0.3,1.2,1.3v2.2H17V57
		c0-0.6-0.3-1-0.9-1c-0.8,0-1.1,0.7-1.1,1.4v1.8h-0.3V56.6z"/>
	<path d="M20.8,58.5c0,0.3,0,0.5,0,0.7h-0.3c0-0.1,0-0.2-0.1-0.5c-0.1,0.3-0.4,0.6-1.1,0.6c-0.8,0-1.1-0.5-1.1-1
		c0-0.8,0.6-1.1,1.6-1.1c0.3,0,0.5,0,0.7,0v-0.4c0-0.3-0.1-0.8-0.9-0.8c-0.7,0-0.8,0.4-0.9,0.6h-0.3c0-0.4,0.3-1,1.2-1
		c0.8,0,1.2,0.3,1.2,1.1V58.5z M20.4,57.4c-0.1,0-0.4,0-0.7,0c-0.8,0-1.2,0.2-1.2,0.8c0,0.4,0.3,0.7,0.8,0.7c1,0,1.1-0.7,1.1-1.4
		V57.4z"/>
	<path d="M23.8,54.4h0.4v4.5h2.6l-0.1,0.3h-2.9V54.4z"/>
	<path d="M27.6,54.1h0.3v0.7h-0.3V54.1z M27.6,55.8h0.3v3.4h-0.3V55.8z"/>
	<path d="M29,58.2c0.1,0.4,0.4,0.7,1,0.7c0.6,0,0.9-0.3,0.9-0.7c0-0.4-0.2-0.6-0.9-0.8c-0.9-0.2-1.1-0.5-1.1-0.9
		c0-0.5,0.4-0.9,1.1-0.9c0.8,0,1.1,0.5,1.2,1h-0.3c-0.1-0.3-0.3-0.6-0.9-0.6c-0.6,0-0.8,0.3-0.8,0.6c0,0.3,0.2,0.5,0.8,0.6
		c1,0.2,1.2,0.6,1.2,1.1c0,0.6-0.5,1-1.2,1c-0.8,0-1.2-0.4-1.3-1H29z"/>
	<path d="M34.4,58.5c0,0.3,0,0.5,0,0.7h-0.3c0-0.1,0-0.2-0.1-0.5c-0.1,0.3-0.4,0.6-1.1,0.6c-0.8,0-1.1-0.5-1.1-1
		c0-0.8,0.6-1.1,1.6-1.1c0.3,0,0.5,0,0.7,0v-0.4c0-0.3-0.1-0.8-0.9-0.8c-0.7,0-0.8,0.4-0.9,0.6H32c0-0.4,0.3-1,1.2-1
		c0.8,0,1.2,0.3,1.2,1.1V58.5z M34.1,57.4c-0.1,0-0.4,0-0.7,0c-0.8,0-1.2,0.2-1.2,0.8c0,0.4,0.3,0.7,0.8,0.7c1,0,1.1-0.7,1.1-1.4
		V57.4z"/>
</g>
</svg>
