<?xml version="1.0" encoding="utf-8"?>
<!-- Generator: Adobe Illustrator 24.0.3, SVG Export Plug-In . SVG Version: 6.00 Build 0)  -->
<svg version="1.1" id="BILL" xmlns="http://www.w3.org/2000/svg" xmlns:xlink="http://www.w3.org/1999/xlink" x="0px" y="0px"
	 viewBox="0 0 72 72" style="enable-background:new 0 0 72 72;" xml:space="preserve">
<style type="text/css">
	.st0{fill:#FFFFFF;}
</style>
<rect id="background" y="0" width="72" height="72"/>
<g id="BillHead">
	<path d="M16.2,21c0.2,0,0.5,0,0.7,0c3.2,0,6.3,0,9.5,0c2.6,0,5.2,0,7.8,0c2.3,0,4.6,0,6.9,0c1.5,0,3,0,4.6,0c0.6,0,1.3,0,1.8,0.3
		c0.1-0.1,0.2-0.2,0.2-0.2c0.1,0,0.2,0.1,0.2,0.2c0.2,0.4,0.5,0.9,1,1c0.2,0,0.5-0.1,0.7-0.2c0.3-0.1,0.6-0.2,0.8-0.3
		c0.3-0.2,0.8-0.1,0.8-0.7c1.3,0,2.5,0,3.8,0c0,4,0,7.9,0,11.9c-0.1,0.1-0.2,0.2-0.2,0.4c0,0.2,0,0.3,0,0.5
		c-0.3,0.6-0.3,1.1-0.3,1.8c0,0.3-0.1,0.7-0.2,1c-0.1,0.5-0.3,1-0.4,1.5c-0.1,0.7,0,1.4-0.1,2.1c0,0.3-0.3,0.6-0.4,0.9
		c-0.1,0.1-0.2,0.2-0.2,0.4c0,0.4,0,0.8,0,1.1c0.2,0.8,0.1,1.5-0.3,2.1c0,0.1,0,0.2,0,0.2c0,0.6-0.2,1.2-0.6,1.7
		c0.3,0.3,0.1,0.5-0.1,0.6c-0.3,0.2-0.3,0.4-0.3,0.7c0,0.4-0.2,0.6-0.6,0.5l0,0c0-0.2,0.1-0.3,0.1-0.5c0-0.1,0-0.2-0.1-0.3
		c-0.2-0.3-0.4-0.7-0.6-1c0,0,0-0.1,0-0.2c0.3-0.3,0.2-0.5,0-0.7c0.1-0.2,0.2-0.4,0.2-0.5c-0.4-0.5-0.2-1.1-0.4-1.7
		c0-0.1,0-0.3,0.1-0.4c0.1-0.2,0.3-0.4,0.4-0.6C51,42.3,51,42,51.1,41.7c0.1-0.3,0.3-0.7,0.4-1c0.1-0.3,0-0.7,0-1c0-0.4,0-0.9,0-1.3
		c0-0.3,0.1-0.5,0.2-0.8c0-0.1,0.1-0.3,0.1-0.4c-0.2-0.2,0-0.4,0.1-0.6c0.1-0.1,0.1-0.3,0.1-0.4c0-0.1,0-0.3,0-0.5
		c0-0.2,0.1-0.4,0.1-0.6c0-0.7-0.1-1.4-0.1-2.2c0-0.5,0.1-1-0.1-1.4c-0.4-1-0.7-2-1.4-2.9c-0.3-0.4-0.6-0.9-1-1.3
		c-0.1-0.1-0.3,0-0.4-0.1c-0.1,0-0.3-0.1-0.3-0.1c0-0.3-0.2-0.3-0.4-0.3c-0.2,0-0.5-0.1-0.7-0.1c-0.1,0.1-0.1,0.2-0.2,0.4
		c-0.1-0.2-0.2-0.4-0.3-0.5c-0.2-0.4-0.4-0.8-0.5-1.2c-0.1-0.4-0.3-0.6-0.5-0.9c-0.5-0.8-1.4-0.5-2.1-0.7c0,0-0.1,0-0.1,0
		c-0.5,0.3-0.6,0.2-0.7-0.3c0,0-0.1-0.1-0.2-0.1c-0.1,0.2-0.1,0.4-0.2,0.6c-0.1,0.3-0.2,0.7-0.4,1c-0.8,1.1-1.8,1.7-3,2.3
		c-0.2,0.1-0.5,0.2-0.7,0.2c-0.5,0.1-1,0.1-1.5,0.2c-0.1,0-0.3,0.1-0.4,0c-1.8-0.1-3.5-0.5-5.2-1.1c-0.4-0.1-0.8-0.3-1.1-0.2
		c-0.4,0.1-0.6,0-0.9-0.2c-0.2-0.1-0.4-0.2-0.6-0.3c-0.5-0.2-1-0.3-1.5-0.4c-1-0.3-1.7-1-2.5-1.6C25,23.8,25,23.7,25,23.5
		c0-0.1-0.1-0.3-0.1-0.4c0,0-0.1,0-0.1,0c-0.2,0.3-0.4,0.5-0.6,0.8c0.1,0.1,0.2,0.2,0.3,0.3c-0.3,0.1-0.7-0.4-0.8,0.2
		c-0.6,0-0.2,0.4-0.2,0.6c-0.3,0.1-0.5,0.2-0.7,0.4c0.1,0.1,0.2,0.2,0.2,0.4c-0.2,0-0.3,0-0.4,0c0,0,0,0.1-0.1,0.1
		c0.2,0.2,0.4,0.4,0.7,0.6c0.2,0.2,0.4,0.3,0.1,0.6c-0.3,0.3-0.3,0.6,0.1,0.8c0.3,0.2,0.5,0.3,0.8,0.5c0,0,0,0.1,0,0.1
		c-0.5,0-0.9,0-1.4,0c0,0.2,0.1,0.4,0.4,0.4c0.3,0,0.5,0.1,0.6,0.4c-0.3,0.1-0.5,0.3-0.7,0.4c0,0,0,0.1,0,0.1
		c0.3,0.1,0.7,0.1,1.1,0.2c-0.4,0.1-0.8,0.2-1.1,0.3c0,0.1,0,0.1,0,0.2c0.2,0.1,0.4,0.1,0.7,0.3c-0.2,0.1-0.3,0.2-0.4,0.2
		c-0.4,0-0.5,0.2-0.2,0.5c0.1,0.1,0.3,0.2,0.4,0.2c0.2,0.1,0.4,0.1,0.6,0.1c-0.2,0.2-0.4,0.3-0.5,0.5c-0.2,0.2-0.4,0.5-0.6,0.7
		c-0.4,0.3-0.3,0.4-0.1,0.8C23,33.8,23,34,23,34.3c0,0.2-0.2,0.3-0.4,0.1c-0.2-0.1-0.4-0.2-0.6-0.3c-0.1,0.2-0.2,0.4-0.3,0.7
		c-0.3-0.5-0.6-0.6-0.9-0.3c-0.1,0.1-0.3,0-0.4-0.1c-0.3-0.2-0.4-0.3-0.6,0.1c-0.2,0.3-0.4,0.3-0.7,0.2c-0.3-0.1-0.7-0.1-1-0.1
		c0,0-0.1,0.1-0.1,0.1c0,0.3-0.1,0.4-0.4,0.5c-0.1,0-0.1,0.1-0.2,0.2c-0.3,0.5-0.2,1.1-0.1,1.6c0.1,0.4,0.2,0.9,0.2,1.3
		c0,0.1,0,0.2,0.1,0.2c0.1,0.3,0.2,0.6,0.3,1c0,0.4,0,0.8,0.4,1c0,0,0.1,0.1,0.1,0.1c0.1,0.3,0.2,0.6,0.3,0.9c0,0.1,0.1,0.1,0.1,0.2
		c0.3,0.2,0.4,0.4,0.2,0.7c0,0.1,0.1,0.2,0.1,0.3c0.1,0.1,0.1,0.3,0.2,0.4c0.1,0,0.2,0,0.3-0.1c0,0.2-0.1,0.4,0,0.6
		c0.3,0.5,0.5,1,0.9,1.5c0.3,0.4,0.4,0.8,0.9,1c0.1,0,0.1,0.1,0.1,0.2c0.1,0.1,0.2,0.2,0.3,0.3c0.1,0.1,0.2,0.1,0.2,0.2
		c0.2,0.6,0.7,1,0.8,1.6c0.2,0.8,0.3,0.9-0.3,1.2c0.1,0.1,0.3,0.2,0.4,0.4c0,0-0.1,0.1-0.1,0.1c0.2,0.2,0.3,0.3,0.4,0.5
		c-0.2,0.1-0.3,0.2-0.5,0.3c0.4,0.1,0.5,0.3,0.4,0.7c0.1,0.1,0.2,0.2,0.4,0.3c-0.2,0.1-0.3,0.1-0.5,0.1c0,0,0,0.1,0,0.1
		c0.3,0.1,0.6,0.2,1,0.3c0-0.1,0.1-0.2,0.1-0.2c0,0,0,0,0.1,0c0,0.3,0,0.6-0.1,1c-0.1,0-0.2,0-0.3,0c0.3,0.6-0.3,0.6-0.5,0.7
		c-0.4,0.3-0.2-0.5-0.5-0.4c-0.2,0.1-0.3,0.2-0.5,0.4c0.1,0,0.2,0.1,0.3,0.1c-0.2,0.1-0.3,0.2-0.5,0.4c-0.1-0.2-0.2-0.4-0.3-0.5
		c0,0,0,0-0.1,0c0,0.3-0.1,0.5-0.1,0.8c-0.1,0-0.3-0.1-0.5-0.1c0,0.3,0.1,0.6,0.1,0.9c-0.3,0-0.5,0.1-0.8,0.1c0,0.4,0.1,0.7,0.1,1.2
		C20,57,20,57,20.5,57.2c0,0.2,0,0.5,0.1,0.7c0.2,0.4,0.2,0.8-0.2,1.1c0.7,0.3,0.9,1,1.1,1.6c0.1,0.2,0.1,0.5,0.1,0.7
		c0,0.2,0.1,0.3,0.2,0.4c-0.1,0.1-0.2,0.3-0.2,0.4c-0.1,0.2-0.3,0.5-0.3,0.6c0.1,0.2,0.4,0.3,0.6,0.4c0,0,0,0,0,0.1
		c-0.2,0.4-0.4,0.6-0.6,0.8c-0.1,0.1-0.2,0.2-0.2,0.2c0.1,0.3-0.1,0.4-0.5,0.5c0.2,0.2,0.4,0.3,0.6,0.5c0,0.1-0.1,0.2-0.2,0.4
		c0,0.1,0,0.3,0.1,0.4c0.5,0.3,0.7,0.7,0.9,1.2c0.1,0.3,0.3,0.5,0.5,0.7c0.3,0.1,0.4,0.3,0.5,0.6c0,0.3,0.3,0.4,0.6,0.3
		c0.2,0,0.5,0,0.5,0.2c0.2,0.3,0.4,0.2,0.6,0.2c0.2,0,0.5-0.1,0.5,0c0.2,0.3,0.5,0.3,0.7,0.2c0.3-0.1,0.6-0.2,0.9-0.1
		c0,0,0.1,0,0.2,0c0.7-0.3,1.2,0.5,1.8,0.4c0.1,0.3,0.4,0.3,0.6,0.5c0.3,0.3,0.5,0.1,0.6-0.1c0.5-0.7,1.1-1.3,1.4-2.2
		c0.1-0.4-0.1-0.7-0.4-0.9c-0.2-0.1-0.4-0.4-0.5-0.6c-0.2-0.7-0.7-1.2-1.5-1.1c-0.6,0-1.2,0-1.7,0c-0.6,0-1.2,0-1.6-0.6
		c-0.3-0.4-1-0.7-0.4-1.4c0,0,0-0.1,0-0.1c0.1-0.1,0.2-0.2,0.3-0.2c0.5-0.1,1-0.3,1.5,0.1c0,0,0,0,0.2-0.1c-0.1-0.2-0.2-0.3-0.3-0.4
		c-0.1-0.1-0.1-0.3-0.2-0.4c0.1,0,0.3-0.1,0.4,0c0.3,0.1,0.4,0,0.4-0.3c0-0.2,0.1-0.3,0.1-0.4c0.2,0.1,0.2,0.3,0.3,0.3
		c0.1,0.1,0.3,0.3,0.4,0.2c0.4-0.1,0.5,0.1,0.7,0.4c0.1,0.2,0.3,0.4,0.4,0.7c0.2,0.4,0.5,0.5,1,0.6c0.2,0,0.5,0.1,0.7,0.2
		c0.4,0.1,0.7,0.1,1.2,0.2c0-0.2,0-0.3-0.1-0.5c0,0,0.1,0.1,0.1,0.1c0.2-0.1,0.3-0.2,0.5-0.3c0.1-0.1,0.2-0.3,0.4-0.4
		c0.3-0.2,0.4-0.6,0.2-0.7c-0.3-0.1-0.6-0.3-0.9-0.3c-0.3-0.1-0.7,0.1-1,0c-0.9-0.2-1.7-0.6-2.5-0.8c-0.5-0.1-1-0.3-1.3,0
		c-0.2-0.1-0.4-0.3-0.6-0.3c-0.2-0.1-0.5-0.2-0.8-0.2c-0.8-0.2-1.5-0.4-2.3-0.6c-0.2-0.1-0.3-0.2-0.5-0.4c0-0.1,0.1-0.3,0.2-0.4
		c0.2-0.1,0.4-0.2,0.6-0.3c0.2-0.1,0.5-0.2,0.7-0.2c0.5-0.1,1.1,0,1.5-0.1c0.5-0.2,0.8,0,1.1,0.2c0.2,0.2,0.4,0.2,0.4,0
		c0.3,0,0.5,0,0.7,0.1c0.1,0,0.3,0.1,0.4,0.2c0.1,0.2,0.2,0.4,0.3,0.6c0.1,0.2,0.3,0.3,0.5,0.4c0.8,0.2,1.6,0.3,2.2,0.9
		c0.1,0.1,0.2,0.1,0.3,0.1c0.5-0.1,1-0.2,1.4-0.5c0.4-0.2,0.4-0.6,0-0.8c-0.2-0.1-0.5-0.2-0.7-0.2c-0.5,0-0.7-0.1-0.9-0.6
		c-0.1-0.4-0.2-0.7-0.3-1.1c-0.2-0.7-0.6-1.1-1.2-1.3c-0.3-0.1-0.6-0.2-0.8-0.4c-0.6-0.5-0.7-1.6-0.1-2.5c0.4-0.6,0.8-1.2,1.2-1.9
		c0.4-0.6,1.1-0.9,1.6-0.6c-0.2,0.3-0.4,0.6-0.5,0.9c-0.2,1.1,0.7,2.4,2.1,2.1c0.1,0,0.3-0.1,0.4,0c0.6,0.3,1.2,0.6,1.6,1.2
		c0.4,0.6,1.3,0.8,2,0.5c0.1,0,0.2,0,0.3,0c0.1,0,0.2,0,0.4,0C39,55.1,39,55,38.9,54.9c0.2,0,0.3-0.1,0.4,0c0.4,0.1,0.7,0,1-0.3
		c0.6-0.8,1.4-1.4,1.9-2.3c0.1-0.1,0.2-0.2,0.3-0.3c0,0,0.1,0.1,0.1,0.1c-0.3,0.5-0.6,1.1-1,1.6c-0.7,1-1.5,2-2.2,3
		c-1,1.4-2,2.9-3,4.3c-0.7,0.9-1.3,1.9-2.1,2.8c-1.2,1.2-2,2.6-2.6,4.2c-0.1,0.4-0.3,0.9-0.4,1.3c-0.1,0.8-0.6,1.3-1.1,2
		c-0.4,0.6-0.9,0.8-1.6,0.7c-9.6,0-19.2,0-28.8,0c-0.1,0-0.3,0-0.4,0c0-0.2,0-0.3,0-0.5c0-2.8,0-5.5,0-8.3c0-3.3,0-6.6,0-9.8
		c0-0.4,0.2-0.8,0.3-1.3c0.2-0.8,0.5-1.6,0.7-2.3c0.1-0.4,0.1-0.8,0.2-1.2C0.8,48,0.9,47.4,1.4,47c0.5-0.4,0.9-0.8,1.1-1.4
		c0.2-0.8,0.4-1.7,0.6-2.5c0.1-0.3,0-0.5-0.3-0.6c-0.1-0.1-0.3-0.3-0.3-0.4c-0.1-0.3-0.1-0.6-0.1-1c-0.2-1.7-0.2-3.5-0.8-5.2
		c-0.1-0.3-0.1-0.8,0-1.1c0.2-1.2,0.3-2.4,0.1-3.6c-0.2-1.5-0.3-3.1,0.1-4.6c0.1-0.3,0.2-0.7,0.3-1c0.3-1.1,0.5-2.2,0.8-3.3
		c0.1-0.4,0.2-0.8,0.4-1.2c-1.4,0-2.6,0-4,0 M4.9,39.5c0.4,0.2,0.5,0.5,0.5,0.9c0,0.3,0,0.5,0.1,0.7c0,0.1,0.3,0.2,0.4,0.1
		c0.2-0.2,0.3-0.1,0.5,0c0.2,0.2,0.4,0.2,0.4-0.1c0.1-0.7,0.1-1.5-0.5-2.1c-0.6-0.6-1-1.4-1-2.3c0-0.5,0-0.9,0-1.4
		c0-0.1-0.1-0.2-0.2-0.4c-0.1,0.1-0.2,0.2-0.3,0.3c-0.2,0.3-0.3,0.6-0.5,0.9C4.1,36.6,4,37,4.2,37.5c0.1,0.3,0.2,0.6,0.2,0.9
		c0,0.2,0.1,0.5,0,0.7c-0.3,0.4,0.1,0.7,0.2,1c0,0,0.1,0,0.1,0C4.8,39.9,4.8,39.7,4.9,39.5z M3.2,36.9c0.1,0,0.1,0,0.2,0
		c0.1-0.6,0.2-1.2,0.2-1.8c0-0.2-0.1-0.5-0.1-0.7c0.1-0.6,0.2-1.2,0.4-1.7c0.3-0.8,0.7-1.6,1.5-2.1c0.4-0.3,0.8-0.3,1.3-0.1
		c0.7,0.2,1.2,0.8,1.7,1.2c0.1,0.1,0.3,0.2,0.4,0c0.2-0.5,0.1-1.1-0.2-1.5c-0.4-0.7-1.1-1-1.9-0.9c-1.2,0.1-2,0.8-2.5,1.9
		C3.3,32.9,2.9,34.8,3.2,36.9z M34.5,58.6c0.1,0.2,0.2,0.4,0.3,0.6c0,0.1,0.2,0.2,0.3,0.1c0.3-0.3,0.6-0.1,0.9,0
		c0.3,0.1,0.5,0.1,0.7-0.2c0.2-0.3,0.4-0.7,0.6-1c0.3-0.6,0.3-1.3,0.9-1.7c0,0,0-0.1,0-0.3c-0.7,0.4-1.5,0.5-2.2,0.4
		c-0.1,0-0.2,0.1-0.3,0.2c-0.1,0.4-0.2,0.8-0.3,1.2c0,0.2,0,0.3-0.3,0.4C34.8,58.3,34.6,58.5,34.5,58.6z M38,24.1
		c0.2-0.1,0.4-0.1,0.5-0.2c0.1-0.2-0.3-0.6-0.5-0.6c-0.5,0.1-1.1-0.2-1.6,0.2c0,0-0.1,0-0.1,0c-0.4-0.1-0.7-0.1-1.1-0.2
		c-0.2-0.1-0.3-0.2-0.5-0.4c-0.1-0.1-0.2-0.2-0.4-0.3c-0.2,0.4,0,0.6,0.3,0.7c0.1,0.1,0.3,0.1,0.4,0.2c0.4,0.4,0.8,0.7,1.4,0.7
		c0.4,0,0.8,0.2,1.2,0.2C38,24.5,38.2,24.3,38,24.1z M46.6,24.5c0.2,0.1,0.4,0.2,0.6,0.3c0.1,0,0.2-0.1,0.3-0.1
		c0-0.1-0.1-0.2-0.1-0.3c0.1-0.1,0.3-0.3,0.4-0.5c0,0-0.1-0.1-0.1-0.1C47.4,24.1,47,24.3,46.6,24.5z M13.4,26.3
		c-0.4-0.4-2-0.8-2.6-0.7C11.7,25.8,12.5,26,13.4,26.3z M14.5,24.1c-0.5-0.4-1-0.8-1.8-0.4C13.3,23.8,13.9,24,14.5,24.1z M48,25.7
		c0,0-0.1,0.1-0.1,0.1c0,0.4,0.4,0.4,0.6,0.7c0,0,0.2,0,0.3,0c0-0.1,0-0.2,0-0.3C48.5,26.1,48.2,25.9,48,25.7z M13,25.7
		c0,0,0,0.1,0,0.1c0.5-0.1,1,0.4,1.5-0.1C14,25.7,13.5,25.7,13,25.7z M11.1,26.6c0.4,0.4,1.2,0.5,1.4,0.2
		C12.1,26.7,11.6,26.6,11.1,26.6z M26.9,24.6c0.2,0.1,0.4,0.2,0.6,0.2c0.1,0,0.2-0.1,0.2-0.1c0-0.1-0.1-0.2-0.1-0.2
		C27.4,24.3,27.2,24.2,26.9,24.6z M11.7,24.2c0,0.1,0,0.1,0,0.2c0.6,0,1.1,0.1,1.7,0.1c0,0,0-0.1,0-0.1
		C12.8,24.3,12.2,24.3,11.7,24.2z M36.8,22.5c0,0,0-0.1,0-0.1c-0.6-0.1-1.3-0.2-1.9-0.3c0,0,0,0.1,0,0.1
		C35.5,22.3,36.1,22.4,36.8,22.5z M13.1,27.8c-0.2-0.3-0.7-0.5-0.9-0.3C12.5,27.6,12.8,27.7,13.1,27.8z M19.5,54c0,0.1,0,0.2,0,0.2
		c0.2,0,0.3,0.1,0.5,0.1c0-0.1,0-0.2,0-0.2C19.8,54.1,19.6,54.1,19.5,54z M14.4,25.4c-0.2-0.4-0.4-0.5-0.7-0.3
		C14,25.3,14.2,25.4,14.4,25.4z M13.2,26.6c0,0.1,0,0.1,0,0.2c0.3,0,0.6,0,0.9,0c0,0,0,0,0-0.1C13.8,26.7,13.5,26.7,13.2,26.6z"/>
	<path class="st0" d="M51.3,48.4c0.4,0,0.6-0.1,0.6-0.5c0-0.3,0-0.5,0.3-0.7c0.2-0.1,0.4-0.4,0.1-0.6c0.4-0.5,0.6-1,0.6-1.7
		c0-0.1,0-0.2,0-0.2c0.4-0.7,0.5-1.4,0.3-2.1c-0.1-0.4-0.1-0.8,0-1.1c0-0.1,0.1-0.2,0.2-0.4c0.1-0.3,0.4-0.6,0.4-0.9
		c0.1-0.7,0-1.4,0.1-2.1c0.1-0.5,0.2-1,0.4-1.5c0.1-0.3,0.2-0.7,0.2-1c0-0.6,0-1.2,0.3-1.8c0.1-0.1,0-0.3,0-0.5
		c0-0.1,0.1-0.2,0.2-0.4c0,12.1,0,24.2,0,36.4c-0.3-0.4-0.9-0.7-0.9-1.3c0-0.1-0.1-0.1-0.1-0.2c-0.3-0.2-0.3-0.5-0.3-0.8
		c0-0.3-0.1-0.6-0.3-0.7c-0.2-0.2-0.2-0.4-0.2-0.7c0-0.3,0.1-0.7-0.1-1c-0.2-0.3-0.2-0.7-0.2-1c0-0.2,0-0.4,0-0.6
		c-0.1-0.5-0.3-1-0.1-1.5c0.1-0.2,0-0.4,0-0.6c-0.1-0.5-0.2-1-0.2-1.5c0-0.5,0-1.1-0.1-1.6c-0.1-0.5-0.2-1.1-0.3-1.6
		c-0.1-0.5,0.2-1-0.1-1.6c-0.1-0.2,0.1-0.5-0.2-0.7c0,0,0-0.1,0-0.2c0-0.2,0-0.5-0.2-0.6c-0.3-0.3-0.2-0.5-0.1-0.8
		c0.1,0,0.2,0,0.5,0.1c-0.4-0.6-0.7-1.1-1.1-1.6c-0.1,0.1-0.1,0.1-0.1,0.1c0,0.1,0,0.2,0,0.3c0.1,0.6-0.2,0.8-0.7,0.6
		c0,0.2,0.1,0.3,0.1,0.5c-0.2,0.8-0.3,1.6-0.8,2.2c-0.1,0.1-0.1,0.3-0.2,0.4c-0.1,0.3-0.1,0.8-0.3,1c-0.4,0.5-0.5,1.2-0.7,1.7
		c-0.2,0.6-0.4,1.3-0.6,2c-0.1,0.5-0.3,1.1-0.4,1.7c0,0,0,0.1,0,0.2c0.1,0.3,0,0.5-0.1,0.7c-0.1,0.1-0.1,0.2-0.2,0.3
		c0,0.4,0,0.8-0.1,1.3c-0.1,0.6-0.2,1.2-0.2,1.8c0,0.3,0,0.5-0.1,0.8c-0.1,0.5,0,1.1-0.3,1.7C46.1,68.4,46,69,46,69.5
		c0.1,0.7-0.3,1.2-0.4,1.8c-0.1,0.5-0.2,0.6,0.4,0.6c2,0,4,0,5.9,0c1,0,2.1,0,3.1,0c0,0,0,0.1,0,0.1c-0.1,0-0.2,0-0.3,0
		c-18.5,0-36.9,0-55.4,0c0-17.1,0-34.3,0-51.4c0-0.1,0.1-0.2,0.1-0.4c0,0.3,0,0.5,0,0.8c1.3,0,2.6,0,4,0c-0.1,0.5-0.3,0.8-0.4,1.2
		c-0.3,1.1-0.5,2.2-0.8,3.3c-0.1,0.4-0.2,0.7-0.3,1c-0.4,1.5-0.3,3-0.1,4.6c0.1,1.2,0.1,2.4-0.1,3.6c-0.1,0.4-0.1,0.8,0,1.1
		c0.6,1.7,0.6,3.4,0.8,5.2c0,0.3,0,0.7,0.1,1c0,0.2,0.2,0.3,0.3,0.4c0.2,0.2,0.3,0.3,0.3,0.6c-0.2,0.8-0.4,1.7-0.6,2.5
		c-0.2,0.6-0.6,1-1.1,1.4c-0.5,0.4-0.7,1-0.8,1.5c-0.1,0.4-0.1,0.8-0.2,1.2c-0.2,0.8-0.5,1.6-0.7,2.3c-0.1,0.4-0.3,0.8-0.3,1.3
		c0,3.3,0,6.6,0,9.8c0,2.8,0,5.5,0,8.3c0,0.1,0,0.3,0,0.5c0.2,0,0.3,0,0.4,0c9.6,0,19.2,0,28.8,0c0.7,0,1.2-0.2,1.6-0.7
		c0.4-0.6,0.9-1.2,1.1-2c0.1-0.5,0.2-0.9,0.4-1.3c0.5-1.6,1.4-3,2.6-4.2c0.8-0.8,1.5-1.8,2.1-2.8c1-1.4,2-2.9,3-4.3
		c0.7-1,1.5-2,2.2-3c0.4-0.5,0.7-1.1,1-1.6c0,0-0.1-0.1-0.1-0.1c-0.1,0.1-0.2,0.2-0.3,0.3c-0.4,0.9-1.2,1.6-1.9,2.3
		c-0.2,0.3-0.6,0.4-1,0.3c-0.1,0-0.3,0-0.4,0c0.1,0.2,0.1,0.3,0.1,0.4c-0.1,0-0.3,0-0.4,0c-0.1,0-0.2,0-0.3,0
		c-0.7,0.3-1.5,0.1-2-0.5c-0.4-0.5-1-0.9-1.6-1.2c-0.1,0-0.3,0-0.4,0c-1.4,0.3-2.2-1-2.1-2.1c0.1-0.3,0.3-0.6,0.5-0.9
		c-0.5-0.3-1.2,0-1.6,0.6c-0.4,0.6-0.8,1.3-1.2,1.9c-0.5,0.8-0.5,2,0.1,2.5c0.2,0.2,0.5,0.3,0.8,0.4c0.7,0.2,1.1,0.6,1.2,1.3
		c0.1,0.4,0.2,0.7,0.3,1.1c0.1,0.5,0.3,0.6,0.9,0.6c0.2,0,0.5,0.1,0.7,0.2c0.4,0.2,0.4,0.6,0,0.8c-0.4,0.2-1,0.3-1.4,0.5
		c-0.1,0-0.2,0-0.3-0.1c-0.6-0.7-1.5-0.7-2.2-0.9c-0.2-0.1-0.4-0.2-0.5-0.4c-0.1-0.2-0.2-0.4-0.3-0.6c-0.1-0.1-0.3-0.2-0.4-0.2
		c-0.2-0.1-0.4-0.1-0.7-0.1c-0.1,0.2-0.2,0.2-0.4,0c-0.3-0.3-0.6-0.4-1.1-0.2c-0.5,0.2-1,0.1-1.5,0.1c-0.3,0-0.5,0.1-0.7,0.2
		c-0.2,0.1-0.4,0.2-0.6,0.3c-0.1,0.1-0.2,0.3-0.2,0.4c0.1,0.2,0.3,0.3,0.5,0.4c0.8,0.2,1.5,0.4,2.3,0.6c0.3,0.1,0.5,0.1,0.8,0.2
		c0.2,0.1,0.3,0.2,0.6,0.3c0.4-0.3,0.9-0.1,1.3,0c0.9,0.3,1.7,0.6,2.5,0.8c0.3,0.1,0.7,0,1,0c0.3,0,0.6,0.2,0.9,0.3
		c0.2,0.1,0.1,0.6-0.2,0.7c-0.2,0.1-0.2,0.3-0.4,0.4c-0.2,0.1-0.3,0.2-0.5,0.3c0,0-0.1-0.1-0.1-0.1c0,0.1,0,0.2,0.1,0.5
		c-0.4-0.1-0.8-0.1-1.2-0.2c-0.2,0-0.5-0.2-0.7-0.2c-0.4,0-0.8-0.2-1-0.6c-0.1-0.2-0.3-0.4-0.4-0.7c-0.2-0.3-0.3-0.4-0.7-0.4
		c-0.1,0-0.3-0.1-0.4-0.2c-0.1-0.1-0.1-0.2-0.3-0.3c0,0.1-0.1,0.3-0.1,0.4c0,0.3-0.1,0.3-0.4,0.3c-0.1,0-0.3,0-0.4,0
		c0,0.1,0.1,0.3,0.2,0.4c0.1,0.2,0.2,0.3,0.3,0.4c-0.1,0.1-0.1,0.1-0.2,0.1c-0.5-0.4-1-0.1-1.5-0.1c-0.1,0-0.2,0.2-0.3,0.2
		c0,0,0,0.1,0,0.1c-0.6,0.7,0.1,0.9,0.4,1.4c0.4,0.6,1,0.5,1.6,0.6c0.6,0.1,1.1,0,1.7,0c0.8,0,1.3,0.4,1.5,1.1
		c0.1,0.2,0.3,0.5,0.5,0.6c0.3,0.2,0.5,0.6,0.4,0.9c-0.3,0.9-0.9,1.5-1.4,2.2c-0.2,0.2-0.3,0.4-0.6,0.1c-0.2-0.2-0.5-0.1-0.6-0.5
		c-0.6,0.1-1.1-0.7-1.8-0.4c-0.1,0-0.1,0.1-0.2,0c-0.3-0.2-0.6-0.1-0.9,0.1c-0.2,0.1-0.5,0.2-0.7-0.2c0-0.1-0.3,0-0.5,0
		c-0.2,0.1-0.4,0.2-0.6-0.2c-0.1-0.1-0.4-0.2-0.5-0.2c-0.3,0.1-0.6,0-0.6-0.3c0-0.3-0.2-0.5-0.5-0.6c-0.3-0.1-0.4-0.3-0.5-0.7
		c-0.2-0.5-0.4-0.9-0.9-1.2c-0.1,0-0.1-0.3-0.1-0.4c0-0.2,0.1-0.3,0.2-0.4c-0.2-0.2-0.3-0.3-0.6-0.5c0.4-0.1,0.6-0.2,0.5-0.5
		c0-0.1,0.1-0.2,0.2-0.2c0.3-0.2,0.4-0.4,0.6-0.8c0,0,0-0.1,0-0.1c-0.2-0.1-0.5-0.2-0.6-0.4c-0.1-0.1,0.2-0.4,0.3-0.6
		c0.1-0.2,0.2-0.3,0.2-0.4c-0.1-0.1-0.1-0.3-0.2-0.4c-0.1-0.2-0.1-0.5-0.1-0.7C21.2,60,21,59.3,20.3,59c0.5-0.3,0.4-0.7,0.2-1.1
		c-0.1-0.2-0.1-0.4-0.1-0.7C20,57,20,57,20.3,56.6c-0.1-0.4-0.1-0.8-0.1-1.2c0.3,0,0.5-0.1,0.8-0.1c0-0.3,0-0.6-0.1-0.9
		c0.2,0,0.3,0.1,0.5,0.1c0-0.3,0.1-0.6,0.1-0.8c0,0,0,0,0.1,0c0.1,0.2,0.2,0.3,0.3,0.5c0.2-0.1,0.3-0.2,0.5-0.4
		c-0.1,0-0.2-0.1-0.3-0.1c0.1-0.1,0.3-0.2,0.5-0.4c0.4-0.1,0.1,0.8,0.5,0.4c0.2-0.2,0.9-0.1,0.5-0.7c0.2,0,0.3,0,0.3,0
		c0-0.4,0-0.7,0.1-1c0,0,0,0-0.1,0c0,0.1-0.1,0.2-0.1,0.2c-0.3-0.1-0.7-0.2-1-0.3c0,0,0-0.1,0-0.1c0.1,0,0.2-0.1,0.5-0.1
		c-0.2-0.1-0.3-0.2-0.4-0.3c0.1-0.3,0-0.6-0.4-0.7c0.2-0.1,0.4-0.2,0.5-0.3c-0.1-0.1-0.3-0.3-0.4-0.5c0,0,0-0.1,0.1-0.1
		c-0.1-0.1-0.2-0.2-0.4-0.4c0.6-0.3,0.6-0.4,0.3-1.2c-0.2-0.6-0.6-1.1-0.8-1.6c0-0.1-0.2-0.1-0.2-0.2c-0.1-0.1-0.2-0.2-0.3-0.3
		c-0.1-0.1-0.1-0.2-0.1-0.2c-0.5-0.2-0.6-0.6-0.9-1c-0.3-0.5-0.6-1-0.9-1.5c-0.1-0.1,0-0.4,0-0.6c-0.1,0-0.2,0-0.3,0.1
		c-0.1-0.2-0.1-0.3-0.2-0.4c0-0.1-0.1-0.2-0.1-0.3c0.2-0.3,0.1-0.5-0.2-0.7c-0.1,0-0.1-0.1-0.1-0.2c-0.1-0.3-0.2-0.6-0.3-0.9
		c0,0,0-0.1-0.1-0.1c-0.4-0.3-0.4-0.6-0.4-1c0-0.3-0.2-0.7-0.3-1c0-0.1-0.1-0.2-0.1-0.2c0.1-0.5-0.1-0.9-0.2-1.3
		c-0.1-0.5-0.2-1.1,0.1-1.6c0-0.1,0.1-0.2,0.2-0.2c0.3-0.1,0.5-0.2,0.4-0.5c0,0,0.1-0.1,0.1-0.1c0.3,0,0.7,0,1,0.1
		c0.3,0.1,0.5,0.1,0.7-0.2c0.2-0.3,0.3-0.3,0.6-0.1c0.1,0.1,0.3,0.2,0.4,0.1c0.4-0.3,0.6-0.2,0.9,0.3c0.1-0.3,0.2-0.4,0.3-0.7
		c0.2,0.1,0.4,0.2,0.6,0.3c0.2,0.1,0.4,0.1,0.4-0.1c0-0.2,0-0.5-0.1-0.7c-0.3-0.4-0.3-0.5,0.1-0.8c0.2-0.2,0.4-0.4,0.6-0.7
		c0.1-0.1,0.3-0.3,0.5-0.5c-0.2,0-0.4,0-0.6-0.1c-0.2,0-0.3-0.1-0.4-0.2c-0.2-0.3-0.2-0.5,0.2-0.5c0.1,0,0.2-0.1,0.4-0.2
		c-0.3-0.1-0.5-0.2-0.7-0.3c0-0.1,0-0.1,0-0.2c0.4-0.1,0.7-0.2,1.1-0.3c-0.4-0.1-0.7-0.1-1.1-0.2c0,0,0-0.1,0-0.1
		c0.2-0.1,0.5-0.3,0.7-0.4c-0.2-0.3-0.3-0.5-0.6-0.4c-0.3,0-0.4-0.2-0.4-0.4c0.5,0,0.9,0,1.4,0c0,0,0-0.1,0-0.1
		c-0.3-0.2-0.5-0.3-0.8-0.5c-0.4-0.3-0.5-0.5-0.1-0.8c0.3-0.3,0.1-0.4-0.1-0.6c-0.2-0.2-0.4-0.4-0.7-0.6c0,0,0-0.1,0.1-0.1
		c0.1,0,0.2,0,0.4,0c-0.1-0.1-0.1-0.2-0.2-0.4c0.3-0.1,0.5-0.2,0.7-0.4c0-0.2-0.4-0.6,0.2-0.6c0.1-0.7,0.5-0.1,0.8-0.2
		c-0.1-0.1-0.2-0.2-0.3-0.3c0.2-0.3,0.4-0.5,0.6-0.8c0,0,0.1,0,0.1,0c0,0.1,0.1,0.3,0.1,0.4c0,0.1,0,0.3,0.1,0.3
		c0.8,0.6,1.5,1.3,2.5,1.6c0.5,0.1,1,0.3,1.5,0.4c0.2,0.1,0.4,0.2,0.6,0.3c0.3,0.2,0.5,0.3,0.9,0.2c0.4-0.1,0.8,0.1,1.1,0.2
		c1.7,0.6,3.4,1,5.2,1.1c0.1,0,0.3,0,0.4,0c0.5-0.1,1-0.1,1.5-0.2c0.2,0,0.5-0.1,0.7-0.2c1.1-0.6,2.2-1.2,3-2.3
		c0.2-0.3,0.2-0.6,0.4-1c0.1-0.2,0.1-0.4,0.2-0.6c0.1,0.1,0.2,0.1,0.2,0.1c0.1,0.5,0.2,0.6,0.7,0.3c0,0,0.1,0,0.1,0
		c0.7,0.3,1.6,0,2.1,0.7c0.2,0.3,0.4,0.5,0.5,0.9c0.1,0.4,0.3,0.8,0.5,1.2c0.1,0.2,0.2,0.3,0.3,0.5c0.1-0.1,0.1-0.3,0.2-0.4
		c0.2,0,0.5,0.1,0.7,0.1c0.2,0,0.4,0,0.4,0.3c0,0,0.2,0.1,0.3,0.1c0.1,0,0.4,0,0.4,0.1c0.4,0.4,0.7,0.8,1,1.3
		c0.7,0.8,0.9,1.9,1.4,2.9c0.2,0.4,0.1,1,0.1,1.4c0,0.7,0.1,1.4,0.1,2.2c0,0.2-0.1,0.4-0.1,0.6c0,0.2,0,0.3,0,0.5
		c0,0.1-0.1,0.3-0.1,0.4c-0.1,0.2-0.2,0.3-0.1,0.6c0,0.1,0,0.2-0.1,0.4c-0.1,0.3-0.1,0.5-0.2,0.8c0,0.4,0,0.9,0,1.3c0,0.3,0,0.7,0,1
		c-0.1,0.3-0.2,0.7-0.4,1C51,42,51,42.3,51.2,42.6c-0.1,0.2-0.3,0.4-0.4,0.6c-0.1,0.1-0.1,0.3-0.1,0.4c0.2,0.5-0.1,1.2,0.4,1.7
		c0,0.1-0.1,0.3-0.2,0.5c0.1,0.2,0.3,0.4,0,0.7c0,0-0.1,0.1,0,0.2c0.2,0.3,0.4,0.7,0.6,1c0,0.1,0.1,0.2,0.1,0.3
		C51.4,48.1,51.4,48.3,51.3,48.4c-0.1,0-0.2,0-0.2,0c-0.1,0-0.1,0.1-0.2,0.1c0.1,0.1,0.1,0.2,0.2,0.2c0.1,0,0.2,0,0.2-0.1
		C51.3,48.6,51.3,48.5,51.3,48.4z M32,43.4c0.6,0.3,1.2,0.7,1.8,0.7c0.5,0,0.9,0.2,1.3,0.3c0,0,0.1,0,0.1,0c0.4,0,0.7,0.2,0.7,0.7
		c0,0.1,0,0.2,0,0.4c0.5-0.2,0.7-0.6,0.8-1c0-0.2,0.1-0.5,0.3-0.6c0.6-0.4,1.2-0.7,1.8-1c0.5-0.2,0.7-0.6,0.4-1.1
		c-0.1-0.1-0.1-0.3-0.1-0.4c0-0.5-0.2-0.6-0.7-0.5c-0.2,0-0.4,0-0.6-0.1c-0.2-0.1-0.4-0.3-0.7-0.4c-0.7-0.3-1.4-0.5-2.1-0.7
		c-0.4-0.1-0.8-0.2-1.2-0.1c-0.4,0.1-0.7,0-1-0.2c-0.4-0.5-0.9-0.3-1.3-0.3c-0.3,0-0.4,0-0.4-0.3c0-0.3-0.1-0.4-0.4-0.3
		c-0.4,0-0.8-0.1-1.1-0.4c-0.1-0.1-0.3-0.2-0.5-0.2c0,0-0.1,0.1-0.1,0.1c0.1,0.2,0.3,0.4,0.4,0.6c0.2,0.2,0.1,0.4-0.2,0.4
		c-0.1,0-0.4,0-0.4-0.1c0-0.2,0-0.4,0-0.5c0,0,0.1-0.1,0.1-0.1c-0.3-0.1-0.6-0.2-0.9-0.3c-0.4-0.2-0.8-0.2-1.2-0.1
		c-0.1,0-0.2,0-0.4,0c-0.4-0.1-0.7-0.4-0.9-0.8c-0.1-0.2-0.2-0.4-0.3-0.6c-0.1,0.2-0.2,0.3-0.3,0.4c-0.1-0.1-0.1-0.1-0.2-0.2
		c-0.2-0.1-0.3-0.3-0.5-0.4c-0.5-0.1-1.2,0.5-1.3,1c-0.1,0.3-0.1,0.5-0.5,0.6c-0.2,0.1-0.4,0.5-0.6,0.8c0,0.1,0.1,0.3,0.2,0.4
		c0,0.1,0,0.2,0,0.3c0,0.1,0,0.3,0.1,0.3c0.5,0.2,0.8,0.6,1.1,1c0.1,0.2,0.5,0.4,0.7,0.6c0.4,0.3,0.9,0.7,1.5,0.6
		c0.1,0,0.3,0.1,0.3,0.2c0.2,0.4,0.3,0.8,0.5,1.2c0.1,0.3,0.3,0.7,0.5,1c0.3,0.3,0.8,0.6,1.2,0.8c0.1,0.1,0.2,0.1,0.3,0.1
		c0.4,0.1,0.7,0.1,1.1,0.2c0.2,0.1,0.4,0.1,0.7,0.2c0,0,0.1,0,0.1-0.1c-0.1-0.1-0.1-0.1-0.3-0.2c0.6-0.3,1.2-0.5,1.8-0.8
		c-0.2,0-0.3-0.1-0.4-0.1c-0.5,0-1,0-1.5-0.2c-0.9-0.3-1.6-0.8-2.2-1.4c-0.1-0.1,0-0.2-0.1-0.4c0.1,0,0.2,0,0.3,0.1
		c0.3,0.2,0.6,0.4,0.9,0.5c0.3-0.3,0.5-0.5,0.7-0.8c0.2-0.3,0.5-0.2,0.8-0.2c0.1,0,0.1,0.3,0.1,0.5c0,0.1,0,0.3,0.1,0.4
		C30.9,43.7,31.3,43.9,32,43.4C32,43.4,32,43.4,32,43.4z M43.3,46.4c0,0,0.1,0.1,0.1,0.1c0.2-0.1,0.6-0.2,0.7-0.4
		c0.4-0.5,0.6-1.5,1.7-0.8c0,0,0.1,0,0.2-0.1c0,0,0-0.1,0-0.2c-0.1-0.1-0.2-0.2-0.2-0.3c0-0.1,0-0.3,0-0.4c0.4-0.4,0.8-0.7,1.2-1.1
		c0.8-0.8,0.9-1.8,0.4-2.8c-0.5,0.4-1,0.9-1.7,0.6c0,0.4-0.2,0.5-0.5,0.4c-0.2,0-0.6,0-0.7,0.1c-0.2,0.3-0.5,0.4-0.8,0.3
		c-0.1,0-0.3,0-0.4,0c-0.5-0.1-1.2,0.2-1.4,0.7c-0.1,0.2-0.3,0.4-0.4,0.6c-0.4,0.6-0.7,1.1-1.1,1.7c-0.2,0.3,0,0.4,0.3,0.5
		c0.5,0.1,1.1,0.1,1.5,0.6c0-0.2,0.1-0.4,0.1-0.4c-0.2-0.3-0.2-0.6,0.2-0.7c0.1,0,0.3,0,0.5,0c0.4-0.2,0.7,0.2,0.8,0.4
		c0.1,0.2,0,0.6-0.1,0.9C43.4,46.2,43.3,46.3,43.3,46.4z M43.9,46.8c-0.3,0-0.6,0.1-0.9,0.1c-0.7,0-1.4-0.4-2.1-0.2c0,0-0.1,0-0.1,0
		c-0.1,0-0.3,0-0.3,0c0,0.1-0.1,0.3,0,0.4c0.1,0.2,0.4,0.3,0.5,0.5c0.3,0.5,0.7,0.8,1.2,1c0.1,0.1,0.3,0.1,0.4,0.1
		C43.3,48.5,43.9,47.6,43.9,46.8z M51.5,49.9c0,0-0.1,0-0.1,0c-0.2,0.1-0.5,0.1-0.4,0.4c0,0.1,0.3,0.2,0.4,0.3
		C51.4,50.4,51.5,50.1,51.5,49.9z"/>
	<path d="M55,71.9c-1,0-2.1,0-3.1,0c-2,0-4,0-5.9,0c-0.5,0-0.5-0.1-0.4-0.6c0.2-0.6,0.5-1.1,0.4-1.8c0-0.5,0.1-1.1,0.3-1.6
		c0.3-0.6,0.1-1.1,0.3-1.7c0.1-0.3,0.1-0.5,0.1-0.8c0.1-0.6,0.2-1.2,0.2-1.8c0-0.4,0.1-0.8,0.1-1.3c0-0.1,0.1-0.2,0.2-0.3
		c0.2-0.2,0.3-0.4,0.1-0.7c0,0,0-0.1,0-0.2c0.1-0.6,0.2-1.1,0.4-1.7c0.2-0.7,0.3-1.4,0.6-2c0.2-0.6,0.3-1.2,0.7-1.7
		c0.2-0.2,0.2-0.7,0.3-1c0-0.1,0.1-0.3,0.2-0.4c0.5-0.7,0.6-1.5,0.8-2.2c0-0.1,0-0.3-0.1-0.5c0.5,0.2,0.8-0.1,0.7-0.6
		c0-0.1,0-0.2,0-0.3c0,0,0,0,0.1-0.1c0.3,0.5,0.7,1,1.1,1.6c-0.2,0-0.4-0.1-0.5-0.1c-0.1,0.3-0.2,0.5,0.1,0.8
		c0.1,0.1,0.1,0.4,0.2,0.6c0,0.1,0,0.2,0,0.2c0.3,0.2,0.1,0.5,0.2,0.7c0.3,0.5,0,1.1,0.1,1.6c0.1,0.5,0.3,1.1,0.3,1.6
		c0.1,0.5,0,1.1,0.1,1.6c0,0.5,0.1,1,0.2,1.5c0,0.2,0.1,0.4,0,0.6c-0.1,0.5,0,1,0.1,1.5c0,0.2,0,0.4,0,0.6c0,0.3-0.1,0.7,0.2,1
		c0.2,0.2,0.1,0.7,0.1,1c0,0.3,0,0.5,0.2,0.7c0.2,0.2,0.2,0.5,0.3,0.7c0,0.3,0.1,0.6,0.3,0.8c0.1,0,0.1,0.1,0.1,0.2
		c0,0.6,0.6,0.9,0.9,1.3C55,70.1,55,71,55,71.9z"/>
	<path class="st0" d="M4.9,39.5c-0.1,0.2-0.1,0.4-0.2,0.6c0,0-0.1,0-0.1,0c-0.1-0.3-0.5-0.5-0.2-1c0.1-0.2,0-0.5,0-0.7
		c-0.1-0.3-0.1-0.6-0.2-0.9c-0.2-0.5,0-0.9,0.2-1.3c0.2-0.3,0.3-0.6,0.5-0.9C4.9,35.2,5,35.1,5.1,35c0.1,0.1,0.2,0.2,0.2,0.4
		c0,0.5,0,0.9,0,1.4c0,0.9,0.3,1.6,1,2.3c0.6,0.6,0.5,1.4,0.5,2.1c0,0.3-0.3,0.3-0.4,0.1c-0.2-0.1-0.3-0.2-0.5,0
		c-0.1,0-0.3-0.1-0.4-0.1c-0.1-0.2-0.1-0.5-0.1-0.7C5.4,40,5.3,39.7,4.9,39.5z"/>
	<path class="st0" d="M3.2,36.9c-0.3-2,0.1-4,1-5.8c0.5-1,1.3-1.8,2.5-1.9c0.8-0.1,1.5,0.3,1.9,0.9c0.2,0.4,0.4,1,0.2,1.5
		c-0.1,0.2-0.2,0.1-0.4,0c-0.5-0.4-1-1-1.7-1.2c-0.4-0.2-0.8-0.2-1.3,0.1c-0.8,0.5-1.2,1.3-1.5,2.1c-0.2,0.5-0.3,1.1-0.4,1.7
		c0,0.2,0.1,0.5,0.1,0.7c0,0.6-0.1,1.2-0.2,1.8C3.3,36.9,3.3,36.9,3.2,36.9z"/>
	<path class="st0" d="M34.5,58.6c0.1-0.1,0.3-0.2,0.4-0.3c0.3,0,0.3-0.2,0.3-0.4c0.1-0.4,0.2-0.8,0.3-1.2c0-0.1,0.2-0.2,0.3-0.2
		c0.7,0.1,1.5,0,2.2-0.4c0,0.2,0,0.3,0,0.3c-0.5,0.5-0.6,1.2-0.9,1.7c-0.2,0.3-0.4,0.7-0.6,1c-0.2,0.2-0.4,0.3-0.7,0.2
		c-0.3-0.1-0.6-0.3-0.9,0c0,0-0.2-0.1-0.3-0.1C34.7,59,34.6,58.8,34.5,58.6z"/>
	<path class="st0" d="M38,24.1c0.2,0.3-0.1,0.4-0.4,0.4c-0.4,0-0.8-0.2-1.2-0.2c-0.6,0-1-0.3-1.4-0.7c-0.1-0.1-0.2-0.1-0.4-0.2
		c-0.3-0.1-0.5-0.3-0.3-0.7c0.1,0.1,0.3,0.2,0.4,0.3c0.2,0.1,0.3,0.3,0.5,0.4c0.3,0.1,0.7,0.2,1.1,0.2c0,0,0.1,0,0.1,0
		c0.5-0.4,1.1-0.1,1.6-0.2c0.3-0.1,0.6,0.3,0.5,0.6C38.5,24,38.2,24,38,24.1z"/>
	<path class="st0" d="M46.6,24.5c0.4-0.2,0.8-0.4,1.2-0.7c0,0,0.1,0.1,0.1,0.1c-0.1,0.2-0.3,0.3-0.4,0.5c0,0.1,0.1,0.2,0.1,0.3
		c-0.1,0-0.3,0.1-0.3,0.1C47,24.8,46.9,24.7,46.6,24.5z"/>
	<path class="st0" d="M13.4,26.3c-0.9-0.2-1.7-0.5-2.6-0.7C11.4,25.5,12.9,25.9,13.4,26.3z"/>
	<path class="st0" d="M14.5,24.1c-0.6-0.1-1.2-0.3-1.8-0.4C13.4,23.3,13.9,23.7,14.5,24.1z"/>
	<path class="st0" d="M48,25.7c0.2,0.2,0.5,0.3,0.7,0.5c0.1,0,0,0.2,0,0.3c-0.1,0-0.2,0-0.3,0c-0.2-0.2-0.6-0.3-0.6-0.7
		C47.9,25.8,47.9,25.8,48,25.7z"/>
	<path class="st0" d="M13,25.7c0.5,0,1,0,1.5,0c-0.5,0.5-1,0-1.5,0.1C13,25.8,13,25.8,13,25.7z"/>
	<path class="st0" d="M11.1,26.6c0.5,0.1,0.9,0.2,1.4,0.2C12.3,27.1,11.5,26.9,11.1,26.6z"/>
	<path class="st0" d="M26.9,24.6c0.3-0.4,0.5-0.3,0.8-0.1c0.1,0,0.1,0.2,0.1,0.2c-0.1,0-0.2,0.1-0.2,0.1
		C27.3,24.7,27.1,24.7,26.9,24.6z"/>
	<path class="st0" d="M11.7,24.2c0.6,0.1,1.1,0.1,1.7,0.2c0,0,0,0.1,0,0.1c-0.6,0-1.1-0.1-1.7-0.1C11.7,24.3,11.7,24.2,11.7,24.2z"
		/>
	<path class="st0" d="M36.8,22.5c-0.6-0.1-1.3-0.2-1.9-0.2c0,0,0-0.1,0-0.1c0.6,0.1,1.3,0.2,1.9,0.3C36.8,22.4,36.8,22.4,36.8,22.5z
		"/>
	<path class="st0" d="M13.1,27.8c-0.3-0.1-0.6-0.2-0.9-0.3C12.4,27.3,12.9,27.5,13.1,27.8z"/>
	<path class="st0" d="M19.5,54c0.2,0,0.3,0.1,0.5,0.1c0,0,0,0.1,0,0.2c-0.2,0-0.3-0.1-0.5-0.1C19.4,54.2,19.4,54.1,19.5,54z"/>
	<path class="st0" d="M14.4,25.4c-0.2-0.1-0.4-0.2-0.7-0.3C14.1,25,14.2,25,14.4,25.4z"/>
	<path class="st0" d="M13.2,26.6c0.3,0,0.6,0.1,0.9,0.1c0,0,0,0,0,0.1c-0.3,0-0.6,0-0.9,0C13.2,26.8,13.2,26.7,13.2,26.6z"/>
	<path d="M32,43.4C32,43.4,32,43.4,32,43.4c-0.7,0.5-1.1,0.3-1.2-0.4c0-0.1,0-0.3-0.1-0.4c0-0.2-0.1-0.5-0.1-0.5
		c-0.3,0-0.6-0.1-0.8,0.2c-0.2,0.3-0.5,0.5-0.7,0.8c-0.3-0.2-0.6-0.3-0.9-0.5c-0.1,0-0.2,0-0.3-0.1c0,0.1,0,0.3,0.1,0.4
		c0.6,0.7,1.3,1.1,2.2,1.4c0.5,0.2,1,0.2,1.5,0.2c0.1,0,0.2,0.1,0.4,0.1c-0.6,0.3-1.2,0.5-1.8,0.8c0.1,0.1,0.2,0.1,0.3,0.2
		c0,0-0.1,0.1-0.1,0.1c-0.2-0.1-0.4-0.1-0.7-0.2c-0.4-0.1-0.7-0.1-1.1-0.2c-0.1,0-0.2-0.1-0.3-0.1c-0.4-0.3-0.8-0.5-1.2-0.8
		c-0.2-0.2-0.4-0.6-0.5-1c-0.2-0.4-0.3-0.8-0.5-1.2c0-0.1-0.2-0.2-0.3-0.2c-0.6,0.1-1-0.3-1.5-0.6c-0.2-0.2-0.6-0.3-0.7-0.6
		c-0.3-0.5-0.6-0.8-1.1-1c-0.1,0-0.1-0.2-0.1-0.3c0-0.1,0-0.2,0-0.3c0-0.1-0.2-0.3-0.2-0.4c0.1-0.3,0.3-0.7,0.6-0.8
		c0.4-0.1,0.4-0.4,0.5-0.6c0.1-0.5,0.8-1,1.3-1c0.2,0,0.3,0.2,0.5,0.4c0.1,0,0.1,0.1,0.2,0.2c0.1-0.1,0.2-0.2,0.3-0.4
		c0.1,0.2,0.2,0.4,0.3,0.6c0.2,0.4,0.5,0.7,0.9,0.8c0.1,0,0.2,0,0.4,0c0.4-0.1,0.8-0.1,1.2,0.1c0.3,0.1,0.6,0.2,0.9,0.3
		c0,0-0.1,0.1-0.1,0.1c0,0.2,0,0.4,0,0.5c0,0.1,0.3,0.1,0.4,0.1c0.2-0.1,0.4-0.2,0.2-0.4c-0.2-0.2-0.3-0.4-0.4-0.6
		c0,0,0.1-0.1,0.1-0.1c0.2,0.1,0.4,0.1,0.5,0.2c0.3,0.3,0.7,0.4,1.1,0.4c0.3,0,0.4,0.1,0.4,0.3c0,0.3,0.1,0.3,0.4,0.3
		c0.5-0.1,0.9-0.2,1.3,0.3c0.2,0.3,0.6,0.3,1,0.2c0.4-0.1,0.8,0,1.2,0.1c0.7,0.2,1.4,0.5,2.1,0.7c0.2,0.1,0.4,0.3,0.7,0.4
		c0.2,0.1,0.4,0.2,0.6,0.1c0.5-0.1,0.6,0.1,0.7,0.5c0,0.1,0,0.3,0.1,0.4c0.3,0.5,0.1,0.9-0.4,1.1c-0.6,0.3-1.2,0.6-1.8,1
		c-0.2,0.1-0.2,0.4-0.3,0.6c-0.1,0.5-0.3,0.8-0.8,1c0-0.1,0-0.3,0-0.4c0-0.4-0.3-0.6-0.7-0.7c0,0-0.1,0-0.1,0
		c-0.4-0.1-0.8-0.4-1.3-0.3C33.2,44.1,32.6,43.7,32,43.4z M33.5,41.6c0,0,0-0.1,0-0.1c-0.4-0.3-0.8-0.5-1.2-0.8
		c-0.4-0.4-0.9-0.3-1.4-0.4c-0.4-0.1-0.9,0-1.4,0.1c-0.1,0-0.2,0.1-0.2,0.1c0,0.1,0,0.2,0.1,0.2c0.1,0.1,0.3,0.2,0.5,0.2
		c0.3,0.1,0.7,0.2,1,0.3c0.8,0.2,1.6,0.4,2.4,0.5C33.4,41.7,33.5,41.6,33.5,41.6z"/>
	<path d="M43.3,46.4c0.1-0.1,0.2-0.2,0.2-0.3c0.1-0.3,0.2-0.6,0.1-0.9c-0.1-0.2-0.4-0.6-0.8-0.4c-0.1,0.1-0.3,0-0.5,0
		c-0.4,0.1-0.5,0.3-0.2,0.7c0.1,0.1,0,0.2-0.1,0.4c-0.4-0.5-1-0.6-1.5-0.6c-0.4-0.1-0.5-0.2-0.3-0.5c0.3-0.6,0.7-1.1,1.1-1.7
		c0.1-0.2,0.3-0.4,0.4-0.6c0.3-0.5,0.9-0.8,1.4-0.7c0.1,0,0.3,0,0.4,0c0.3,0.1,0.6,0,0.8-0.3c0.1-0.1,0.5-0.1,0.7-0.1
		c0.3,0,0.5,0,0.5-0.4c0.8,0.3,1.2-0.2,1.7-0.6c0.6,1.1,0.4,2-0.4,2.8c-0.4,0.4-0.8,0.7-1.2,1.1c-0.1,0.1-0.1,0.3,0,0.4
		c0,0.1,0.2,0.2,0.2,0.3c0,0,0,0.1,0,0.2c0,0-0.1,0.1-0.2,0.1c-1-0.6-1.2,0.3-1.7,0.8c-0.2,0.2-0.5,0.3-0.7,0.4
		C43.3,46.5,43.3,46.4,43.3,46.4z"/>
	<path d="M43.9,46.8c0,0.9-0.6,1.7-1.4,1.9c-0.1,0-0.3-0.1-0.4-0.1c-0.5-0.2-0.9-0.5-1.2-1c-0.1-0.2-0.3-0.3-0.5-0.5
		c-0.1-0.1-0.1-0.3,0-0.4c0-0.1,0.2,0,0.3,0c0,0,0.1,0,0.1,0c0.7-0.2,1.4,0.2,2.1,0.2C43.3,46.9,43.6,46.8,43.9,46.8z"/>
	<path d="M51.5,49.9c0,0.2-0.1,0.4-0.1,0.6c-0.1-0.1-0.4-0.1-0.4-0.3c-0.1-0.4,0.2-0.3,0.4-0.4C51.4,49.9,51.5,49.9,51.5,49.9z"/>
	<path d="M51.3,48.4c0,0.1,0,0.2-0.1,0.3c0,0.1-0.2,0.1-0.2,0.1c-0.1,0-0.1-0.1-0.2-0.2c0.1,0,0.1-0.1,0.2-0.1
		C51.2,48.4,51.3,48.4,51.3,48.4C51.3,48.4,51.3,48.4,51.3,48.4z"/>
	<path class="st0" d="M33.5,41.6c0,0-0.1,0-0.1,0c-0.8-0.2-1.6-0.3-2.4-0.5c-0.3-0.1-0.7-0.2-1-0.3c-0.2,0-0.3-0.1-0.5-0.2
		c-0.1,0-0.1-0.2-0.1-0.2c0-0.1,0.1-0.1,0.2-0.1c0.5,0,0.9-0.1,1.4-0.1c0.5,0.1,1,0.1,1.4,0.4c0.4,0.3,0.8,0.6,1.2,0.8
		C33.5,41.5,33.5,41.6,33.5,41.6z"/>
</g>
<g>
	<path class="st0" d="M4.4,8.6c0,0,0-0.1,0-0.1c0,0,0-0.1,0-0.1c0-0.1,0-0.1,0-0.2c0-0.1,0-0.2,0-0.3v-1c0-0.3-0.1-0.5-0.2-0.6
		C4,6.1,3.9,6,3.7,6H3.3v2.6h-1V2.3h1.5c0.5,0,0.9,0.1,1.1,0.4c0.2,0.2,0.3,0.6,0.3,1.1v0.5c0,0.6-0.2,1.1-0.6,1.3
		C4.9,5.6,5.1,5.7,5.1,6s0.1,0.5,0.1,0.8v1c0,0.2,0,0.3,0,0.4c0,0.1,0,0.2,0.1,0.4H4.4z M3.3,3.2v1.9h0.4C3.9,5.1,4,5,4.1,5
		c0.1-0.1,0.2-0.3,0.2-0.5V3.8c0-0.2,0-0.4-0.1-0.5C4.1,3.2,4,3.2,3.8,3.2H3.3z"/>
	<path class="st0" d="M5.9,3.8c0-0.5,0.1-0.9,0.4-1.2c0.3-0.3,0.6-0.4,1.1-0.4s0.9,0.1,1.1,0.4c0.3,0.3,0.4,0.7,0.4,1.2V7
		c0,0.5-0.1,0.9-0.4,1.2C8.2,8.5,7.8,8.6,7.4,8.6S6.5,8.5,6.2,8.2C6,7.9,5.9,7.6,5.9,7V3.8z M6.8,7.1c0,0.2,0,0.4,0.1,0.5
		s0.2,0.1,0.4,0.1s0.3,0,0.4-0.1s0.1-0.3,0.1-0.5V3.7c0-0.2,0-0.4-0.1-0.5S7.5,3.1,7.4,3.1S7.1,3.1,7,3.2S6.8,3.5,6.8,3.7V7.1z"/>
	<path class="st0" d="M12.4,6.2V7c0,0.5-0.1,0.9-0.4,1.2c-0.2,0.3-0.6,0.4-1.1,0.4S10,8.5,9.8,8.2C9.5,7.9,9.4,7.6,9.4,7V3.8
		c0-0.5,0.1-0.9,0.4-1.2c0.2-0.3,0.6-0.4,1.1-0.4s0.9,0.1,1.1,0.4c0.2,0.3,0.4,0.7,0.4,1.2v0.6h-0.9V3.7c0-0.2,0-0.4-0.1-0.5
		s-0.2-0.1-0.4-0.1s-0.3,0-0.4,0.1s-0.1,0.3-0.1,0.5v3.4c0,0.2,0,0.4,0.1,0.5c0.1,0.1,0.2,0.1,0.4,0.1s0.3,0,0.4-0.1
		c0.1-0.1,0.1-0.2,0.1-0.5V6.2H12.4z"/>
	<path class="st0" d="M14.2,6l-0.3,0.6v1.9h-1V2.3h1V5l1.3-2.7h1l-1.4,2.8l1.4,3.5h-1L14.2,6z"/>
	<path class="st0" d="M21.3,8.6h-1l-0.2-1.1h-1.2l-0.2,1.1h-0.9l1-6.3h1.4L21.3,8.6z M19,6.6h1l-0.5-3.2L19,6.6z"/>
	<path class="st0" d="M23.8,8.6c0,0,0-0.1,0-0.1c0,0,0-0.1,0-0.1c0-0.1,0-0.1,0-0.2c0-0.1,0-0.2,0-0.3v-1c0-0.3-0.1-0.5-0.2-0.6
		C23.4,6.1,23.3,6,23,6h-0.3v2.6h-1V2.3h1.5c0.5,0,0.9,0.1,1.1,0.4c0.2,0.2,0.3,0.6,0.3,1.1v0.5c0,0.6-0.2,1.1-0.6,1.3
		c0.3,0.1,0.4,0.3,0.5,0.5s0.1,0.5,0.1,0.8v1c0,0.2,0,0.3,0,0.4c0,0.1,0,0.2,0.1,0.4H23.8z M22.7,3.2v1.9h0.4c0.2,0,0.3,0,0.4-0.1
		c0.1-0.1,0.2-0.3,0.2-0.5V3.8c0-0.2,0-0.4-0.1-0.5c-0.1-0.1-0.2-0.2-0.4-0.2H22.7z"/>
	<path class="st0" d="M25.2,3.8c0-0.5,0.1-0.9,0.4-1.2c0.3-0.3,0.6-0.4,1.1-0.4s0.9,0.1,1.1,0.4c0.3,0.3,0.4,0.7,0.4,1.2V7
		c0,0.5-0.1,0.9-0.4,1.2c-0.3,0.3-0.6,0.4-1.1,0.4s-0.9-0.1-1.1-0.4c-0.3-0.3-0.4-0.7-0.4-1.2V3.8z M26.2,7.1c0,0.2,0,0.4,0.1,0.5
		s0.2,0.1,0.4,0.1s0.3,0,0.4-0.1s0.1-0.3,0.1-0.5V3.7c0-0.2,0-0.4-0.1-0.5s-0.2-0.1-0.4-0.1s-0.3,0-0.4,0.1s-0.1,0.3-0.1,0.5V7.1z"
		/>
	<path class="st0" d="M29.8,2.3v4.8c0,0.2,0,0.4,0.1,0.5s0.2,0.1,0.4,0.1c0.2,0,0.3,0,0.4-0.1c0.1-0.1,0.1-0.2,0.1-0.5V2.3h0.9v4.8
		c0,0.5-0.1,0.9-0.4,1.2c-0.2,0.3-0.6,0.4-1.1,0.4c-0.5,0-0.9-0.1-1.1-0.4C29,8,28.8,7.6,28.8,7.1V2.3H29.8z"/>
	<path class="st0" d="M33.3,4v4.6h-0.9V2.3h1.2l1,3.8V2.3h0.9v6.3h-1L33.3,4z"/>
	<path class="st0" d="M36.3,2.3h1.6c0.5,0,0.9,0.1,1.1,0.4c0.2,0.3,0.4,0.6,0.4,1.2V7c0,0.5-0.1,0.9-0.4,1.2
		c-0.2,0.3-0.6,0.4-1.1,0.4h-1.6V2.3z M37.3,3.2v4.5h0.6c0.2,0,0.3,0,0.4-0.1s0.1-0.2,0.1-0.5V3.8c0-0.2,0-0.4-0.1-0.5
		S38,3.2,37.8,3.2H37.3z"/>
	<path class="st0" d="M41.1,2.3h3.1v0.9h-1v5.4h-1V3.2h-1V2.3z"/>
	<path class="st0" d="M45.6,8.6h-1V2.3h1V5h1.1V2.3h1v6.3h-1V5.9h-1.1V8.6z"/>
	<path class="st0" d="M49.4,4.9h1.4v0.9h-1.4v1.8h1.7v0.9h-2.7V2.3h2.7v0.9h-1.7V4.9z"/>
	<path class="st0" d="M56,6.2V7c0,0.5-0.1,0.9-0.4,1.2c-0.2,0.3-0.6,0.4-1.1,0.4c-0.5,0-0.9-0.1-1.1-0.4C53.1,7.9,53,7.6,53,7V3.8
		c0-0.5,0.1-0.9,0.4-1.2c0.2-0.3,0.6-0.4,1.1-0.4c0.5,0,0.9,0.1,1.1,0.4C55.8,2.9,56,3.3,56,3.8v0.6H55V3.7c0-0.2,0-0.4-0.1-0.5
		c-0.1-0.1-0.2-0.1-0.4-0.1s-0.3,0-0.4,0.1C54,3.3,54,3.5,54,3.7v3.4c0,0.2,0,0.4,0.1,0.5c0.1,0.1,0.2,0.1,0.4,0.1s0.3,0,0.4-0.1
		C55,7.5,55,7.3,55,7.1V6.2H56z"/>
	<path class="st0" d="M56.6,2.3h1v5.4h1.6v0.9h-2.6V2.3z"/>
	<path class="st0" d="M59.5,3.8c0-0.5,0.1-0.9,0.4-1.2c0.3-0.3,0.6-0.4,1.1-0.4s0.9,0.1,1.1,0.4c0.3,0.3,0.4,0.7,0.4,1.2V7
		c0,0.5-0.1,0.9-0.4,1.2c-0.3,0.3-0.6,0.4-1.1,0.4s-0.9-0.1-1.1-0.4c-0.3-0.3-0.4-0.7-0.4-1.2V3.8z M60.5,7.1c0,0.2,0,0.4,0.1,0.5
		c0.1,0.1,0.2,0.1,0.4,0.1s0.3,0,0.4-0.1c0.1-0.1,0.1-0.3,0.1-0.5V3.7c0-0.2,0-0.4-0.1-0.5c-0.1-0.1-0.2-0.1-0.4-0.1s-0.3,0-0.4,0.1
		c-0.1,0.1-0.1,0.3-0.1,0.5V7.1z"/>
	<path class="st0" d="M66,6.2V7c0,0.5-0.1,0.9-0.4,1.2c-0.2,0.3-0.6,0.4-1.1,0.4c-0.5,0-0.9-0.1-1.1-0.4c-0.2-0.3-0.4-0.7-0.4-1.2
		V3.8c0-0.5,0.1-0.9,0.4-1.2c0.2-0.3,0.6-0.4,1.1-0.4c0.5,0,0.9,0.1,1.1,0.4C65.9,2.9,66,3.3,66,3.8v0.6h-0.9V3.7
		c0-0.2,0-0.4-0.1-0.5c-0.1-0.1-0.2-0.1-0.4-0.1s-0.3,0-0.4,0.1c-0.1,0.1-0.1,0.3-0.1,0.5v3.4c0,0.2,0,0.4,0.1,0.5
		c0.1,0.1,0.2,0.1,0.4,0.1s0.3,0,0.4-0.1c0.1-0.1,0.1-0.2,0.1-0.5V6.2H66z"/>
	<path class="st0" d="M67.9,6l-0.3,0.6v1.9h-1V2.3h1V5l1.3-2.7h1l-1.4,2.8l1.4,3.5h-1L67.9,6z"/>
</g>
<g>
	<path class="st0" d="M21.2,10.5c0-0.1,0.1-0.1,0.1-0.1h0h0.8c0.5,0,0.9,0.4,0.9,0.9c0,0.3-0.1,0.5-0.3,0.7c0.4,0.1,0.7,0.5,0.7,1
		c0,0.6-0.5,1-1,1h-1h0h0c-0.1,0-0.1-0.1-0.1-0.1V10.5z M22.1,11.9c0.4,0,0.6-0.3,0.6-0.6c0-0.4-0.3-0.6-0.6-0.6h-0.7v1.3H22.1z
		 M22.4,13.7c0.4,0,0.8-0.3,0.8-0.8c0-0.4-0.3-0.8-0.8-0.8h-0.9v1.5H22.4z"/>
	<path class="st0" d="M24.2,10.5c0-0.1,0.1-0.1,0.1-0.1c0.1,0,0.1,0.1,0.1,0.1v3.3c0,0.1-0.1,0.1-0.1,0.1c-0.1,0-0.1-0.1-0.1-0.1
		V10.5z"/>
	<path class="st0" d="M25.9,13.9L25.9,13.9c-0.1,0-0.1-0.1-0.1-0.1v-3.3c0-0.1,0.1-0.1,0.1-0.1c0.1,0,0.1,0.1,0.1,0.1v3.2h1.7
		c0.1,0,0.1,0.1,0.1,0.1c0,0.1-0.1,0.1-0.1,0.1H25.9z"/>
	<path class="st0" d="M28.7,13.9L28.7,13.9c-0.1,0-0.1-0.1-0.1-0.1v-3.3c0-0.1,0.1-0.1,0.1-0.1c0.1,0,0.1,0.1,0.1,0.1v3.2h1.7
		c0.1,0,0.1,0.1,0.1,0.1c0,0.1-0.1,0.1-0.1,0.1H28.7z"/>
	<path class="st0" d="M35.1,12.3h-1.8v1.5c0,0.1-0.1,0.1-0.1,0.1c-0.1,0-0.1-0.1-0.1-0.1v-3.3c0-0.1,0.1-0.1,0.1-0.1
		c0.1,0,0.1,0.1,0.1,0.1V12h1.8v-1.5c0-0.1,0.1-0.1,0.1-0.1c0.1,0,0.1,0.1,0.1,0.1v3.3c0,0.1-0.1,0.1-0.1,0.1
		c-0.1,0-0.1-0.1-0.1-0.1V12.3z"/>
	<path class="st0" d="M38.2,13h-1.6l-0.3,0.8c0,0.1-0.1,0.1-0.1,0.1c0,0,0,0,0,0c-0.1,0-0.1-0.1-0.1-0.2l1.2-3.3
		c0,0,0.1-0.1,0.1-0.1c0.1,0,0.1,0,0.1,0.1l1.2,3.3c0,0.1,0,0.1-0.1,0.2c0,0,0,0,0,0c0,0-0.1,0-0.1-0.1L38.2,13z M36.7,12.7h1.4
		l-0.7-1.9L36.7,12.7z"/>
	<path class="st0" d="M39.7,13.9L39.7,13.9c-0.1,0-0.1-0.1-0.1-0.1v-3.3c0-0.1,0.1-0.1,0.1-0.1c0.1,0,0.1,0.1,0.1,0.1v3.2h1.7
		c0.1,0,0.1,0.1,0.1,0.1c0,0.1-0.1,0.1-0.1,0.1H39.7z"/>
	<path class="st0" d="M42.4,10.5c0-0.1,0.1-0.1,0.1-0.1h0h1.8c0.1,0,0.1,0.1,0.1,0.1c0,0.1-0.1,0.1-0.1,0.1h-1.7V12h1.5
		c0.1,0,0.1,0.1,0.1,0.1c0,0.1-0.1,0.1-0.1,0.1h-1.5v1.4h1.7c0.1,0,0.1,0.1,0.1,0.1c0,0.1-0.1,0.1-0.1,0.1h-1.8h0h0
		c-0.1,0-0.1-0.1-0.1-0.1V10.5z"/>
	<path class="st0" d="M46.4,12.2l-1.2-1.6c0-0.1,0-0.1,0-0.2c0.1,0,0.1,0,0.2,0l1.1,1.5l1.1-1.5c0-0.1,0.1-0.1,0.2,0
		c0.1,0,0.1,0.1,0,0.2l-1.2,1.6v1.6c0,0.1-0.1,0.1-0.1,0.1c-0.1,0-0.1-0.1-0.1-0.1V12.2z"/>
	<path class="st0" d="M52,13h-1.6l-0.3,0.8c0,0.1-0.1,0.1-0.1,0.1c0,0,0,0,0,0c-0.1,0-0.1-0.1-0.1-0.2l1.2-3.3c0,0,0.1-0.1,0.1-0.1
		c0.1,0,0.1,0,0.1,0.1l1.2,3.3c0,0.1,0,0.1-0.1,0.2c0,0,0,0,0,0c0,0-0.1,0-0.1-0.1L52,13z M50.5,12.7h1.4l-0.7-1.9L50.5,12.7z"/>
	<path class="st0" d="M53.6,10.9v2.9c0,0.1-0.1,0.1-0.1,0.1s-0.1-0.1-0.1-0.1v-3.3c0-0.1,0-0.1,0-0.1c0.1,0,0.1,0,0.2,0l2.2,3v-2.9
		c0-0.1,0.1-0.1,0.1-0.1c0.1,0,0.1,0.1,0.1,0.1v3.3c0,0.1-0.1,0.1-0.1,0.1c0,0-0.1,0-0.1,0c0,0,0,0,0,0L53.6,10.9z"/>
	<path class="st0" d="M57.2,13.9L57.2,13.9c-0.1,0-0.1-0.1-0.1-0.1v-3.3c0-0.1,0.1-0.1,0.1-0.1h0h0.7c1,0,1.8,0.8,1.8,1.8
		c0,1-0.8,1.8-1.8,1.8H57.2z M57.8,13.7c0.8,0,1.5-0.7,1.5-1.5c0-0.9-0.7-1.5-1.5-1.5h-0.5v3.1H57.8z"/>
	<path class="st0" d="M64.3,12.3h-1.8v1.5c0,0.1-0.1,0.1-0.1,0.1c-0.1,0-0.1-0.1-0.1-0.1v-3.3c0-0.1,0.1-0.1,0.1-0.1
		c0.1,0,0.1,0.1,0.1,0.1V12h1.8v-1.5c0-0.1,0.1-0.1,0.1-0.1c0.1,0,0.1,0.1,0.1,0.1v3.3c0,0.1-0.1,0.1-0.1,0.1
		c-0.1,0-0.1-0.1-0.1-0.1V12.3z"/>
	<path class="st0" d="M65.6,10.5c0-0.1,0.1-0.1,0.1-0.1c0.1,0,0.1,0.1,0.1,0.1v3.3c0,0.1-0.1,0.1-0.1,0.1c-0.1,0-0.1-0.1-0.1-0.1
		V10.5z"/>
	<path class="st0" d="M67,13.3c0-0.1,0.1-0.1,0.2,0c0.3,0.2,0.7,0.5,1.2,0.5c0.3,0,0.6-0.1,0.8-0.2c0.2-0.1,0.3-0.3,0.3-0.5
		c0-0.2-0.1-0.4-0.3-0.5c-0.2-0.1-0.5-0.2-0.8-0.3h0c-0.3-0.1-0.6-0.2-0.8-0.3c-0.2-0.1-0.4-0.4-0.4-0.6c0-0.3,0.1-0.5,0.4-0.7
		c0.2-0.2,0.5-0.3,0.9-0.3c0.5,0,0.8,0.2,1.1,0.4c0.1,0,0.1,0.1,0,0.2c0,0.1-0.1,0.1-0.2,0c-0.3-0.2-0.6-0.4-1-0.4
		c-0.3,0-0.5,0.1-0.7,0.2c-0.2,0.1-0.3,0.3-0.3,0.5c0,0.2,0.1,0.3,0.3,0.4c0.2,0.1,0.4,0.2,0.8,0.3h0c0.4,0.1,0.7,0.2,0.9,0.3
		c0.2,0.2,0.4,0.4,0.4,0.7c0,0.3-0.2,0.5-0.4,0.7c-0.2,0.2-0.6,0.3-0.9,0.3c-0.5,0-1-0.3-1.3-0.5C66.9,13.4,66.9,13.3,67,13.3z"/>
	<path class="st0" d="M50.4,16.4c0.4,0,0.8,0.2,1.2,0.4c0.1,0,0.1,0.1,0,0.2c0,0.1-0.1,0.1-0.2,0c-0.3-0.2-0.6-0.3-1-0.3
		c-0.9,0-1.6,0.7-1.6,1.6c0,0.9,0.7,1.5,1.6,1.5c0.4,0,0.7-0.1,1-0.3c0.1,0,0.1,0,0.2,0c0.1,0,0,0.1,0,0.2c-0.3,0.2-0.7,0.4-1.2,0.4
		c-1,0-1.9-0.8-1.9-1.8C48.5,17.2,49.4,16.4,50.4,16.4z"/>
	<path class="st0" d="M54.1,16.4c1,0,1.7,0.8,1.7,1.8c0,1-0.8,1.8-1.7,1.8c-1,0-1.7-0.8-1.7-1.8C52.4,17.2,53.1,16.4,54.1,16.4z
		 M54.1,19.8c0.8,0,1.4-0.7,1.5-1.6c0-0.9-0.7-1.6-1.5-1.6c-0.8,0-1.5,0.7-1.5,1.6C52.6,19.1,53.3,19.8,54.1,19.8z"/>
	<path class="st0" d="M59.4,17l-1.1,1.6c0,0-0.1,0.1-0.1,0.1h0c0,0-0.1,0-0.1-0.1L56.9,17v2.9c0,0.1-0.1,0.1-0.1,0.1
		c-0.1,0-0.1-0.1-0.1-0.1v-3.3c0,0,0-0.1,0.1-0.1c0,0,0,0,0,0c0.1,0,0.1,0,0.2,0l1.3,1.8l1.3-1.8c0-0.1,0.1-0.1,0.2,0c0,0,0,0,0,0
		c0,0,0,0,0,0.1v3.3c0,0.1-0.1,0.1-0.1,0.1c-0.1,0-0.1-0.1-0.1-0.1V17z"/>
	<path class="st0" d="M60.7,16.6c0-0.1,0.1-0.1,0.1-0.1h0h1.8c0.1,0,0.1,0.1,0.1,0.1c0,0.1-0.1,0.1-0.1,0.1h-1.7v1.4h1.5
		c0.1,0,0.1,0.1,0.1,0.1c0,0.1-0.1,0.1-0.1,0.1h-1.5v1.4h1.7c0.1,0,0.1,0.1,0.1,0.1c0,0.1-0.1,0.1-0.1,0.1h-1.8h0h0
		c-0.1,0-0.1-0.1-0.1-0.1V16.6z"/>
	<path class="st0" d="M64.6,16.7h-1.1c-0.1,0-0.1-0.1-0.1-0.1c0-0.1,0.1-0.1,0.1-0.1H66c0.1,0,0.1,0.1,0.1,0.1
		c0,0.1-0.1,0.1-0.1,0.1h-1.1v3.2c0,0.1-0.1,0.1-0.1,0.1c-0.1,0-0.1-0.1-0.1-0.1V16.7z"/>
	<path class="st0" d="M66.8,19.4c0-0.1,0.1-0.1,0.2,0c0.3,0.2,0.7,0.5,1.2,0.5c0.3,0,0.6-0.1,0.8-0.2c0.2-0.1,0.3-0.3,0.3-0.5
		c0-0.2-0.1-0.4-0.3-0.5c-0.2-0.1-0.5-0.2-0.8-0.3h0c-0.3-0.1-0.6-0.2-0.8-0.3c-0.2-0.1-0.4-0.4-0.4-0.6c0-0.3,0.1-0.5,0.4-0.7
		c0.2-0.2,0.5-0.3,0.9-0.3c0.5,0,0.8,0.2,1.1,0.4c0.1,0,0.1,0.1,0,0.2c0,0.1-0.1,0.1-0.2,0c-0.3-0.2-0.6-0.4-1-0.4
		c-0.3,0-0.5,0.1-0.7,0.2c-0.2,0.1-0.3,0.3-0.3,0.5c0,0.2,0.1,0.3,0.3,0.4c0.2,0.1,0.4,0.2,0.8,0.3h0c0.4,0.1,0.7,0.2,0.9,0.3
		c0.2,0.2,0.4,0.4,0.4,0.7c0,0.3-0.2,0.5-0.4,0.7c-0.2,0.2-0.6,0.3-0.9,0.3c-0.5,0-1-0.3-1.3-0.5C66.7,19.5,66.7,19.4,66.8,19.4z"/>
</g>
</svg>
