<svg id="blueButtons" xmlns="http://www.w3.org/2000/svg" viewBox="0 0 85.6 123.09"><defs><style>.cls-1{fill:#2dfffe;}.cls-2,.cls-4{fill:#fff;}.cls-2{opacity:0.91;}.cls-3{fill:#fdfeff;}</style></defs><rect id="blueRec1" class="cls-1" width="85.6" height="123.09" rx="4.56"/><g id="guitar"><circle id="C2" class="cls-2" cx="42.21" cy="99.94" r="17.49"/><path class="cls-1" d="M42.29,98.84l1.83-1.16,6.38-4.07c.17-.11.32-.19.23-.46s.08-.42.29-.55l2.21-1.37c.53-.33,1.07-.67,1.61-1s.68-.22,1,.2.51.78.78,1.16a.61.61,0,0,1-.16,1l-3.61,2.6c-.32.23-.46.22-.81,0-.06,0-.2,0-.28,0L49,97.18l-5.1,3.57c-.14.1-.18.18-.1.35a5.91,5.91,0,0,1,.61,2.71,1.83,1.83,0,0,1-.31,1.12,2,2,0,0,1-.61.55c-1.09.56-2.21,1.06-3.28,1.65A4.13,4.13,0,0,0,38.42,109a9.8,9.8,0,0,1-.87,1.47,3.45,3.45,0,0,1-3.69,1.2,6.56,6.56,0,0,1-4-2.83A6.91,6.91,0,0,1,28.55,105a4.24,4.24,0,0,1,1.13-3.27,3.34,3.34,0,0,1,2-1c.43,0,.87-.09,1.31-.16a5.64,5.64,0,0,0,2.85-1.4l1.81-1.54a.81.81,0,0,0,.19-.18A1.53,1.53,0,0,1,39.41,97,5.19,5.19,0,0,1,42,98.5C42.08,98.6,42.18,98.72,42.29,98.84Zm-5.67,3.88a2.11,2.11,0,1,0,2.11-2.12A2.12,2.12,0,0,0,36.62,102.72Z" transform="translate(-0.56 -0.8)"/></g><g id="trumpet"><circle id="C1" class="cls-2" cx="62.74" cy="60.76" r="17.49"/><path class="cls-1" d="M58.9,59.08c.93,0,2,0,3,0H66.8a7.73,7.73,0,0,0,2.89-.51,7.48,7.48,0,0,0,2-1.15l2.62-2c.32-.25.63-.51,1-.75a1.35,1.35,0,0,1,2,.4,1.24,1.24,0,0,1,.17.65V66.47a2.19,2.19,0,0,1,0,.57,1.34,1.34,0,0,1-2.1.76c-.45-.32-.88-.67-1.31-1-.95-.73-1.87-1.49-2.83-2.19a7,7,0,0,0-3.2-1.23c-.23,0-.27,0-.27.23,0,.7,0,1.4,0,2.1a4.82,4.82,0,0,1-3.16,4.63,4.43,4.43,0,0,1-1.61.31c-2.24,0-4.48,0-6.72,0a4.56,4.56,0,0,1-3.09-1.27,4.87,4.87,0,0,1-1.52-2.92,2.83,2.83,0,0,1,0-.29c0-.77,0-1.53,0-2.3a4.81,4.81,0,0,1,1.25-3.33c0-.05.14-.09.1-.17s-.13-.05-.19-.05H50.05c-.16,0-.22.07-.22.22s0,.39,0,.59a.55.55,0,0,1-.59.56.54.54,0,0,1-.58-.59c0-.94,0-1.89,0-2.83a.61.61,0,0,1,.57-.6.58.58,0,0,1,.61.56c0,.21,0,.42,0,.63s0,.26.27.26h8.8Z" transform="translate(-0.56 -0.8)"/><path class="cls-3" d="M59.63,67.06H56.51a1.27,1.27,0,0,1-1.35-1.36c0-.37,0-.74,0-1.12a1.22,1.22,0,0,1,1.24-1.24c2.33,0,4.67,0,7,0h.53a.17.17,0,0,1,.19.19c0,.65,0,1.3,0,2A3.09,3.09,0,0,1,64,66a1.24,1.24,0,0,1-1.24,1Z" transform="translate(-0.56 -0.8)"/></g><g id="piano"><circle id="C3" class="cls-2" cx="21.86" cy="60.76" r="17.49"/><path class="cls-1" d="M22.49,70.64H13.56c-.58,0-.61,0-.61-.61V52.31c0-.51,0-.56.56-.56h18c.52,0,.56,0,.56.56V70c0,.64,0,.66-.65.66h-9Z" transform="translate(-0.56 -0.8)"/><path class="cls-4" d="M31,61.23v7.7c0,.58,0,.62-.62.62H26.67c-.53,0-.59-.06-.59-.58V63c0-.52.06-.57.56-.57,1,0,.92.09.94-.94,0-1.87,0-3.75,0-5.62,0-.86.08-1.72,0-2.58,0-.33.15-.44.46-.44h2.51c.44,0,.5.06.5.51,0,2,0,4.09,0,6.13v1.74Z" transform="translate(-0.56 -0.8)"/><path class="cls-4" d="M14,61.19V53.68c0-.17,0-.34,0-.51a.31.31,0,0,1,.35-.33h2.76c.3,0,.36.19.35.44,0,.49,0,1,0,1.48,0,1.27,0,2.54,0,3.81s0,2.27,0,3.41c0,.32.15.46.47.45h.1c.94,0,.9-.07.9.89v5.62c0,.55-.06.61-.6.61H14.59c-.51,0-.56,0-.56-.57Z" transform="translate(-0.56 -0.8)"/><path class="cls-4" d="M23.54,57.64v4.25c0,.48.05.53.55.53,1,0,.91-.07.91.93,0,1.89,0,3.78,0,5.66,0,.5,0,.55-.53.55H20.54c-.43,0-.47,0-.48-.49V62.92c0-.44.05-.49.51-.49,1,0,.95.1.95-1V53.4c0-.52,0-.56.56-.56h1c.34,0,.44.18.43.48,0,1.26,0,2.52,0,3.78v.54Z" transform="translate(-0.56 -0.8)"/></g><g id="sax"><circle id="C4" class="cls-2" cx="63.07" cy="21.57" r="17.49"/><path class="cls-1" d="M61.09,12.09c.23,1.18.5,2.34.68,3.53.07.51.19,1,.27,1.53,0,.2,0,.31-.21.37a.66.66,0,0,0-.5.74.68.68,0,0,0,.69.68c.15,0,.29,0,.33.21.07.46.08.46-.17.58a.73.73,0,0,0-.47.81.75.75,0,0,0,.74.63.22.22,0,0,1,.23.19l.06.26a.32.32,0,0,1-.23.43.69.69,0,0,0-.45.78.66.66,0,0,0,.67.62c.21,0,.27.1.31.31.15.9.26,1.81.42,2.71s.35,2,.59,3a4.93,4.93,0,0,0,.46,1.25.86.86,0,0,0,.15.22.46.46,0,0,0,.76,0,1.47,1.47,0,0,0,.29-.95,11.44,11.44,0,0,0-.19-2.26c-.18-1.12-.46-2.22-.67-3.34A10.76,10.76,0,0,1,64.69,21a4.57,4.57,0,0,0,0-.64,1.36,1.36,0,0,0-.58-1.11.24.24,0,0,1-.09-.37,3.68,3.68,0,0,0,.23-.44.22.22,0,0,1,.34-.12l1,.5,7.17,3.52c.19.1.2.2.12.39-.16.4-.35.71-.86.68a1.33,1.33,0,0,0-.6.15,1.52,1.52,0,0,0-1,1.57,26.58,26.58,0,0,0,.17,2.67,10.61,10.61,0,0,1-.18,3.85,5.92,5.92,0,0,1-2.89,3.66,5.52,5.52,0,0,1-2.43.75,4.72,4.72,0,0,1-3.68-1.34,6.35,6.35,0,0,1-1.61-2.84,14,14,0,0,1-.4-2.88c-.07-1.11-.14-2.21-.2-3.32s-.08-2.07-.14-3.11-.13-2.12-.19-3.18-.12-2-.19-2.94c-.1-1.43-.23-2.87-.45-4.29A4.75,4.75,0,0,0,58,11a.29.29,0,0,0-.47-.18,1.78,1.78,0,0,0-.62.63c-.37.58-.68,1.19-1.1,1.74a3.87,3.87,0,0,1-1.18,1.06c-.15.09-.25.06-.29-.1l-.18-.85a.34.34,0,0,1,.1-.33,8.06,8.06,0,0,0,1.09-1.68c.36-.68.69-1.39,1.08-2.05a6.54,6.54,0,0,1,.7-1,1.38,1.38,0,0,1,1.51-.43,2.48,2.48,0,0,1,1.63,1.46A8.18,8.18,0,0,1,60.84,11C60.94,11.35,61,11.72,61.09,12.09Z" transform="translate(-0.56 -0.8)"/><path class="cls-1" d="M53.39,14.08l0,.1c.1.47.07.5-.4.49a5.24,5.24,0,0,1-1.91-.45,1.13,1.13,0,0,1-.53-.43c-.14-.21-.08-.35.16-.41a1.32,1.32,0,0,1,.56,0,7.22,7.22,0,0,0,1.74.14.22.22,0,0,1,.27.2c0,.12,0,.23.08.35Z" transform="translate(-0.56 -0.8)"/></g><g id="drums"><circle id="C5" class="cls-2" cx="22.18" cy="21.57" r="17.49"/><path class="cls-1" d="M29.32,14.49l1.21,1.77s-3.08,1.18-3.05,1.87,4.25-.19,4.25-.19l.69,13.6-1.13.05.05,1,3.29-.06-.13-1-1,0-.62-13.86s4.18-1.75,3.81-2.26c-.55-.75-4.84.48-4.84.48L30.43,14.1s2.87-1.95,2.6-2.2-5.37.49-7.15,3.35C25.88,15.25,26.69,15.82,29.32,14.49Z" transform="translate(-0.56 -0.8)"/><rect class="cls-1" x="26.76" y="30" width="1.13" height="2.43" rx="0.19" transform="translate(-13.94 22.4) rotate(-37.68)"/><rect class="cls-1" x="20.01" y="30.42" width="1.13" height="2.43" rx="0.19" transform="translate(22.34 -6.83) rotate(36.57)"/><path class="cls-1" d="M23.35,19A6.21,6.21,0,1,0,30,24.92,6.28,6.28,0,0,0,23.35,19Zm.53,11a4.89,4.89,0,1,1,4.77-5.1A4.93,4.93,0,0,1,23.88,30Z" transform="translate(-0.56 -0.8)"/><ellipse class="cls-1" cx="23.67" cy="25.12" rx="4.47" ry="4.38" transform="translate(-1.64 0.26) rotate(-2.53)"/><path class="cls-1" d="M14.72,12.18,14,15.51l-2.13-.22A.78.78,0,0,0,11,16l-.68,4.56a.55.55,0,0,0,.48.62l2.58.31.66,11-1.13.05.05.95,3.2-.14-.12-.86L15,32.31l-.47-10.74,2.43.25a.56.56,0,0,0,.61-.48l.74-4.85a.38.38,0,0,0-.33-.43l-2.84-.34.72-3.33s3.85.79,4.42,0S13.21,9.22,11.18,10a.35.35,0,0,0-.12.58A10.47,10.47,0,0,0,14.72,12.18Z" transform="translate(-0.56 -0.8)"/></g></svg>