<svg xmlns="http://www.w3.org/2000/svg" viewBox="0 0 18.75 18.75"><defs><style>.cls-1{fill:#fff;opacity:0.91;}.cls-2{fill:#2dfffe;}</style></defs><g id="blueButtons"><g id="sax"><circle id="C4" class="cls-1" cx="9.37" cy="9.37" r="9.37"/><path class="cls-2" d="M8.19,4.29c.13.63.27,1.26.36,1.89,0,.28.11.55.15.83,0,.1,0,.16-.11.19a.37.37,0,0,0-.27.4A.36.36,0,0,0,8.69,8c.08,0,.16,0,.17.12s.05.24-.08.3a.41.41,0,0,0-.26.44.42.42,0,0,0,.4.34.11.11,0,0,1,.12.1l0,.14A.16.16,0,0,1,9,9.63a.36.36,0,0,0-.24.42.35.35,0,0,0,.36.33c.11,0,.15.06.16.17.08.48.15,1,.23,1.45s.19,1.06.32,1.58a2.68,2.68,0,0,0,.24.67.94.94,0,0,0,.09.12.24.24,0,0,0,.4,0,.79.79,0,0,0,.16-.51,5.45,5.45,0,0,0-.11-1.21c-.09-.6-.24-1.2-.35-1.79a5.44,5.44,0,0,1-.09-1.8,1.93,1.93,0,0,0,0-.34.67.67,0,0,0-.31-.59.14.14,0,0,1,0-.21l.12-.23q.06-.14.18-.06l.55.26c1.28.63,2.56,1.27,3.84,1.89.1.05.11.1.07.21s-.19.38-.47.36a.79.79,0,0,0-.32.08.82.82,0,0,0-.52.84,13.55,13.55,0,0,0,.09,1.43,5.76,5.76,0,0,1-.1,2.07,3.14,3.14,0,0,1-1.55,2,3,3,0,0,1-1.3.4,2.51,2.51,0,0,1-2-.72,3.3,3.3,0,0,1-.86-1.52,7.24,7.24,0,0,1-.22-1.54c0-.59-.07-1.19-.1-1.78s0-1.11-.08-1.67S7.07,8.77,7,8.2s-.06-1-.1-1.57c-.06-.77-.12-1.54-.24-2.31a3.33,3.33,0,0,0-.16-.6.16.16,0,0,0-.26-.09A1,1,0,0,0,6,4c-.2.31-.36.63-.59.93a2.28,2.28,0,0,1-.63.57c-.08,0-.13,0-.15-.06s-.07-.3-.1-.46a.16.16,0,0,1,0-.17,4.31,4.31,0,0,0,.58-.9c.2-.37.37-.74.59-1.1a2.54,2.54,0,0,1,.37-.51A.75.75,0,0,1,6.88,2a1.34,1.34,0,0,1,.87.79,4.6,4.6,0,0,1,.31.88C8.11,3.9,8.15,4.1,8.19,4.29Z" transform="translate(-0.18 -0.43)"/><path class="cls-2" d="M4.07,5.36v0c0,.25,0,.27-.21.26a2.63,2.63,0,0,1-1-.24.62.62,0,0,1-.28-.23c-.07-.11,0-.19.09-.22a.71.71,0,0,1,.29,0,3.69,3.69,0,0,0,.94.07A.12.12,0,0,1,4,5.17a1.29,1.29,0,0,1,0,.19Z" transform="translate(-0.18 -0.43)"/></g></g></svg>