<svg xmlns="http://www.w3.org/2000/svg" viewBox="0 0 18.75 18.75"><defs><style>.cls-1{fill:#fff;opacity:0.91;}.cls-2{fill:#2dfffe;}.cls-3{fill:#fdfeff;}</style></defs><g id="blueButtons"><g id="trumpet"><circle id="C1" class="cls-1" cx="9.37" cy="9.37" r="9.37"/><path class="cls-2" d="M7.19,8.48h4.24A3.85,3.85,0,0,0,13,8.21,4.12,4.12,0,0,0,14,7.6l1.41-1.1c.17-.14.34-.28.51-.4A.72.72,0,0,1,17,6.31a.7.7,0,0,1,.09.35v5.78a1,1,0,0,1,0,.3.73.73,0,0,1-1.13.41c-.24-.17-.47-.36-.7-.54-.5-.4-1-.8-1.51-1.18A3.77,3.77,0,0,0,12,10.77c-.12,0-.14,0-.14.13,0,.37,0,.75,0,1.12a2.59,2.59,0,0,1-2.56,2.65H5.75A2.46,2.46,0,0,1,4.1,14a2.57,2.57,0,0,1-.82-1.56.81.81,0,0,1,0-.16V11a2.53,2.53,0,0,1,.67-1.79S4,9.2,4,9.15s-.07,0-.11,0H2.45c-.09,0-.12,0-.12.11v.32a.3.3,0,0,1-.32.3.29.29,0,0,1-.31-.32c0-.5,0-1,0-1.52A.31.31,0,0,1,2,7.71.31.31,0,0,1,2.33,8c0,.12,0,.23,0,.34s0,.14.14.14H7.19Z" transform="translate(-0.18 -0.43)"/><path class="cls-3" d="M7.58,12.75H5.91A.67.67,0,0,1,5.19,12c0-.21,0-.41,0-.61a.65.65,0,0,1,.66-.66h4a.09.09,0,0,1,.1.1v1.05a2.7,2.7,0,0,1,0,.28.67.67,0,0,1-.67.56Z" transform="translate(-0.18 -0.43)"/></g></g></svg>