<svg id="buttons" xmlns="http://www.w3.org/2000/svg" viewBox="0 0 18.75 18.75"><defs><style>.cls-1{fill:#fff;opacity:0.91;}.cls-2{fill:#000102;}</style></defs><title>drums</title><g id="drums"><circle id="C5" class="cls-1" cx="9.37" cy="9.37" r="9.37"/><path class="cls-2" d="M5.07,3.91,4.69,5.7,3.55,5.58a.41.41,0,0,0-.46.35L2.72,8.37A.3.3,0,0,0,3,8.71l1.38.16.36,5.9-.61,0,0,.52,1.71-.08-.06-.46-.56-.07L5,8.94l1.3.13a.29.29,0,0,0,.33-.25L7,6.22A.21.21,0,0,0,6.82,6L5.3,5.81,5.68,4s2.07.43,2.38,0S4.27,2.32,3.18,2.72A.18.18,0,0,0,3.12,3,5.55,5.55,0,0,0,5.07,3.91Z"/><ellipse class="cls-2" cx="9.87" cy="10.84" rx="2.39" ry="2.35" transform="translate(-0.47 0.45) rotate(-2.53)"/><path class="cls-2" d="M9.7,7.56a3.33,3.33,0,1,0,3.54,3.18A3.36,3.36,0,0,0,9.7,7.56ZM10,13.45a2.62,2.62,0,1,1,2.55-2.73A2.64,2.64,0,0,1,10,13.45Z"/><rect class="cls-2" x="7.91" y="13.68" width="0.6" height="1.3" rx="0.19" transform="translate(10.16 -2.07) rotate(36.57)"/><rect class="cls-2" x="11.53" y="13.46" width="0.6" height="1.3" rx="0.19" transform="translate(-6.16 10.17) rotate(-37.68)"/><path class="cls-2" d="M12.9,5.15l.65.95s-1.65.63-1.63,1S14.19,7,14.19,7l.37,7.29-.61,0,0,.56,1.77,0-.08-.56-.55,0-.33-7.43s2.24-.93,2-1.2-2.6.25-2.6.25l-.74-.94S15,3.89,14.89,3.76,12,4,11.06,5.56C11.06,5.56,11.49,5.86,12.9,5.15Z"/></g></svg>