<svg id="buttons" xmlns="http://www.w3.org/2000/svg" viewBox="0 0 18.75 18.75"><defs><style>.cls-1{fill:#fff;opacity:0.91;}</style></defs><title>guitar</title><g id="guitar"><circle id="C2" class="cls-1" cx="9.37" cy="9.37" r="9.37"/><path d="M9.12,8.35l1-.62,3.42-2.18c.09-.06.17-.1.12-.25s0-.22.16-.29L15,4.27l.87-.53a.32.32,0,0,1,.51.11l.42.62c.15.23.13.37-.08.53L14.76,6.39c-.17.12-.24.12-.43,0a.17.17,0,0,0-.15,0l-1.48,1L10,9.38c-.08,0-.1.09-.06.18A3.19,3.19,0,0,1,10.24,11a1,1,0,0,1-.16.6,1.3,1.3,0,0,1-.33.29c-.59.3-1.19.57-1.76.88a2.36,2.36,0,0,0-1,1,4.79,4.79,0,0,1-.46.79,1.85,1.85,0,0,1-2,.64,3.5,3.5,0,0,1-2.13-1.51,3.82,3.82,0,0,1-.72-2,2.25,2.25,0,0,1,.61-1.75,1.84,1.84,0,0,1,1.07-.52c.24,0,.47,0,.7-.09a3,3,0,0,0,1.53-.74l1-.83.11-.09a.79.79,0,0,1,.84-.27A2.77,2.77,0,0,1,9,8.17C9,8.22,9.06,8.29,9.12,8.35Zm-3,2.08a1.13,1.13,0,1,0,2.26,0,1.13,1.13,0,0,0-2.26,0Z"/></g></svg>