<svg xmlns="http://www.w3.org/2000/svg" viewBox="0 0 877 785.6"><defs><style>.cls-1{fill:#f5318d;}.cls-2{fill:#2dfffe;}.cls-3{fill:#fa2e8d;}.cls-10,.cls-4,.cls-5,.cls-6,.cls-7,.cls-8,.cls-9{fill:#fff;}.cls-5{opacity:0.65;}.cls-6{opacity:0.69;}.cls-7{opacity:0.72;}.cls-8{opacity:0.68;}.cls-9{opacity:0.91;}.cls-10{opacity:0.54;}.cls-11{opacity:0.47;}.cls-12{fill:#fcfcfc;opacity:0.87;}.cls-13{fill:#9d41ef;}.cls-14{fill:#fdfeff;}.cls-15{fill:#f462ab;}</style></defs><g id="body"><path id="pinkOuter" class="cls-1" d="M45.45,793.58,43.59,433.92c0-85.83,27-169.71,78.37-237.39C178.79,121.7,276.6,48.1,444.77,22.94c0,0,324.18,22.56,398.53,284.72a376.91,376.91,0,0,1,13.84,102.8l3.74,381.21Z" transform="translate(-10 -7.98)"/><path id="blueMiddle" class="cls-2" d="M812.36,789.8,810.5,459.08a384.42,384.42,0,0,0-12.26-97.91c-48.51-184-217.18-244.06-302.53-262.92a213.21,213.21,0,0,0-97.49,1.37C277.8,129.52,204.36,192,159.62,255.35c-45.49,64.44-69.38,144.33-69.38,226.06L86.5,791.72Z" transform="translate(-10 -7.98)"/><path id="pinkInner" class="cls-3" d="M140.62,793.58V510.25c0-78,20.42-154.27,59.32-215.79,32.13-50.82,81.58-101,157.61-132.69a237,237,0,0,1,173.36-3.88c76.4,28.15,180.74,92.51,215,237.59a407,407,0,0,1,10.48,93.45V791.66Z" transform="translate(-10 -7.98)"/></g><g id="bottomDetail"><polygon id="topBlueRec" class="cls-2" points="190.28 785.6 190.61 652.71 702.23 652.71 702.23 785.6 190.28 785.6"/><polygon id="whiteLeftBox" class="cls-4" points="259.27 714.73 259.27 652.71 190.61 652.71 190.28 714.73 259.27 714.73"/><rect id="whiteRightBox" class="cls-4" x="631.36" y="652.71" width="70.87" height="62.01"/><polygon id="transpLeftBox" class="cls-5" points="270.62 728.02 270.62 643.86 177.44 643.86 176.99 728.02 270.62 728.02"/><polygon id="transpRightBox" class="cls-6" points="712.8 728.13 712.8 643.97 619.62 643.97 619.16 728.13 712.8 728.13"/><polygon id="transpTopRec" class="cls-7" points="611.42 723.59 611.42 621.82 280.8 621.82 279.2 723.59 611.42 723.59"/><polygon id="transpBottomRec" class="cls-8" points="281.42 732.45 259.27 765.67 633.57 765.67 613.64 732.45 281.42 732.45"/></g><g id="middleDetail"><g id="whiteWrap"><path id="L1" class="cls-9" d="M38,455.85S19.33,454,17.46,472.64,30.53,495,47.32,496.9s119.42,7.46,136.21,3.73V478.24S28.66,487.57,38,455.85Z" transform="translate(-10 -7.98)"/><path id="L2" class="cls-9" d="M34.26,515.93S10,510,10,528.62s16.79,17.64,24.26,18.15,149.27,7.69,149.27,3.16v-30S45.45,527.49,34.26,515.93Z" transform="translate(-10 -7.98)"/><path id="L3" class="cls-9" d="M34.26,563.38s-16.8-4.91-16.8,10,1.87,18.66,22.4,22.39,138.08,3.73,143.67,0V570.5S43.59,575.75,34.26,563.38Z" transform="translate(-10 -7.98)"/><path id="R1" class="cls-9" d="M859.27,456.32s18.49-1.86,20.34,16.8S866.67,495.51,850,497.37s-118.31,7.47-134.95,3.74v-22.4S868.51,488,859.27,456.32Z" transform="translate(-10 -7.98)"/><path id="R2" class="cls-9" d="M863,516.4s24-6,24,12.69-16.64,17.65-24,18.16-147.89,7.68-147.89,3.16v-30S851.88,528,863,516.4Z" transform="translate(-10 -7.98)"/><path id="R3" class="cls-9" d="M863,563.86s16.64-4.91,16.64,10-1.85,18.66-22.19,22.39-136.79,3.73-142.34,0V571S853.73,576.22,863,563.86Z" transform="translate(-10 -7.98)"/></g><rect id="leftBlueVRec" class="cls-2" x="173.53" y="453.46" width="46.65" height="167.94" rx="12.13"/><rect id="rightBlueVRec" class="cls-2" x="658.68" y="453.46" width="46.65" height="167.94" rx="12.13"/><rect id="leftBlueRec" class="cls-2" x="220.18" y="475.85" width="181" height="113.82"/><rect id="rightBlueRec" class="cls-2" x="473.95" y="475.85" width="184.73" height="113.82"/><rect id="blueCircleRec" class="cls-2" x="376.92" y="455.33" width="125.02" height="156.74" rx="6.38"/><g id="buttonsTop"><rect id="_1Button" data-name="1Button" class="cls-10" x="229.51" y="487.05" width="74.64" height="14.93" rx="4"/><rect id="_2Button" data-name="2Button" class="cls-10" x="229.51" y="507.58" width="74.64" height="14.93" rx="4"/><rect id="_3Button" data-name="3Button" class="cls-10" x="229.51" y="526.24" width="74.64" height="14.93" rx="4"/><rect id="_4Button" data-name="4Button" class="cls-10" x="229.51" y="544.9" width="74.64" height="14.93" rx="4"/><rect id="_5Button" data-name="5Button" class="cls-10" x="229.51" y="563.55" width="74.64" height="14.93" rx="4"/><rect id="_6Button" data-name="6Button" class="cls-10" x="320.94" y="487.05" width="52.25" height="14.93" rx="4"/><rect id="_7Button" data-name="7Button" class="cls-10" x="320.94" y="507.58" width="52.25" height="14.93" rx="4"/><rect id="_8Button" data-name="8Button" class="cls-10" x="320.94" y="526.24" width="52.25" height="14.93" rx="4"/><rect id="_9Button" data-name="9Button" class="cls-10" x="320.94" y="544.9" width="52.25" height="14.93" rx="4"/><rect id="_10Button" data-name="10Button" class="cls-10" x="320.94" y="563.55" width="52.25" height="14.93" rx="4"/><rect id="_16Button" data-name="16Button" class="cls-10" x="572.85" y="487.05" width="74.64" height="14.93" rx="4"/><rect id="_17Button" data-name="17Button" class="cls-10" x="572.85" y="507.58" width="74.64" height="14.93" rx="4"/><rect id="_18Button" data-name="18Button" class="cls-10" x="572.85" y="526.24" width="74.64" height="14.93" rx="4"/><rect id="_19Button" data-name="19Button" class="cls-10" x="572.85" y="544.9" width="74.64" height="14.93" rx="4"/><rect id="_20Button" data-name="20Button" class="cls-10" x="572.85" y="563.55" width="74.64" height="14.93" rx="4"/><rect id="rightSplit" class="cls-9" x="559.79" y="487.05" width="7.46" height="91.43" rx="1.24"/><rect id="leftSplit" class="cls-9" x="307.88" y="487.05" width="7.46" height="91.43" rx="1.08"/><rect id="_6Button-2" data-name="6Button" class="cls-10" x="503.81" y="487.05" width="52.25" height="14.93" rx="4"/><rect id="_7Button-2" data-name="7Button" class="cls-10" x="503.81" y="507.58" width="52.25" height="14.93" rx="4"/><rect id="_8Button-2" data-name="8Button" class="cls-10" x="503.81" y="526.24" width="52.25" height="14.93" rx="4"/><rect id="_9Button-2" data-name="9Button" class="cls-10" x="503.81" y="544.9" width="52.25" height="14.93" rx="4"/><rect id="_10Button-2" data-name="10Button" class="cls-10" x="503.81" y="563.55" width="52.25" height="14.93" rx="4"/></g><polygon id="rightTspBox" class="cls-5" points="847.14 476.33 847.14 571.5 705.08 571.5 705.08 483.11 847.14 476.33"/><polygon id="leftTspBox" class="cls-5" points="33.59 475.86 33.59 571.02 173.53 571.02 173.53 482.64 33.59 475.86"/><rect id="tspRec" class="cls-9" x="384.39" y="465.58" width="111.96" height="136.21" rx="4.84"/><circle id="insert2" class="cls-2" cx="414.24" cy="535.57" r="16.79"/><circle id="insert2-2" data-name="insert2" class="cls-2" cx="464.62" cy="535.57" r="16.79"/><circle id="insert2-3" data-name="insert2" class="cls-2" cx="464.62" cy="492.65" r="16.79"/><circle id="insert2-4" data-name="insert2" class="cls-2" cx="414.24" cy="492.65" r="16.79"/><circle id="insert2-5" data-name="insert2" class="cls-2" cx="438.5" cy="578.48" r="16.79"/></g><g id="recordSection"><path id="blueRecord" class="cls-2" d="M189.13,454s7.05-169.17,161.51-237.08c54.94-24.15,118.74-25.57,175.65-7.58C597.78,231.93,707.87,299.11,709.73,454Z" transform="translate(-10 -7.98)"/><g id="tspBlueRecord" class="cls-11"><path class="cls-4" d="M192.86,426s20.53-153,160.35-208a257.18,257.18,0,0,1,172.55-5c56.21,18.2,170.19,79,184,213Z" transform="translate(-10 -7.98)"/></g><path id="whiteRecord" class="cls-12" d="M243.24,426c0-102,92.74-184.73,207.13-184.73S657.49,324,657.49,426Z" transform="translate(-10 -7.98)"/></g><g id="topDetail"><path id="tspTri" class="cls-5" d="M437.9,203.4,346.7,37.12a12.11,12.11,0,0,1,6.07-17A68.05,68.05,0,0,0,360,16.4C379.6,5.55,500.08,3.88,539.69,19.21c8.58,3.32,15,9.85,10.61,17.91L459.1,203.4A12.08,12.08,0,0,1,437.9,203.4Z" transform="translate(-10 -7.98)"/><path id="whiteTri" class="cls-4" d="M439.36,186.94,358.79,40A10.7,10.7,0,0,1,364.16,25a57.83,57.83,0,0,0,6.37-3.25c17.33-9.58,123.77-11.06,158.77,2.49,7.57,2.93,13.27,8.7,9.37,15.82L458.1,186.94A10.69,10.69,0,0,1,439.36,186.94Z" transform="translate(-10 -7.98)"/></g><g id="purpleButtons"><rect id="blueRec1" class="cls-13" x="290.81" y="630.57" width="85.6" height="123.09" rx="4.56"/><g id="guitar"><circle id="C2" class="cls-9" cx="333.02" cy="730.51" r="17.49"/><path class="cls-13" d="M342.54,736.58l1.83-1.16,6.38-4.07c.17-.11.32-.19.23-.46s.08-.42.29-.55l2.21-1.36,1.62-1c.44-.27.68-.22,1,.21l.78,1.15c.28.42.25.69-.16,1l-3.6,2.6a.58.58,0,0,1-.81,0c-.07,0-.21,0-.29.06-.92.64-1.84,1.28-2.75,1.93l-5.1,3.56a.24.24,0,0,0-.11.35,6.09,6.09,0,0,1,.62,2.72,2,2,0,0,1-.31,1.12,1.89,1.89,0,0,1-.62.54c-1.09.56-2.2,1.07-3.28,1.65a4.32,4.32,0,0,0-1.76,1.83,9.65,9.65,0,0,1-.86,1.46,3.44,3.44,0,0,1-3.69,1.2,6.52,6.52,0,0,1-4-2.82,7,7,0,0,1-1.34-3.83,4.21,4.21,0,0,1,1.13-3.26,3.31,3.31,0,0,1,2-1c.44-.06.88-.1,1.31-.17a5.51,5.51,0,0,0,2.85-1.39c.6-.52,1.21-1,1.82-1.54.06-.06.13-.11.19-.18a1.51,1.51,0,0,1,1.56-.5,5.27,5.27,0,0,1,2.57,1.53C342.34,736.34,342.43,736.46,342.54,736.58Zm-5.66,3.88a2.11,2.11,0,1,0,4.21,0,2.12,2.12,0,0,0-2.11-2.09A2.1,2.1,0,0,0,336.88,740.46Z" transform="translate(-10 -7.98)"/></g><g id="trumpet"><circle id="C1" class="cls-9" cx="353.55" cy="691.32" r="17.49"/><path class="cls-13" d="M359.15,696.83c.93,0,2,0,3,0h4.89a7.33,7.33,0,0,0,4.86-1.66l2.62-2c.32-.25.63-.51,1-.75a1.34,1.34,0,0,1,2,.4,1.25,1.25,0,0,1,.17.66v10.78a2.09,2.09,0,0,1,0,.56,1.35,1.35,0,0,1-2.11.76c-.45-.32-.88-.67-1.31-1-.94-.73-1.86-1.48-2.83-2.18a7.07,7.07,0,0,0-3.19-1.24c-.24,0-.27,0-.28.24,0,.7,0,1.39,0,2.09a4.84,4.84,0,0,1-3.16,4.64,4.47,4.47,0,0,1-1.62.3c-2.24,0-4.47,0-6.71,0a4.55,4.55,0,0,1-3.09-1.28,4.83,4.83,0,0,1-1.53-2.92,2.64,2.64,0,0,1,0-.28v-2.31a4.72,4.72,0,0,1,1.25-3.33s.13-.09.09-.17-.12-.05-.19-.05H350.3c-.16,0-.22.07-.22.22a5.61,5.61,0,0,1,0,.58.54.54,0,0,1-.59.56.53.53,0,0,1-.58-.58c0-1,0-1.89,0-2.84a.59.59,0,0,1,.57-.59.57.57,0,0,1,.6.56c0,.2,0,.41,0,.62s0,.27.27.27h8.8Z" transform="translate(-10 -7.98)"/><path class="cls-14" d="M359.88,704.81h-3.12a1.27,1.27,0,0,1-1.35-1.36c0-.37,0-.75,0-1.12a1.23,1.23,0,0,1,1.25-1.24h7.52c.13,0,.19.06.19.18,0,.66,0,1.31,0,2a3,3,0,0,1-.08.52,1.23,1.23,0,0,1-1.24,1h-3.17Z" transform="translate(-10 -7.98)"/></g><g id="piano"><circle id="C3" class="cls-9" cx="312.66" cy="691.32" r="17.49"/><path class="cls-13" d="M322.75,708.39h-8.93c-.59,0-.62,0-.62-.62V690.05c0-.51.05-.55.56-.55h18.05c.51,0,.56,0,.56.57q0,8.84,0,17.68c0,.63,0,.65-.65.65Z" transform="translate(-10 -7.98)"/><path class="cls-4" d="M331.28,699v7.69c0,.59,0,.62-.61.62h-3.74c-.54,0-.6-.06-.6-.57q0-3,0-6c0-.52.05-.57.55-.58,1,0,.93.09.94-.93,0-1.88,0-3.75,0-5.63,0-.85.08-1.71,0-2.57,0-.33.14-.45.46-.44h2.5c.44,0,.51.06.51.51V699Z" transform="translate(-10 -7.98)"/><path class="cls-4" d="M314.28,698.94v-7.52c0-.16,0-.33,0-.5a.32.32,0,0,1,.34-.34h2.76c.3,0,.37.2.35.44,0,.5,0,1,0,1.49,0,1.27,0,2.54,0,3.8s0,2.28,0,3.41c0,.33.15.47.47.45h.11c.93,0,.89-.07.89.89,0,1.87,0,3.75,0,5.62,0,.56-.05.61-.6.61h-3.77c-.51,0-.56,0-.56-.56Q314.27,702.84,314.28,698.94Z" transform="translate(-10 -7.98)"/><path class="cls-4" d="M323.79,695.38v4.25c0,.49,0,.53.55.53,1,0,.91-.06.91.94v5.66c0,.5-.05.54-.54.54h-3.92c-.42,0-.47,0-.47-.49,0-2,0-4.09,0-6.13,0-.45,0-.49.5-.5,1,0,1,.1,1-1v-8.06c0-.52,0-.56.56-.56.33,0,.67,0,1,0s.44.17.44.47v4.32Z" transform="translate(-10 -7.98)"/></g><g id="sax"><circle id="C4" class="cls-9" cx="353.88" cy="652.14" r="17.49"/><path class="cls-13" d="M361.35,649.84c.23,1.17.5,2.34.67,3.52.07.52.2,1,.27,1.54,0,.19,0,.3-.21.36a.66.66,0,0,0-.49.74.67.67,0,0,0,.68.68c.16,0,.3,0,.33.22.08.46.08.45-.16.57a.74.74,0,0,0,.26,1.44c.13,0,.21.06.23.19l.06.26a.3.3,0,0,1-.22.43.69.69,0,0,0-.46.78.67.67,0,0,0,.67.62c.22,0,.28.11.31.32.15.9.27,1.8.42,2.7s.36,2,.59,3a5.26,5.26,0,0,0,.47,1.25,1.43,1.43,0,0,0,.15.22.45.45,0,0,0,.76,0,1.45,1.45,0,0,0,.28-.94,10.73,10.73,0,0,0-.19-2.26c-.17-1.13-.45-2.23-.67-3.35a10.71,10.71,0,0,1-.16-3.34,3.54,3.54,0,0,0,0-.65,1.3,1.3,0,0,0-.58-1.1.25.25,0,0,1-.08-.38,4.37,4.37,0,0,0,.22-.43.21.21,0,0,1,.34-.12l1,.49,7.16,3.53c.2.09.21.19.13.38-.16.4-.35.71-.87.68a1.71,1.71,0,0,0-.6.15,1.54,1.54,0,0,0-1,1.57,26.4,26.4,0,0,0,.18,2.67,10.83,10.83,0,0,1-.18,3.85,5.91,5.91,0,0,1-2.9,3.66,5.48,5.48,0,0,1-2.42.75,4.67,4.67,0,0,1-3.68-1.34,6.22,6.22,0,0,1-1.61-2.83,12.9,12.9,0,0,1-.4-2.89c-.08-1.1-.14-2.21-.2-3.31s-.09-2.08-.15-3.12-.13-2.12-.19-3.18-.11-2-.18-2.93c-.11-1.44-.23-2.87-.45-4.3a6.4,6.4,0,0,0-.3-1.12.3.3,0,0,0-.48-.17,1.87,1.87,0,0,0-.62.63c-.37.57-.68,1.19-1.1,1.73a3.9,3.9,0,0,1-1.18,1.07c-.15.08-.24.05-.28-.11s-.13-.57-.19-.85a.41.41,0,0,1,.1-.33,7.81,7.81,0,0,0,1.09-1.68c.37-.68.69-1.38,1.09-2a6.39,6.39,0,0,1,.69-1,1.39,1.39,0,0,1,1.51-.44,2.56,2.56,0,0,1,1.64,1.47,8.58,8.58,0,0,1,.56,1.64C361.19,649.09,361.26,649.47,361.35,649.84Z" transform="translate(-10 -7.98)"/><path class="cls-13" d="M353.65,651.82l0,.11c.1.46.07.5-.4.48a5.28,5.28,0,0,1-1.91-.45,1.17,1.17,0,0,1-.53-.43c-.13-.21-.07-.35.17-.41a1.45,1.45,0,0,1,.55,0,6.79,6.79,0,0,0,1.74.14.24.24,0,0,1,.28.2c0,.12.05.24.07.35Z" transform="translate(-10 -7.98)"/></g><g id="drums"><circle id="C5" class="cls-9" cx="312.99" cy="652.14" r="17.49"/><path class="cls-13" d="M329.57,652.24l1.21,1.77s-3.07,1.17-3,1.87,4.24-.19,4.24-.19l.69,13.6-1.13.05,0,1,3.3-.06-.14-1-1,0-.61-13.86s4.17-1.75,3.81-2.25c-.56-.76-4.85.47-4.85.47l-1.38-1.76s2.87-2,2.6-2.2-5.36.5-7.15,3.36C326.13,653,326.94,653.57,329.57,652.24Z" transform="translate(-10 -7.98)"/><rect class="cls-13" x="327.01" y="667.74" width="1.13" height="2.43" rx="0.19" transform="translate(-350.57 331.75) rotate(-37.68)"/><rect class="cls-13" x="320.26" y="668.16" width="1.13" height="2.43" rx="0.19" transform="matrix(0.8, 0.6, -0.6, 0.8, 451.94, -67.36)"/><path class="cls-13" d="M323.61,656.74a6.21,6.21,0,1,0,6.6,5.92A6.27,6.27,0,0,0,323.61,656.74Zm.53,11a4.89,4.89,0,1,1,4.76-5.1A4.93,4.93,0,0,1,324.14,667.73Z" transform="translate(-10 -7.98)"/><ellipse class="cls-13" cx="323.92" cy="662.86" rx="4.47" ry="4.38" transform="translate(-38.89 6.94) rotate(-2.53)"/><path class="cls-13" d="M315,649.93l-.72,3.33-2.13-.23a.8.8,0,0,0-.86.67l-.67,4.55a.53.53,0,0,0,.47.62l2.59.32.65,11-1.12,0,0,1,3.21-.14-.13-.87-1.05-.12-.47-10.75,2.43.25a.57.57,0,0,0,.62-.47l.73-4.86a.38.38,0,0,0-.33-.43l-2.84-.33.72-3.33s3.86.78,4.43,0-7.07-3.15-9.1-2.42a.34.34,0,0,0-.12.58A10.46,10.46,0,0,0,315,649.93Z" transform="translate(-10 -7.98)"/></g></g><g id="pinkButtons"><rect id="blueRec1-2" data-name="blueRec1" class="cls-15" x="512.86" y="630.57" width="85.6" height="123.09" rx="4.56"/><g id="guitar-2" data-name="guitar"><circle id="C2-2" data-name="C2" class="cls-9" cx="555.07" cy="730.51" r="17.49"/><path class="cls-15" d="M564.59,736.58l1.83-1.16,6.38-4.07c.17-.11.32-.19.23-.46s.08-.42.29-.55l2.21-1.36,1.61-1c.45-.27.69-.22,1,.21l.78,1.15c.28.42.25.69-.16,1q-1.8,1.3-3.61,2.6c-.32.24-.46.22-.81,0-.06,0-.2,0-.28.06-.92.64-1.84,1.28-2.75,1.93l-5.1,3.56a.24.24,0,0,0-.11.35,6.09,6.09,0,0,1,.62,2.72,2,2,0,0,1-.31,1.12,2,2,0,0,1-.62.54c-1.09.56-2.21,1.07-3.28,1.65a4.32,4.32,0,0,0-1.76,1.83,8.93,8.93,0,0,1-.87,1.46,3.42,3.42,0,0,1-3.68,1.2,6.52,6.52,0,0,1-4-2.82,7,7,0,0,1-1.34-3.83,4.21,4.21,0,0,1,1.13-3.26,3.31,3.31,0,0,1,2-1c.44-.06.88-.1,1.31-.17a5.55,5.55,0,0,0,2.85-1.39l1.81-1.54a1.71,1.71,0,0,0,.2-.18,1.5,1.5,0,0,1,1.56-.5,5.27,5.27,0,0,1,2.57,1.53C564.39,736.34,564.48,736.46,564.59,736.58Zm-5.66,3.88a2.11,2.11,0,1,0,4.21,0,2.12,2.12,0,0,0-2.11-2.09A2.09,2.09,0,0,0,558.93,740.46Z" transform="translate(-10 -7.98)"/></g><g id="trumpet-2" data-name="trumpet"><circle id="C1-2" data-name="C1" class="cls-9" cx="575.6" cy="691.32" r="17.49"/><path class="cls-15" d="M581.2,696.83c.93,0,2,0,3,0h4.89a7.33,7.33,0,0,0,4.86-1.66l2.62-2c.32-.25.63-.51,1-.75a1.34,1.34,0,0,1,2,.4,1.25,1.25,0,0,1,.17.66v10.78a1.75,1.75,0,0,1,0,.56,1.34,1.34,0,0,1-2.1.76c-.45-.32-.88-.67-1.31-1-.94-.73-1.86-1.48-2.83-2.18a7.07,7.07,0,0,0-3.19-1.24c-.24,0-.27,0-.28.24,0,.7,0,1.39,0,2.09a4.84,4.84,0,0,1-3.16,4.64,4.47,4.47,0,0,1-1.62.3c-2.24,0-4.48,0-6.71,0a4.6,4.6,0,0,1-3.1-1.28,4.87,4.87,0,0,1-1.52-2.92,2.64,2.64,0,0,1,0-.28c0-.77,0-1.54,0-2.31a4.78,4.78,0,0,1,1.26-3.33s.13-.09.09-.17-.12-.05-.19-.05h-2.68c-.16,0-.22.07-.22.22a5.61,5.61,0,0,1,0,.58.54.54,0,0,1-.59.56.53.53,0,0,1-.58-.58c0-1,0-1.89,0-2.84a.59.59,0,0,1,.57-.59.57.57,0,0,1,.6.56c0,.2,0,.41,0,.62s0,.27.27.27h8.8Z" transform="translate(-10 -7.98)"/><path class="cls-14" d="M581.93,704.81h-3.12a1.27,1.27,0,0,1-1.35-1.36c0-.37,0-.75,0-1.12a1.23,1.23,0,0,1,1.24-1.24h7.53c.13,0,.19.06.19.18,0,.66,0,1.31,0,2a4.34,4.34,0,0,1-.08.52,1.23,1.23,0,0,1-1.24,1h-3.17Z" transform="translate(-10 -7.98)"/></g><g id="piano-2" data-name="piano"><circle id="C3-2" data-name="C3" class="cls-9" cx="534.71" cy="691.32" r="17.49"/><path class="cls-15" d="M544.8,708.39h-8.94c-.58,0-.61,0-.61-.62V690.05c0-.51,0-.55.56-.55h18.05c.51,0,.55,0,.55.57v17.68c0,.63,0,.65-.65.65Z" transform="translate(-10 -7.98)"/><path class="cls-4" d="M553.33,699v7.69c0,.59,0,.62-.62.62H549c-.54,0-.6-.06-.6-.57q0-3,0-6c0-.52.05-.57.55-.58,1,0,.93.09.94-.93,0-1.88,0-3.75,0-5.63,0-.85.08-1.71,0-2.57,0-.33.14-.45.46-.44h2.5c.44,0,.5.06.51.51V699Z" transform="translate(-10 -7.98)"/><path class="cls-4" d="M536.33,698.94v-7.52c0-.16,0-.33,0-.5a.32.32,0,0,1,.34-.34h2.76c.3,0,.37.2.35.44,0,.5,0,1,0,1.49,0,1.27,0,2.54,0,3.8s0,2.28,0,3.41c0,.33.15.47.47.45h.11c.93,0,.89-.07.89.89,0,1.87,0,3.75,0,5.62,0,.56,0,.61-.6.61H536.9c-.51,0-.57,0-.57-.56Z" transform="translate(-10 -7.98)"/><path class="cls-4" d="M545.84,695.38v4.25c0,.49,0,.53.55.53,1,0,.91-.06.91.94v5.66c0,.5,0,.54-.54.54h-3.92c-.43,0-.47,0-.47-.49,0-2,0-4.09,0-6.13,0-.45,0-.49.51-.5,1,0,1,.1,1-1,0-2.69,0-5.37,0-8.06,0-.52,0-.56.56-.56.34,0,.68,0,1,0s.44.17.44.47c0,1.26,0,2.52,0,3.78v.54Z" transform="translate(-10 -7.98)"/></g><g id="sax-2" data-name="sax"><circle id="C4-2" data-name="C4" class="cls-9" cx="575.93" cy="652.14" r="17.49"/><path class="cls-15" d="M583.4,649.84c.22,1.17.5,2.34.67,3.52.07.52.19,1,.27,1.54,0,.19,0,.3-.21.36a.66.66,0,0,0-.49.74.67.67,0,0,0,.68.68c.16,0,.29,0,.33.22.08.46.08.45-.16.57a.74.74,0,0,0,.26,1.44c.13,0,.21.06.23.19l.06.26a.3.3,0,0,1-.22.43.69.69,0,0,0-.46.78.67.67,0,0,0,.67.62c.22,0,.28.11.31.32.15.9.27,1.8.42,2.7s.36,2,.59,3a5.69,5.69,0,0,0,.46,1.25c.05.07.1.15.16.22a.45.45,0,0,0,.76,0,1.45,1.45,0,0,0,.28-.94,10.73,10.73,0,0,0-.19-2.26c-.18-1.13-.45-2.23-.67-3.35a10.71,10.71,0,0,1-.16-3.34,4.72,4.72,0,0,0,0-.65,1.3,1.3,0,0,0-.58-1.1.25.25,0,0,1-.08-.38,4.37,4.37,0,0,0,.22-.43.21.21,0,0,1,.34-.12l1,.49,7.17,3.53c.2.09.2.19.13.38-.17.4-.35.71-.87.68a1.66,1.66,0,0,0-.6.15,1.54,1.54,0,0,0-1,1.57,26.4,26.4,0,0,0,.18,2.67,10.83,10.83,0,0,1-.18,3.85,5.91,5.91,0,0,1-2.9,3.66,5.48,5.48,0,0,1-2.42.75,4.67,4.67,0,0,1-3.68-1.34,6.22,6.22,0,0,1-1.61-2.83,12.9,12.9,0,0,1-.4-2.89c-.08-1.1-.14-2.21-.2-3.31s-.09-2.08-.15-3.12-.13-2.12-.19-3.18-.11-2-.19-2.93c-.1-1.44-.22-2.87-.44-4.3a6.4,6.4,0,0,0-.3-1.12.3.3,0,0,0-.48-.17,1.78,1.78,0,0,0-.62.63c-.37.57-.68,1.19-1.1,1.73a3.9,3.9,0,0,1-1.18,1.07c-.15.08-.24.05-.28-.11s-.13-.57-.19-.85a.41.41,0,0,1,.1-.33,7.81,7.81,0,0,0,1.09-1.68c.36-.68.69-1.38,1.09-2a5.75,5.75,0,0,1,.69-1,1.39,1.39,0,0,1,1.51-.44,2.56,2.56,0,0,1,1.64,1.47,8.58,8.58,0,0,1,.56,1.64C583.24,649.09,583.31,649.47,583.4,649.84Z" transform="translate(-10 -7.98)"/><path class="cls-15" d="M575.7,651.82l0,.11c.1.46.07.5-.4.48a5.28,5.28,0,0,1-1.91-.45,1.17,1.17,0,0,1-.53-.43c-.13-.21-.07-.35.17-.41a1.45,1.45,0,0,1,.55,0,6.79,6.79,0,0,0,1.74.14.24.24,0,0,1,.28.2c0,.12,0,.24.07.35Z" transform="translate(-10 -7.98)"/></g><g id="drums-2" data-name="drums"><circle id="C5-2" data-name="C5" class="cls-9" cx="535.04" cy="652.14" r="17.49"/><path class="cls-15" d="M551.62,652.24l1.21,1.77s-3.07,1.17-3,1.87,4.24-.19,4.24-.19l.69,13.6-1.13.05,0,1,3.29-.06-.13-1-1,0-.61-13.86s4.17-1.75,3.8-2.25c-.55-.76-4.84.47-4.84.47l-1.38-1.76s2.87-2,2.6-2.2-5.36.5-7.15,3.36C548.18,653,549,653.57,551.62,652.24Z" transform="translate(-10 -7.98)"/><rect class="cls-15" x="549.06" y="667.74" width="1.13" height="2.43" rx="0.19" transform="translate(-304.26 467.47) rotate(-37.68)"/><rect class="cls-15" x="542.31" y="668.16" width="1.13" height="2.43" rx="0.19" transform="translate(495.65 -199.64) rotate(36.57)"/><path class="cls-15" d="M545.66,656.74a6.21,6.21,0,1,0,6.6,5.92A6.27,6.27,0,0,0,545.66,656.74Zm.53,11a4.89,4.89,0,1,1,4.76-5.1A4.93,4.93,0,0,1,546.19,667.73Z" transform="translate(-10 -7.98)"/><ellipse class="cls-15" cx="545.97" cy="662.86" rx="4.47" ry="4.38" transform="translate(-38.68 16.72) rotate(-2.53)"/><path class="cls-15" d="M537,649.93l-.72,3.33-2.13-.23a.79.79,0,0,0-.86.67l-.67,4.55a.53.53,0,0,0,.47.62l2.58.32.66,11-1.12,0,0,1,3.21-.14-.13-.87-1.05-.12-.47-10.75,2.43.25a.56.56,0,0,0,.61-.47l.74-4.86a.38.38,0,0,0-.33-.43l-2.84-.33.72-3.33s3.86.78,4.43,0-7.07-3.15-9.11-2.42a.34.34,0,0,0-.11.58A10.46,10.46,0,0,0,537,649.93Z" transform="translate(-10 -7.98)"/></g></g><g id="blueButtons"><rect id="blueRec1-3" data-name="blueRec1" class="cls-2" x="399.37" y="631.37" width="85.6" height="123.09" rx="4.56"/><g id="guitar-3" data-name="guitar"><circle id="C2-3" data-name="C2" class="cls-9" cx="441.57" cy="731.31" r="17.49"/><path class="cls-2" d="M451.1,737.39l1.82-1.16,6.39-4.07c.17-.11.32-.19.23-.46s.08-.43.29-.56l2.21-1.36,1.61-1c.44-.27.68-.21,1,.21s.51.77.78,1.16a.61.61,0,0,1-.16,1l-3.61,2.6c-.32.23-.46.22-.81,0a.37.37,0,0,0-.28.06l-2.76,1.93-5.1,3.57c-.14.1-.18.18-.1.35a5.91,5.91,0,0,1,.61,2.71,1.9,1.9,0,0,1-.31,1.12,1.85,1.85,0,0,1-.61.54c-1.09.57-2.21,1.07-3.28,1.66a4.21,4.21,0,0,0-1.77,1.82,8.88,8.88,0,0,1-.86,1.46,3.46,3.46,0,0,1-3.69,1.21,6.56,6.56,0,0,1-4-2.83,6.94,6.94,0,0,1-1.33-3.83,4.18,4.18,0,0,1,1.13-3.26,3.29,3.29,0,0,1,2-1l1.31-.16a5.64,5.64,0,0,0,2.85-1.4l1.81-1.54a.81.81,0,0,0,.19-.18,1.53,1.53,0,0,1,1.57-.49,5.18,5.18,0,0,1,2.56,1.52C450.89,737.15,451,737.27,451.1,737.39Zm-5.67,3.87a2.11,2.11,0,1,0,2.11-2.11A2.13,2.13,0,0,0,445.43,741.26Z" transform="translate(-10 -7.98)"/></g><g id="trumpet-3" data-name="trumpet"><circle id="C1-3" data-name="C1" class="cls-9" cx="462.11" cy="692.13" r="17.49"/><path class="cls-2" d="M467.71,697.63c.93,0,2,0,3,0h4.88a7.93,7.93,0,0,0,2.89-.51,7.77,7.77,0,0,0,2-1.15l2.62-2c.32-.25.63-.51,1-.75a1.34,1.34,0,0,1,2,.4,1.14,1.14,0,0,1,.18.65V705a2.19,2.19,0,0,1,0,.57,1.35,1.35,0,0,1-2.11.76c-.44-.32-.87-.67-1.31-1-.94-.73-1.86-1.49-2.82-2.19a7,7,0,0,0-3.2-1.23c-.23,0-.27,0-.27.23,0,.7,0,1.4,0,2.09a4.83,4.83,0,0,1-3.16,4.64,4.7,4.7,0,0,1-1.61.31c-2.24,0-4.48,0-6.72,0a4.61,4.61,0,0,1-3.09-1.27,4.89,4.89,0,0,1-1.52-2.93,2.64,2.64,0,0,1,0-.28c0-.77,0-1.53,0-2.3a4.84,4.84,0,0,1,1.25-3.34c.05,0,.13-.09.1-.16s-.13,0-.19,0h-2.68c-.16,0-.22.07-.22.22s0,.39,0,.59a.54.54,0,0,1-.59.55.53.53,0,0,1-.58-.58c0-.94,0-1.89,0-2.83a.6.6,0,0,1,.57-.6.58.58,0,0,1,.61.56c0,.21,0,.42,0,.63s0,.26.26.26h8.81Z" transform="translate(-10 -7.98)"/><path class="cls-14" d="M468.43,705.61h-3.11a1.27,1.27,0,0,1-1.35-1.36c0-.37,0-.75,0-1.12a1.22,1.22,0,0,1,1.24-1.24h7.53a.17.17,0,0,1,.19.19c0,.65,0,1.3,0,1.95a2.43,2.43,0,0,1-.08.53,1.22,1.22,0,0,1-1.23,1.05Z" transform="translate(-10 -7.98)"/></g><g id="piano-3" data-name="piano"><circle id="C3-3" data-name="C3" class="cls-9" cx="421.22" cy="692.13" r="17.49"/><path class="cls-2" d="M431.3,709.19h-8.93c-.59,0-.61,0-.61-.62q0-8.85,0-17.71c0-.51,0-.56.56-.56h18c.51,0,.56.05.56.56v17.68c0,.64,0,.66-.65.66h-9Z" transform="translate(-10 -7.98)"/><path class="cls-4" d="M439.84,699.78v7.7c0,.58,0,.62-.62.62h-3.74c-.53,0-.59-.06-.59-.58v-6c0-.52.06-.57.56-.57,1,0,.92.09.94-.94,0-1.87,0-3.75,0-5.62,0-.86.08-1.72,0-2.58,0-.33.15-.44.46-.44h2.51c.44,0,.5.07.5.51,0,2.05,0,4.09,0,6.14v1.74Z" transform="translate(-10 -7.98)"/><path class="cls-4" d="M422.84,699.74v-7.51c0-.17,0-.34,0-.51a.31.31,0,0,1,.35-.33H426c.3,0,.36.19.35.44,0,.49,0,1,0,1.48,0,1.27,0,2.54,0,3.81s0,2.27,0,3.41c0,.32.15.46.47.44h.1c.94,0,.89-.06.9.89v5.63c0,.55-.06.61-.6.61H423.4c-.51,0-.56-.05-.56-.57Z" transform="translate(-10 -7.98)"/><path class="cls-4" d="M432.35,696.19v4.24c0,.49,0,.54.54.54,1,0,.92-.07.92.93,0,1.89,0,3.77,0,5.66,0,.5,0,.55-.53.55h-3.92c-.43,0-.48-.05-.48-.49v-6.14c0-.45.05-.49.51-.49,1,0,.95.09.95-1v-8.06c0-.51,0-.55.56-.56.34,0,.68,0,1,0s.44.18.43.48c0,1.26,0,2.52,0,3.77v.55Z" transform="translate(-10 -7.98)"/></g><g id="sax-3" data-name="sax"><circle id="C4-3" data-name="C4" class="cls-9" cx="462.44" cy="652.94" r="17.49"/><path class="cls-2" d="M469.9,650.64c.23,1.17.5,2.34.68,3.53.07.51.19,1,.27,1.53,0,.2,0,.3-.21.36a.67.67,0,0,0-.5.75.68.68,0,0,0,.69.68c.15,0,.29,0,.33.21.07.46.08.46-.17.57a.75.75,0,0,0,.27,1.45.22.22,0,0,1,.23.19l.06.26a.31.31,0,0,1-.23.42.7.7,0,0,0-.45.78.66.66,0,0,0,.67.63c.21,0,.27.1.31.31.15.9.26,1.81.42,2.71s.35,2,.59,3a5.07,5.07,0,0,0,.46,1.25,1.07,1.07,0,0,0,.15.22.45.45,0,0,0,.76,0,1.44,1.44,0,0,0,.29-.94,11.44,11.44,0,0,0-.19-2.26c-.18-1.12-.46-2.23-.67-3.34a10.76,10.76,0,0,1-.16-3.35,3.51,3.51,0,0,0,0-.65,1.32,1.32,0,0,0-.57-1.1.25.25,0,0,1-.09-.38,3.55,3.55,0,0,0,.23-.43c.07-.17.18-.2.34-.12l1,.5,7.17,3.52c.19.1.2.19.12.38-.16.4-.35.72-.86.68a1.45,1.45,0,0,0-.6.16,1.52,1.52,0,0,0-1,1.57,26.2,26.2,0,0,0,.17,2.66,10.66,10.66,0,0,1-.18,3.86,5.87,5.87,0,0,1-2.89,3.65,5.4,5.4,0,0,1-2.43.75,4.68,4.68,0,0,1-3.68-1.34,6.26,6.26,0,0,1-1.61-2.83,14,14,0,0,1-.4-2.89c-.07-1.1-.14-2.2-.2-3.31s-.08-2.07-.14-3.11-.13-2.12-.19-3.18-.12-2-.19-2.94c-.1-1.43-.23-2.87-.45-4.3a6.07,6.07,0,0,0-.3-1.11.3.3,0,0,0-.48-.18,1.84,1.84,0,0,0-.61.63c-.37.58-.68,1.19-1.1,1.73a3.77,3.77,0,0,1-1.18,1.07c-.15.08-.25.06-.29-.11l-.18-.85a.33.33,0,0,1,.1-.32,8.06,8.06,0,0,0,1.09-1.68c.36-.69.69-1.39,1.08-2a6.54,6.54,0,0,1,.7-1,1.38,1.38,0,0,1,1.51-.43,2.48,2.48,0,0,1,1.63,1.46,8.85,8.85,0,0,1,.57,1.64C469.75,649.9,469.82,650.27,469.9,650.64Z" transform="translate(-10 -7.98)"/><path class="cls-2" d="M462.2,652.62l0,.11c.1.47.07.5-.4.48a5,5,0,0,1-1.91-.45,1.06,1.06,0,0,1-.53-.42c-.14-.21-.08-.35.16-.42a1.51,1.51,0,0,1,.56,0,6.75,6.75,0,0,0,1.74.13.24.24,0,0,1,.27.21c0,.11.05.23.08.34Z" transform="translate(-10 -7.98)"/></g><g id="drums-3" data-name="drums"><circle id="C5-3" data-name="C5" class="cls-9" cx="421.55" cy="652.94" r="17.49"/><path class="cls-2" d="M438.13,653l1.21,1.77s-3.08,1.18-3,1.87,4.25-.19,4.25-.19l.69,13.6-1.13,0,0,1,3.3-.06-.13-1-1,0-.62-13.87s4.18-1.74,3.81-2.25c-.55-.76-4.84.48-4.84.48l-1.38-1.77s2.87-1.95,2.59-2.19-5.36.49-7.14,3.35C434.69,653.8,435.5,654.37,438.13,653Z" transform="translate(-10 -7.98)"/><rect class="cls-2" x="435.57" y="668.55" width="1.13" height="2.43" rx="0.19" transform="translate(-328.42 398.27) rotate(-37.68)"/><rect class="cls-2" x="428.82" y="668.97" width="1.13" height="2.43" rx="0.19" transform="translate(473.79 -131.87) rotate(36.57)"/><path class="cls-2" d="M432.16,657.54a6.21,6.21,0,1,0,6.6,5.92A6.27,6.27,0,0,0,432.16,657.54Zm.53,11a4.89,4.89,0,1,1,4.77-5.11A4.95,4.95,0,0,1,432.69,668.54Z" transform="translate(-10 -7.98)"/><ellipse class="cls-2" cx="432.48" cy="663.66" rx="4.47" ry="4.38" transform="translate(-38.82 11.72) rotate(-2.53)"/><path class="cls-2" d="M423.53,650.73l-.72,3.33-2.13-.22a.77.77,0,0,0-.86.66l-.68,4.55a.56.56,0,0,0,.48.63l2.58.31.66,11-1.13,0,0,1,3.2-.14-.12-.86-1.05-.13-.47-10.74,2.43.25a.56.56,0,0,0,.61-.48l.74-4.85a.38.38,0,0,0-.33-.43l-2.84-.34.72-3.33s3.85.79,4.42,0-7.07-3.15-9.1-2.42a.34.34,0,0,0-.12.58A10.47,10.47,0,0,0,423.53,650.73Z" transform="translate(-10 -7.98)"/></g></g></svg>