<svg id="buttons" xmlns="http://www.w3.org/2000/svg" viewBox="0 0 18.75 18.75"><defs><style>.cls-1,.cls-2{fill:#fff;}.cls-1{opacity:0.91;}</style></defs><title>keys</title><g id="piano"><circle id="C3" class="cls-1" cx="9.37" cy="9.37" r="9.37"/><path d="M9.42,14.24H4.63c-.31,0-.33,0-.33-.33V4.42c0-.28,0-.3.3-.3h9.67c.28,0,.3,0,.3.3v9.47c0,.34,0,.35-.35.35Z"/><path class="cls-2" d="M14,9.2v4.12c0,.32,0,.33-.33.34h-2c-.29,0-.32,0-.32-.31V10.14c0-.28,0-.3.3-.31.52,0,.5.05.5-.5,0-1,0-2,0-3,0-.46,0-.92,0-1.38,0-.18.08-.24.25-.24h1.34c.23,0,.27,0,.27.28V9.2Z"/><path class="cls-2" d="M4.88,9.18v-4a2.44,2.44,0,0,1,0-.27.16.16,0,0,1,.18-.18H6.55c.16,0,.2.1.19.23a7.12,7.12,0,0,0,0,.8c0,.68,0,1.36,0,2s0,1.22,0,1.83c0,.17.08.25.25.24h.06c.5,0,.48,0,.48.47v3c0,.29,0,.32-.32.33h-2c-.27,0-.3,0-.3-.3Z"/><path class="cls-2" d="M10,7.27V9.55c0,.26,0,.28.29.28.53,0,.49,0,.49.5v3c0,.27,0,.29-.29.29H8.37c-.23,0-.25,0-.25-.26,0-1.09,0-2.19,0-3.29,0-.24,0-.26.28-.26.53,0,.51.05.51-.52V5c0-.28,0-.3.3-.3h.54c.18,0,.24.1.24.26,0,.67,0,1.35,0,2v.29Z"/></g></svg>