<svg id="purpleButtons" xmlns="http://www.w3.org/2000/svg" viewBox="0 0 85.6 123.09"><defs><style>.cls-1{fill:#9d41ef;}.cls-2,.cls-4{fill:#fff;}.cls-2{opacity:0.91;}.cls-3{fill:#fdfeff;}</style></defs><rect id="blueRec1" class="cls-1" width="85.6" height="123.09" rx="4.56"/><g id="guitar"><circle id="C2" class="cls-2" cx="42.21" cy="99.94" r="17.49"/><path class="cls-1" d="M41.73,98l1.83-1.16,6.38-4.07c.18-.11.32-.19.23-.45a.5.5,0,0,1,.29-.56l2.21-1.36,1.62-1c.44-.27.68-.21,1,.21L56,90.8c.29.42.25.68-.16,1l-3.6,2.61a.58.58,0,0,1-.81,0,.4.4,0,0,0-.29.06c-.92.64-1.84,1.28-2.75,1.93L43.32,100c-.15.1-.18.17-.11.34a6.12,6.12,0,0,1,.62,2.72,2,2,0,0,1-.31,1.12,1.89,1.89,0,0,1-.62.54c-1.09.57-2.2,1.07-3.28,1.65a4.32,4.32,0,0,0-1.76,1.83,8.88,8.88,0,0,1-.86,1.46,3.44,3.44,0,0,1-3.69,1.2,6.52,6.52,0,0,1-4-2.82A7,7,0,0,1,28,104.16a4.22,4.22,0,0,1,1.13-3.26,3.31,3.31,0,0,1,2-1l1.31-.16a5.56,5.56,0,0,0,2.85-1.4c.6-.52,1.21-1,1.82-1.54.06-.06.13-.11.19-.18a1.5,1.5,0,0,1,1.56-.49,5.18,5.18,0,0,1,2.57,1.52C41.53,97.8,41.62,97.91,41.73,98Zm-5.66,3.88a2.11,2.11,0,1,0,2.1-2.11A2.11,2.11,0,0,0,36.07,101.91Z"/></g><g id="trumpet"><circle id="C1" class="cls-2" cx="62.74" cy="60.76" r="17.49"/><path class="cls-1" d="M58.34,58.28c.93,0,2,0,3,0h4.89a7.7,7.7,0,0,0,2.88-.5,8,8,0,0,0,2-1.15l2.62-2.06c.32-.25.63-.51,1-.74a1.34,1.34,0,0,1,2,.39,1.25,1.25,0,0,1,.17.66v4.79c0,2,0,4,0,6a2.18,2.18,0,0,1,0,.57,1.34,1.34,0,0,1-2.11.75c-.45-.31-.88-.67-1.31-1-.94-.74-1.86-1.49-2.83-2.19a6.94,6.94,0,0,0-3.19-1.23c-.24,0-.27,0-.28.23,0,.7,0,1.39.05,2.09A4.84,4.84,0,0,1,64,69.53a4.47,4.47,0,0,1-1.62.3c-2.24,0-4.47,0-6.71,0a4.55,4.55,0,0,1-3.09-1.28A4.8,4.8,0,0,1,51,65.63a2.64,2.64,0,0,1,0-.28v-2.3a4.73,4.73,0,0,1,1.25-3.34c0-.05.13-.09.09-.17s-.12,0-.19,0H49.49c-.16,0-.22.07-.22.22a5.86,5.86,0,0,1,0,.59.54.54,0,0,1-.59.55.53.53,0,0,1-.58-.58c0-1,0-1.89,0-2.83a.59.59,0,0,1,.57-.6.57.57,0,0,1,.6.56c0,.21,0,.42,0,.62s0,.27.27.27h8.8Z"/><path class="cls-3" d="M59.07,66.26c-1,0-2.08,0-3.12,0A1.27,1.27,0,0,1,54.6,64.9c0-.37,0-.75,0-1.12a1.23,1.23,0,0,1,1.25-1.24h7.52c.13,0,.19.06.19.18,0,.66,0,1.31,0,2a3.23,3.23,0,0,1-.08.53,1.22,1.22,0,0,1-1.24,1Z"/></g><g id="piano"><circle id="C3" class="cls-2" cx="21.86" cy="60.76" r="17.49"/><path class="cls-1" d="M21.94,69.84H13c-.59,0-.62,0-.62-.62V51.51c0-.51,0-.56.56-.56H31c.51,0,.56.05.56.57q0,8.84,0,17.68c0,.64,0,.65-.65.65Z"/><path class="cls-4" d="M30.47,60.43v7.7c0,.58,0,.61-.61.62-1.25,0-2.5,0-3.74,0-.54,0-.6-.06-.6-.57,0-2,0-4,0-6,0-.52,0-.57.55-.57,1,0,.93.09.94-.94,0-1.88,0-3.75,0-5.62,0-.86.08-1.72,0-2.58,0-.33.14-.45.46-.44H30c.44,0,.51.06.51.51v7.88Z"/><path class="cls-4" d="M13.47,60.39V52.88c0-.17,0-.34,0-.51a.31.31,0,0,1,.34-.33h2.76c.3,0,.37.19.35.43,0,.5,0,1,0,1.49,0,1.27,0,2.54,0,3.81s0,2.27,0,3.4c0,.33.15.47.47.45h.11c.93,0,.89-.06.89.89,0,1.88,0,3.75,0,5.63,0,.55-.05.6-.6.61-1.26,0-2.51,0-3.77,0-.51,0-.56,0-.56-.56Q13.47,64.29,13.47,60.39Z"/><path class="cls-4" d="M23,56.84v4.24c0,.49.05.54.55.53,1,0,.91-.06.91.94v5.66c0,.5-.05.54-.54.54H20c-.42,0-.47,0-.47-.5,0-2,0-4.09,0-6.13,0-.45,0-.49.5-.49,1,0,1,.09,1-1V52.59c0-.51,0-.56.56-.56.33,0,.67,0,1,0s.44.17.44.48v4.32Z"/></g><g id="sax"><circle id="C4" class="cls-2" cx="63.07" cy="21.57" r="17.49"/><path class="cls-1" d="M60.54,11.29c.23,1.17.5,2.34.67,3.52.08.52.2,1,.28,1.54,0,.19,0,.3-.22.36a.66.66,0,0,0-.49.75.67.67,0,0,0,.68.67c.16,0,.3,0,.33.22.08.46.09.46-.16.57a.73.73,0,0,0-.47.82.75.75,0,0,0,.73.63.2.2,0,0,1,.23.18l.06.26a.3.3,0,0,1-.22.43.73.73,0,0,0,.21,1.41c.22,0,.28.1.31.31.15.9.27,1.81.42,2.71s.36,2,.59,2.95A5.26,5.26,0,0,0,64,29.87a1.07,1.07,0,0,0,.15.22.45.45,0,0,0,.76,0,1.43,1.43,0,0,0,.28-.94A10.1,10.1,0,0,0,65,26.88c-.17-1.12-.45-2.23-.67-3.35a10.71,10.71,0,0,1-.16-3.34,3.54,3.54,0,0,0,0-.65,1.32,1.32,0,0,0-.58-1.1.25.25,0,0,1-.08-.38,3.48,3.48,0,0,0,.22-.43.21.21,0,0,1,.34-.12l1,.5,7.16,3.52c.2.1.21.19.13.38-.16.4-.35.72-.87.68a1.71,1.71,0,0,0-1.58,1.72A26.4,26.4,0,0,0,70.11,27a10.83,10.83,0,0,1-.18,3.85A5.88,5.88,0,0,1,67,34.49a5.48,5.48,0,0,1-2.42.75,4.67,4.67,0,0,1-3.68-1.34,6.22,6.22,0,0,1-1.61-2.83,12.9,12.9,0,0,1-.4-2.89c-.08-1.1-.14-2.21-.2-3.31s-.09-2.08-.15-3.11-.13-2.12-.19-3.19-.11-1.95-.18-2.93c-.11-1.44-.23-2.87-.45-4.3a6.4,6.4,0,0,0-.3-1.12.3.3,0,0,0-.48-.17,1.87,1.87,0,0,0-.62.63c-.37.57-.68,1.19-1.1,1.73a3.77,3.77,0,0,1-1.18,1.07c-.15.08-.24.06-.28-.11s-.13-.56-.19-.85a.41.41,0,0,1,.1-.33,7.81,7.81,0,0,0,1.09-1.68c.37-.68.69-1.38,1.09-2a6,6,0,0,1,.69-1,1.39,1.39,0,0,1,1.51-.44,2.56,2.56,0,0,1,1.64,1.47,9.36,9.36,0,0,1,.57,1.64C60.38,10.55,60.45,10.92,60.54,11.29Z"/><path class="cls-1" d="M52.84,13.27l0,.11c.1.46.07.5-.4.48a5.28,5.28,0,0,1-1.91-.45A1.17,1.17,0,0,1,50,13c-.13-.21-.07-.35.17-.41a1.69,1.69,0,0,1,.55,0,6.37,6.37,0,0,0,1.74.14.25.25,0,0,1,.28.21c0,.11.05.23.08.34Z"/></g><g id="drums"><circle id="C5" class="cls-2" cx="22.18" cy="21.57" r="17.49"/><path class="cls-1" d="M28.76,13.69,30,15.46s-3.07,1.18-3,1.87,4.24-.19,4.24-.19l.69,13.6-1.13.05.05,1,3.3-.06-.14-1-1,0-.61-13.86s4.18-1.75,3.81-2.25c-.56-.76-4.85.47-4.85.47l-1.37-1.76s2.86-1.95,2.59-2.2-5.36.5-7.15,3.36C25.32,14.45,26.13,15,28.76,13.69Z"/><rect class="cls-1" x="26.2" y="29.2" width="1.13" height="2.43" rx="0.19" transform="translate(-13.01 22.7) rotate(-37.68)"/><rect class="cls-1" x="19.45" y="29.61" width="1.13" height="2.43" rx="0.19" transform="matrix(0.8, 0.6, -0.6, 0.8, 22.31, -5.86)"/><path class="cls-1" d="M22.8,18.19a6.21,6.21,0,1,0,6.6,5.92A6.25,6.25,0,0,0,22.8,18.19Zm.53,11a4.89,4.89,0,1,1,4.76-5.11A4.95,4.95,0,0,1,23.33,29.19Z"/><ellipse class="cls-1" cx="23.11" cy="24.31" rx="4.47" ry="4.38" transform="translate(-1.05 1.04) rotate(-2.53)"/><path class="cls-1" d="M14.16,11.38l-.72,3.33-2.13-.23a.8.8,0,0,0-.86.67L9.78,19.7a.55.55,0,0,0,.47.63l2.59.31.66,11-1.13.05,0,.95,3.21-.14-.13-.86-1.05-.13L14,20.76,16.4,21a.57.57,0,0,0,.62-.47l.73-4.86a.38.38,0,0,0-.33-.43l-2.84-.33.72-3.33s3.86.79,4.43,0-7.07-3.15-9.1-2.42a.34.34,0,0,0-.12.58A10.57,10.57,0,0,0,14.16,11.38Z"/></g></svg>