<svg id="purpleButtons" xmlns="http://www.w3.org/2000/svg" viewBox="0 0 18.75 18.75"><defs><style>.cls-1{fill:#fff;opacity:0.91;}.cls-2{fill:#9d41ef;}</style></defs><g id="guitar"><circle id="C2" class="cls-1" cx="9.37" cy="9.37" r="9.37"/><path class="cls-2" d="M8.94,7.92l1-.62,3.42-2.18c.09-.06.17-.1.13-.25s0-.22.15-.29l1.18-.74.87-.53c.24-.14.36-.12.52.11s.27.42.41.62.14.37-.08.53L14.59,6a.32.32,0,0,1-.44,0A.17.17,0,0,0,14,6L12.52,7,9.79,9c-.08.05-.1.09,0,.18a3.31,3.31,0,0,1,.32,1.46,1,1,0,0,1-.16.6,1.15,1.15,0,0,1-.33.29c-.58.3-1.18.57-1.76.88a2.34,2.34,0,0,0-.94,1,4.84,4.84,0,0,1-.47.79,1.84,1.84,0,0,1-2,.64,3.49,3.49,0,0,1-2.14-1.52,3.68,3.68,0,0,1-.71-2.05,2.27,2.27,0,0,1,.6-1.74,1.78,1.78,0,0,1,1.08-.52L4,8.85a3.09,3.09,0,0,0,1.53-.74l1-.83a.94.94,0,0,0,.1-.1.81.81,0,0,1,.84-.26,2.77,2.77,0,0,1,1.37.82C8.83,7.79,8.88,7.86,8.94,7.92ZM5.91,10A1.13,1.13,0,1,0,7,8.87,1.11,1.11,0,0,0,5.91,10Z" transform="translate(0.18 0.43)"/></g></svg>