<svg id="pinkButtons" xmlns="http://www.w3.org/2000/svg" viewBox="0 0 34.98 34.98"><defs><style>.cls-1{fill:#fff;opacity:0.91;}.cls-2{fill:#f462ab;}</style></defs><g id="drums"><circle id="C5" class="cls-1" cx="17.49" cy="17.49" r="17.49"/><path class="cls-2" d="M24.07,9.61l1.21,1.77s-3.08,1.17-3.05,1.87,4.25-.19,4.25-.19l.69,13.6L26,26.71l0,1,3.3-.06-.13-1-1,0-.62-13.86S31.77,11,31.4,10.5c-.55-.76-4.84.47-4.84.47L25.18,9.21s2.87-2,2.59-2.2-5.36.5-7.14,3.36C20.63,10.37,21.44,10.94,24.07,9.61Z"/><rect class="cls-2" x="21.51" y="25.12" width="1.13" height="2.43" rx="0.19" transform="translate(-11.49 18.98) rotate(-37.68)"/><rect class="cls-2" x="14.76" y="25.53" width="1.13" height="2.43" rx="0.19" transform="translate(18.95 -3.86) rotate(36.57)"/><path class="cls-2" d="M18.1,14.11A6.21,6.21,0,1,0,24.7,20,6.27,6.27,0,0,0,18.1,14.11Zm.53,11A4.89,4.89,0,1,1,23.4,20,4.93,4.93,0,0,1,18.63,25.11Z"/><ellipse class="cls-2" cx="18.42" cy="20.23" rx="4.47" ry="4.38" transform="translate(-0.87 0.83) rotate(-2.53)"/><path class="cls-2" d="M9.47,7.3l-.72,3.33L6.62,10.4a.79.79,0,0,0-.86.67l-.68,4.55a.56.56,0,0,0,.48.63l2.58.31.66,11-1.13.05,0,.95,3.2-.14-.12-.86-1.05-.13L9.28,16.68l2.43.25a.56.56,0,0,0,.61-.47l.74-4.86a.38.38,0,0,0-.33-.43l-2.84-.33.72-3.33s3.85.78,4.42,0S8,4.34,5.93,5.07a.34.34,0,0,0-.12.58A10.68,10.68,0,0,0,9.47,7.3Z"/></g></svg>