<svg id="pinkButtons" xmlns="http://www.w3.org/2000/svg" viewBox="0 0 18.75 18.75"><defs><style>.cls-1,.cls-3{fill:#fff;}.cls-1{opacity:0.91;}.cls-2{fill:#f462ab;}</style></defs><g id="piano"><circle id="C3" class="cls-1" cx="9.37" cy="9.37" r="9.37"/><path class="cls-2" d="M9.24,13.81H4.45c-.31,0-.33,0-.33-.33V4c0-.28,0-.3.31-.3H14.1c.27,0,.29,0,.29.31v9.47c0,.34,0,.35-.34.35Z" transform="translate(0.18 0.43)"/><path class="cls-3" d="M13.81,8.77c0,1.37,0,2.75,0,4.12,0,.32,0,.33-.33.33h-2c-.29,0-.32,0-.32-.31V9.71c0-.28,0-.3.3-.31.52,0,.5,0,.5-.5,0-1,0-2,0-3,0-.46,0-.92,0-1.38,0-.18.08-.24.25-.24.45,0,.89,0,1.34,0,.24,0,.27,0,.27.28V8.77Z" transform="translate(0.18 0.43)"/><path class="cls-3" d="M4.7,8.75v-4c0-.09,0-.18,0-.27a.17.17,0,0,1,.19-.18H6.38c.16,0,.19.1.18.23s0,.53,0,.8c0,.68,0,1.36,0,2s0,1.22,0,1.83c0,.17.08.25.25.24h.06c.5,0,.48,0,.48.47v3c0,.29,0,.32-.32.32H5c-.28,0-.3,0-.3-.3C4.7,11.53,4.7,10.14,4.7,8.75Z" transform="translate(0.18 0.43)"/><path class="cls-3" d="M9.8,6.84V9.12c0,.26,0,.28.29.28.53,0,.49,0,.49.5v3c0,.27,0,.29-.29.29H8.19c-.23,0-.25,0-.25-.26V9.67c0-.24,0-.26.27-.26.53,0,.51.05.51-.52V4.57c0-.28,0-.3.3-.3s.36,0,.54,0,.24.09.24.26V6.84Z" transform="translate(0.18 0.43)"/></g></svg>