<svg id="purpleButtons" xmlns="http://www.w3.org/2000/svg" viewBox="0 0 18.75 18.75"><defs><style>.cls-1{fill:#fff;opacity:0.91;}.cls-2{fill:#9d41ef;}</style></defs><g id="sax"><circle id="C4" class="cls-1" cx="9.37" cy="9.37" r="9.37"/><path class="cls-2" d="M8,3.86c.12.63.26,1.26.36,1.89,0,.28.1.55.14.83,0,.1,0,.16-.11.19a.36.36,0,0,0-.27.4.37.37,0,0,0,.37.36c.08,0,.16,0,.18.12s0,.24-.09.3a.39.39,0,0,0-.25.44.4.4,0,0,0,.39.34.12.12,0,0,1,.13.1A.89.89,0,0,0,8.9,9a.17.17,0,0,1-.12.23.37.37,0,0,0-.25.41.37.37,0,0,0,.36.34c.12,0,.15.06.17.17.08.48.14,1,.22,1.45s.19,1.06.32,1.58a2.36,2.36,0,0,0,.25.67l.08.12a.25.25,0,0,0,.41,0,.8.8,0,0,0,.15-.5,6.12,6.12,0,0,0-.1-1.21c-.1-.6-.25-1.2-.36-1.79a6,6,0,0,1-.09-1.8,1.94,1.94,0,0,0,0-.34.72.72,0,0,0-.31-.59.14.14,0,0,1-.05-.21,1,1,0,0,0,.12-.23c0-.09.1-.11.19-.06l.54.26,3.84,1.89c.11.05.11.1.07.21s-.19.38-.46.36a.72.72,0,0,0-.32.08.81.81,0,0,0-.53.84,13.55,13.55,0,0,0,.09,1.43,5.76,5.76,0,0,1-.09,2.07,3.17,3.17,0,0,1-1.55,2,3,3,0,0,1-1.3.4,2.51,2.51,0,0,1-2-.72,3.39,3.39,0,0,1-.86-1.52,6.64,6.64,0,0,1-.21-1.54c0-.59-.08-1.19-.11-1.78S7,10,7,9.47s-.07-1.13-.1-1.7-.06-1-.1-1.57c-.06-.78-.12-1.54-.24-2.31a3.33,3.33,0,0,0-.16-.6A.16.16,0,0,0,6.1,3.2a1,1,0,0,0-.33.34c-.2.3-.36.63-.59.92A2,2,0,0,1,4.55,5c-.08,0-.13,0-.15-.06s-.07-.3-.1-.46a.22.22,0,0,1,0-.17,4.36,4.36,0,0,0,.59-.9c.19-.37.37-.74.58-1.1a3.68,3.68,0,0,1,.37-.51A.75.75,0,0,1,6.7,1.6a1.38,1.38,0,0,1,.88.79,5.37,5.37,0,0,1,.3.88C7.93,3.47,8,3.66,8,3.86Z"/><path class="cls-2" d="M3.89,4.93V5c.06.25,0,.27-.21.26a2.63,2.63,0,0,1-1-.24.62.62,0,0,1-.28-.23c-.07-.11,0-.19.09-.22a.7.7,0,0,1,.29,0,3.69,3.69,0,0,0,.94.07.13.13,0,0,1,.15.11,1.62,1.62,0,0,0,0,.19Z"/></g></svg>