<svg id="purpleButtons" xmlns="http://www.w3.org/2000/svg" viewBox="0 0 18.75 18.75"><defs><style>.cls-1{fill:#fff;opacity:0.91;}.cls-2{fill:#9d41ef;}.cls-3{fill:#fdfeff;}</style></defs><g id="trumpet"><circle id="C1" class="cls-1" cx="9.37" cy="9.37" r="9.37"/><path class="cls-2" d="M7,8.05h4.23a3.93,3.93,0,0,0,1.55-.27,4.49,4.49,0,0,0,1.06-.61l1.4-1.1.51-.41a.72.72,0,0,1,1.07.22.53.53,0,0,1,.09.35c0,.85,0,1.71,0,2.57V12a1.51,1.51,0,0,1,0,.3.73.73,0,0,1-1.13.41c-.24-.17-.47-.36-.71-.54-.5-.4-1-.8-1.51-1.18a3.78,3.78,0,0,0-1.71-.66c-.13,0-.15,0-.15.13,0,.37,0,.75,0,1.12a2.59,2.59,0,0,1-2.56,2.65H5.58a2.46,2.46,0,0,1-1.66-.69A2.62,2.62,0,0,1,3.1,12c0-.05,0-.11,0-.16V10.6a2.57,2.57,0,0,1,.67-1.79s.07,0,.05-.09-.07,0-.1,0H2.27c-.08,0-.12,0-.12.11a1.71,1.71,0,0,1,0,.32.29.29,0,0,1-.32.29.28.28,0,0,1-.31-.31V7.59a.33.33,0,0,1,.3-.32.31.31,0,0,1,.33.3c0,.11,0,.23,0,.34s0,.14.15.14H7Z"/><path class="cls-3" d="M7.4,12.32H5.73A.68.68,0,0,1,5,11.59c0-.2,0-.4,0-.6a.66.66,0,0,1,.67-.66h4c.07,0,.1,0,.1.1,0,.35,0,.7,0,1.05,0,.09,0,.18,0,.28a.66.66,0,0,1-.66.56Z"/></g></svg>